SplineFontDB: 3.2
FontName: PixelCode
FullName: Pixel Code
FamilyName: Pixel Code
Weight: Medium
Copyright: Copyright (c) 2022, Qwerasd
Version: 001.000
ItalicAngle: 0
UnderlinePosition: -2
UnderlineWidth: 2
Ascent: 16
Descent: 2
InvalidEm: 0
sfntRevision: 0x00010000
LayerCount: 2
Layer: 0 1 "Back" 1
Layer: 1 1 "Fore" 0
XUID: [1021 384 -154929595 16029303]
StyleMap: 0x0040
FSType: 8
OS2Version: 4
OS2_WeightWidthSlopeOnly: 0
OS2_UseTypoMetrics: 1
CreationTime: 1280473793
ModificationTime: 1663499833
PfmFamily: 17
TTFWeight: 500
TTFWidth: 5
LineGap: 2
VLineGap: 0
Panose: 2 0 6 9 0 0 0 0 0 0
OS2TypoAscent: 0
OS2TypoAOffset: 1
OS2TypoDescent: 0
OS2TypoDOffset: 1
OS2TypoLinegap: 2
OS2WinAscent: 4
OS2WinAOffset: 1
OS2WinDescent: 0
OS2WinDOffset: 1
HheadAscent: 0
HheadAOffset: 1
HheadDescent: 0
HheadDOffset: 1
OS2SubXSize: 10
OS2SubYSize: 12
OS2SubXOff: 0
OS2SubYOff: 2
OS2SupXSize: 10
OS2SupYSize: 12
OS2SupXOff: 0
OS2SupYOff: 8
OS2StrikeYSize: 0
OS2StrikeYPos: 4
OS2Vendor: 'qwer'
OS2CodePages: 40000001.00000000
OS2UnicodeRanges: 80000003.00014002.00000000.00000000
Lookup: 4 0 0 "liga" { "liga-subtable"  } ['liga' ('DFLT' <'dflt' > 'latn' <'dflt' > ) ]
Lookup: 1 0 0 "ss01" { "ss01-1" ("straight") } ['ss01' ('DFLT' <'dflt' > 'latn' <'dflt' > ) ]
Lookup: 1 0 0 "onum" { "onum-subtable" ("onum") } ['onum' ('DFLT' <'dflt' > 'latn' <'dflt' > ) ]
Lookup: 1 0 0 "cpunct" { "cpunct-subtable" ("cpunct") } []
Lookup: 1 0 0 "shifted" { "shifted-1" ("shifted") } []
Lookup: 6 0 0 "calt" { "plus-minus-colon-asterisk"  "hex-nums"  "shifted-letters"  } ['calt' ('DFLT' <'dflt' > 'latn' <'dflt' > ) ]
MarkAttachClasses: 1
DEI: 91125
ChainSub2: class "shifted-letters" 2 3 2 2
  Class: 1 l
  BClass: 41 u ugrave uacute ucircumflex udieresis q t
  BClass: 47 i igrave iacute icircumflex idieresis l.shifted
  FClass: 37 i igrave iacute icircumflex idieresis
 1 1 1
  ClsList: 1
  BClsList: 1
  FClsList: 0
 1
  SeqLookup: 0 "shifted"
 1 1 0
  ClsList: 1
  BClsList: 2
  FClsList:
 1

StartChar: exclam
Encoding: 0 33 0
Width: 12
VWidth: 36
GlyphClass: 2
Flags: MW
LayerCount: 2
Fore
SplineSet
5 2 m 1,0,-1
 7 2 l 1,1,-1
 7 0 l 1,2,-1
 5 0 l 1,3,-1
 5 2 l 1,0,-1
5 14 m 1,4,-1
 7 14 l 1,5,-1
 7 4 l 1,6,-1
 5 4 l 1,7,-1
 5 14 l 1,4,-1
EndSplineSet
EndChar

StartChar: quotedbl
Encoding: 1 34 1
Width: 12
VWidth: 36
GlyphClass: 2
Flags: MW
LayerCount: 2
Fore
SplineSet
7 14 m 1,0,-1
 9 14 l 1,1,-1
 9 10 l 1,2,-1
 7 10 l 1,3,-1
 7 14 l 1,0,-1
3 14 m 1,4,-1
 5 14 l 1,5,-1
 5 10 l 1,6,-1
 3 10 l 1,7,-1
 3 14 l 1,4,-1
EndSplineSet
EndChar

StartChar: numbersign
Encoding: 2 35 2
Width: 12
VWidth: 36
GlyphClass: 2
Flags: MW
LayerCount: 2
Fore
SplineSet
5 8 m 1,0,-1
 5 6 l 1,1,-1
 7 6 l 1,2,-1
 7 8 l 1,3,-1
 5 8 l 1,0,-1
3 14 m 1,4,-1
 5 14 l 1,5,-1
 5 10 l 1,6,-1
 7 10 l 1,7,-1
 7 14 l 1,8,-1
 9 14 l 1,9,-1
 9 10 l 1,10,-1
 11 10 l 1,11,-1
 11 8 l 1,12,-1
 9 8 l 1,13,-1
 9 6 l 1,14,-1
 11 6 l 1,15,-1
 11 4 l 1,16,-1
 9 4 l 1,17,-1
 9 0 l 1,18,-1
 7 0 l 1,19,-1
 7 4 l 1,20,-1
 5 4 l 1,21,-1
 5 0 l 1,22,-1
 3 0 l 1,23,-1
 3 4 l 1,24,-1
 1 4 l 1,25,-1
 1 6 l 1,26,-1
 3 6 l 1,27,-1
 3 8 l 1,28,-1
 1 8 l 1,29,-1
 1 10 l 1,30,-1
 3 10 l 1,31,-1
 3 14 l 1,4,-1
EndSplineSet
EndChar

StartChar: dollar
Encoding: 3 36 3
Width: 12
VWidth: 36
GlyphClass: 2
Flags: MW
LayerCount: 2
Fore
SplineSet
1 4 m 1,0,-1
 3 4 l 1,1,-1
 3 2 l 1,2,-1
 1 2 l 1,3,-1
 1 4 l 1,0,-1
11 12 m 1,4,-1
 11 10 l 1,5,-1
 9 10 l 1,6,-1
 9 12 l 1,7,-1
 7 12 l 1,8,-1
 7 8 l 1,9,-1
 9 8 l 1,10,-1
 9 6 l 1,11,-1
 11 6 l 1,12,-1
 11 2 l 1,13,-1
 9 2 l 1,14,-1
 9 0 l 1,15,-1
 7 0 l 1,16,-1
 7 -2 l 1,17,-1
 5 -2 l 1,18,-1
 5 0 l 1,19,-1
 3 0 l 1,20,-1
 3 2 l 1,21,-1
 5 2 l 1,22,-1
 5 6 l 1,23,-1
 3 6 l 1,24,-1
 3 8 l 1,25,-1
 5 8 l 1,26,-1
 5 12 l 1,27,-1
 3 12 l 1,28,-1
 3 8 l 1,29,-1
 1 8 l 1,30,-1
 1 12 l 1,31,-1
 3 12 l 1,32,-1
 3 14 l 1,33,-1
 5 14 l 1,34,-1
 5 16 l 1,35,-1
 7 16 l 1,36,-1
 7 14 l 1,37,-1
 9 14 l 1,38,-1
 9 12 l 1,39,-1
 11 12 l 1,4,-1
9 2 m 1,40,-1
 9 6 l 1,41,-1
 7 6 l 1,42,-1
 7 2 l 1,43,-1
 9 2 l 1,40,-1
EndSplineSet
EndChar

StartChar: percent
Encoding: 5 37 5
Width: 12
VWidth: 36
GlyphClass: 2
Flags: MW
LayerCount: 2
Fore
SplineSet
3 10 m 1,0,-1
 1 10 l 1,1,-1
 1 14 l 1,2,-1
 3 14 l 1,3,-1
 3 10 l 1,0,-1
9 4 m 1,4,-1
 11 4 l 1,5,-1
 11 0 l 1,6,-1
 9 0 l 1,7,-1
 9 4 l 1,4,-1
1 0 m 1,8,-1
 1 2 l 1,9,-1
 3 2 l 1,10,-1
 3 6 l 1,11,-1
 5 6 l 1,12,-1
 5 8 l 1,13,-1
 7 8 l 1,14,-1
 7 12 l 1,15,-1
 9 12 l 1,16,-1
 9 14 l 1,17,-1
 11 14 l 1,18,-1
 11 12 l 1,19,-1
 9 12 l 1,20,-1
 9 8 l 1,21,-1
 7 8 l 1,22,-1
 7 6 l 1,23,-1
 5 6 l 1,24,-1
 5 2 l 1,25,-1
 3 2 l 1,26,-1
 3 0 l 1,27,-1
 1 0 l 1,8,-1
EndSplineSet
EndChar

StartChar: ampersand
Encoding: 6 38 6
Width: 12
VWidth: 36
GlyphClass: 2
Flags: MW
LayerCount: 2
Fore
SplineSet
11 2 m 1,0,-1
 11 0 l 1,1,-1
 9 0 l 1,2,-1
 9 2 l 1,3,-1
 11 2 l 1,0,-1
3 14 m 1,4,-1
 5 14 l 1,5,-1
 5 12 l 1,6,-1
 7 12 l 1,7,-1
 7 10 l 1,8,-1
 5 10 l 1,9,-1
 5 8 l 1,10,-1
 7 8 l 1,11,-1
 7 6 l 1,12,-1
 9 6 l 1,13,-1
 9 2 l 1,14,-1
 7 2 l 1,15,-1
 7 6 l 1,16,-1
 5 6 l 1,17,-1
 5 8 l 1,18,-1
 3 8 l 1,19,-1
 3 2 l 1,20,-1
 7 2 l 1,21,-1
 7 0 l 1,22,-1
 3 0 l 1,23,-1
 3 2 l 1,24,-1
 1 2 l 1,25,-1
 1 8 l 1,26,-1
 3 8 l 1,27,-1
 3 10 l 1,28,-1
 5 10 l 1,29,-1
 5 12 l 1,30,-1
 3 12 l 1,31,-1
 3 14 l 1,4,-1
9 6 m 1,32,-1
 9 8 l 1,33,-1
 11 8 l 1,34,-1
 11 6 l 1,35,-1
 9 6 l 1,32,-1
3 10 m 1,36,-1
 1 10 l 1,37,-1
 1 12 l 1,38,-1
 3 12 l 1,39,-1
 3 10 l 1,36,-1
EndSplineSet
EndChar

StartChar: quotesingle
Encoding: 7 39 7
Width: 12
VWidth: 36
GlyphClass: 2
Flags: MW
LayerCount: 2
Fore
SplineSet
5 14 m 1,0,-1
 7 14 l 1,1,-1
 7 10 l 1,2,-1
 5 10 l 1,3,-1
 5 14 l 1,0,-1
EndSplineSet
EndChar

StartChar: parenleft
Encoding: 8 40 8
Width: 12
VWidth: 36
GlyphClass: 2
Flags: MW
LayerCount: 2
Fore
SplineSet
9 16 m 1,0,-1
 9 14 l 1,1,-1
 7 14 l 1,2,-1
 7 12 l 1,3,-1
 5 12 l 1,4,-1
 5 2 l 1,5,-1
 7 2 l 1,6,-1
 7 0 l 1,7,-1
 9 0 l 1,8,-1
 9 -2 l 1,9,-1
 7 -2 l 1,10,-1
 7 0 l 1,11,-1
 5 0 l 1,12,-1
 5 2 l 1,13,-1
 3 2 l 1,14,-1
 3 12 l 1,15,-1
 5 12 l 1,16,-1
 5 14 l 1,17,-1
 7 14 l 1,18,-1
 7 16 l 1,19,-1
 9 16 l 1,0,-1
EndSplineSet
EndChar

StartChar: asterisk
Encoding: 10 42 10
Width: 12
VWidth: 36
GlyphClass: 2
Flags: MW
LayerCount: 2
Fore
SplineSet
7 14 m 1,0,-1
 9 14 l 1,1,-1
 9 12 l 1,2,-1
 7 12 l 1,3,-1
 7 14 l 1,0,-1
3 14 m 1,4,-1
 5 14 l 1,5,-1
 5 12 l 1,6,-1
 7 12 l 1,7,-1
 7 10 l 1,8,-1
 9 10 l 1,9,-1
 9 8 l 1,10,-1
 7 8 l 1,11,-1
 7 10 l 1,12,-1
 5 10 l 1,13,-1
 5 8 l 1,14,-1
 3 8 l 1,15,-1
 3 10 l 1,16,-1
 5 10 l 1,17,-1
 5 12 l 1,18,-1
 3 12 l 1,19,-1
 3 14 l 1,4,-1
EndSplineSet
Substitution2: "cpunct-subtable" asterisk.cpunct
EndChar

StartChar: plus
Encoding: 11 43 11
Width: 12
VWidth: 36
GlyphClass: 2
Flags: MW
LayerCount: 2
Fore
SplineSet
5 6 m 1,0,-1
 1 6 l 1,1,-1
 1 8 l 1,2,-1
 5 8 l 1,3,-1
 5 12 l 1,4,-1
 7 12 l 1,5,-1
 7 8 l 1,6,-1
 11 8 l 1,7,-1
 11 6 l 1,8,-1
 7 6 l 1,9,-1
 7 2 l 1,10,-1
 5 2 l 1,11,-1
 5 6 l 1,0,-1
EndSplineSet
Substitution2: "cpunct-subtable" plus.cpunct
EndChar

StartChar: comma
Encoding: 12 44 12
Width: 12
VWidth: 36
GlyphClass: 2
Flags: MW
LayerCount: 2
Fore
SplineSet
1 -2 m 5,0,-1
 1 0 l 4,1,2
 1 0 1 0 3 0 c 4,3,4
 3 0 3 0 3 2 c 5,5,-1
 5 2 l 5,6,-1
 5 0 l 4,7,8
 5 0 5 0 3 0 c 4,9,10
 3 0 3 0 3 -2 c 5,11,-1
 1 -2 l 5,0,-1
EndSplineSet
Substitution2: "ss01-1" comma.straight
EndChar

StartChar: hyphen
Encoding: 13 45 13
Width: 12
VWidth: 36
GlyphClass: 2
Flags: MW
LayerCount: 2
Fore
SplineSet
1 8 m 1,0,-1
 11 8 l 1,1,-1
 11 6 l 1,2,-1
 1 6 l 1,3,-1
 1 8 l 1,0,-1
EndSplineSet
Substitution2: "cpunct-subtable" hyphen.cpunct
EndChar

StartChar: period
Encoding: 14 46 14
Width: 12
VWidth: 36
GlyphClass: 2
Flags: MW
LayerCount: 2
Fore
SplineSet
5 0 m 1,0,-1
 5 2 l 1,1,-1
 7 2 l 1,2,-1
 7 0 l 1,3,-1
 5 0 l 1,0,-1
EndSplineSet
EndChar

StartChar: slash
Encoding: 15 47 15
Width: 12
VWidth: 36
GlyphClass: 2
Flags: MW
LayerCount: 2
Fore
SplineSet
1 0 m 1,0,-1
 1 2 l 1,1,-1
 3 2 l 1,2,-1
 3 6 l 1,3,-1
 5 6 l 1,4,-1
 5 8 l 1,5,-1
 7 8 l 1,6,-1
 7 12 l 1,7,-1
 9 12 l 1,8,-1
 9 14 l 1,9,-1
 11 14 l 1,10,-1
 11 12 l 1,11,-1
 9 12 l 1,12,-1
 9 8 l 1,13,-1
 7 8 l 1,14,-1
 7 6 l 1,15,-1
 5 6 l 1,16,-1
 5 2 l 1,17,-1
 3 2 l 1,18,-1
 3 0 l 1,19,-1
 1 0 l 1,0,-1
EndSplineSet
EndChar

StartChar: zero
Encoding: 16 48 16
Width: 12
VWidth: 36
GlyphClass: 2
Flags: MW
LayerCount: 2
Fore
SplineSet
9 0 m 1,0,-1
 3 0 l 1,1,-1
 3 2 l 1,2,-1
 1 2 l 1,3,-1
 1 12 l 1,4,-1
 3 12 l 1,5,-1
 3 6 l 1,6,-1
 5 6 l 1,7,-1
 5 4 l 1,8,-1
 3 4 l 1,9,-1
 3 2 l 1,10,-1
 9 2 l 1,11,-1
 9 0 l 1,0,-1
3 14 m 1,12,-1
 9 14 l 1,13,-1
 9 12 l 1,14,-1
 11 12 l 1,15,-1
 11 2 l 1,16,-1
 9 2 l 1,17,-1
 9 8 l 1,18,-1
 7 8 l 1,19,-1
 7 10 l 1,20,-1
 9 10 l 1,21,-1
 9 12 l 1,22,-1
 3 12 l 1,23,-1
 3 14 l 1,12,-1
5 6 m 1,24,-1
 5 8 l 1,25,-1
 7 8 l 1,26,-1
 7 6 l 1,27,-1
 5 6 l 1,24,-1
EndSplineSet
Substitution2: "onum-subtable" zero.onum
EndChar

StartChar: one
Encoding: 17 49 17
Width: 12
VWidth: 36
GlyphClass: 2
Flags: MW
LayerCount: 2
Fore
SplineSet
5 14 m 1,0,-1
 7 14 l 1,1,-1
 7 2 l 1,2,-1
 11 2 l 1,3,-1
 11 0 l 1,4,-1
 1 0 l 1,5,-1
 1 2 l 1,6,-1
 5 2 l 1,7,-1
 5 10 l 1,8,-1
 3 10 l 1,9,-1
 3 8 l 1,10,-1
 1 8 l 1,11,-1
 1 10 l 1,12,-1
 3 10 l 1,13,-1
 3 12 l 1,14,-1
 5 12 l 1,15,-1
 5 14 l 1,0,-1
EndSplineSet
Substitution2: "onum-subtable" one.onum
EndChar

StartChar: two
Encoding: 18 50 18
Width: 12
VWidth: 36
GlyphClass: 2
Flags: MW
LayerCount: 2
Fore
SplineSet
11 0 m 1,0,-1
 1 0 l 1,1,-1
 1 2 l 1,2,-1
 3 2 l 1,3,-1
 3 4 l 1,4,-1
 5 4 l 1,5,-1
 5 6 l 1,6,-1
 7 6 l 1,7,-1
 7 8 l 1,8,-1
 9 8 l 1,9,-1
 9 12 l 1,10,-1
 3 12 l 1,11,-1
 3 10 l 1,12,-1
 1 10 l 1,13,-1
 1 12 l 1,14,-1
 3 12 l 1,15,-1
 3 14 l 1,16,-1
 9 14 l 1,17,-1
 9 12 l 1,18,-1
 11 12 l 1,19,-1
 11 8 l 1,20,-1
 9 8 l 1,21,-1
 9 6 l 1,22,-1
 7 6 l 1,23,-1
 7 4 l 1,24,-1
 5 4 l 1,25,-1
 5 2 l 1,26,-1
 11 2 l 1,27,-1
 11 0 l 1,0,-1
EndSplineSet
Substitution2: "onum-subtable" two.onum
EndChar

StartChar: three
Encoding: 19 51 19
Width: 12
VWidth: 36
GlyphClass: 2
Flags: MW
LayerCount: 2
Fore
SplineSet
3 14 m 1,0,-1
 9 14 l 1,1,-1
 9 12 l 1,2,-1
 3 12 l 1,3,-1
 3 10 l 1,4,-1
 1 10 l 1,5,-1
 1 12 l 1,6,-1
 3 12 l 1,7,-1
 3 14 l 1,0,-1
9 0 m 1,8,-1
 3 0 l 1,9,-1
 3 2 l 1,10,-1
 9 2 l 1,11,-1
 9 6 l 1,12,-1
 5 6 l 1,13,-1
 5 8 l 1,14,-1
 9 8 l 1,15,-1
 9 12 l 1,16,-1
 11 12 l 1,17,-1
 11 8 l 1,18,-1
 9 8 l 1,19,-1
 9 6 l 1,20,-1
 11 6 l 1,21,-1
 11 2 l 1,22,-1
 9 2 l 1,23,-1
 9 0 l 1,8,-1
1 4 m 1,24,-1
 3 4 l 1,25,-1
 3 2 l 1,26,-1
 1 2 l 1,27,-1
 1 4 l 1,24,-1
EndSplineSet
Substitution2: "onum-subtable" three.onum
EndChar

StartChar: four
Encoding: 20 52 20
Width: 12
VWidth: 36
GlyphClass: 2
Flags: MW
LayerCount: 2
Fore
SplineSet
9 6 m 1,0,-1
 9 0 l 1,1,-1
 7 0 l 1,2,-1
 7 6 l 1,3,-1
 1 6 l 1,4,-1
 1 8 l 1,5,-1
 1 10 l 1,6,-1
 3 10 l 1,7,-1
 3 12 l 1,8,-1
 5 12 l 1,9,-1
 5 14 l 1,10,-1
 7 14 l 1,11,-1
 9 14 l 1,12,-1
 9 8 l 1,13,-1
 11 8 l 1,14,-1
 11 6 l 1,15,-1
 9 6 l 1,0,-1
5 12 m 1,16,-1
 5 10 l 1,17,-1
 3 10 l 1,18,-1
 3 8 l 1,19,-1
 7 8 l 1,20,-1
 7 12 l 1,21,-1
 5 12 l 1,16,-1
EndSplineSet
Substitution2: "onum-subtable" four.onum
EndChar

StartChar: five
Encoding: 21 53 21
Width: 12
VWidth: 36
GlyphClass: 2
Flags: MW
LayerCount: 2
Fore
SplineSet
9 0 m 1,0,-1
 3 0 l 1,1,-1
 3 2 l 1,2,-1
 1 2 l 1,3,-1
 1 4 l 1,4,-1
 3 4 l 1,5,-1
 3 2 l 1,6,-1
 9 2 l 1,7,-1
 9 0 l 1,0,-1
11 14 m 1,8,-1
 11 12 l 1,9,-1
 3 12 l 1,10,-1
 3 10 l 1,11,-1
 9 10 l 1,12,-1
 9 8 l 1,13,-1
 11 8 l 1,14,-1
 11 2 l 1,15,-1
 9 2 l 1,16,-1
 9 8 l 1,17,-1
 3 8 l 1,18,-1
 1 8 l 1,19,-1
 1 12 l 1,20,-1
 1 14 l 1,21,-1
 11 14 l 1,8,-1
EndSplineSet
Substitution2: "onum-subtable" five.onum
EndChar

StartChar: six
Encoding: 22 54 22
Width: 12
VWidth: 36
GlyphClass: 2
Flags: MW
LayerCount: 2
Fore
SplineSet
9 14 m 1,0,-1
 9 12 l 1,1,-1
 5 12 l 1,2,-1
 5 10 l 1,3,-1
 3 10 l 1,4,-1
 3 8 l 1,5,-1
 9 8 l 1,6,-1
 9 6 l 1,7,-1
 3 6 l 1,8,-1
 3 2 l 1,9,-1
 9 2 l 1,10,-1
 9 6 l 1,11,-1
 11 6 l 1,12,-1
 11 2 l 1,13,-1
 9 2 l 1,14,-1
 9 0 l 1,15,-1
 3 0 l 1,16,-1
 3 2 l 1,17,-1
 1 2 l 1,18,-1
 1 10 l 1,19,-1
 3 10 l 1,20,-1
 3 12 l 1,21,-1
 5 12 l 1,22,-1
 5 14 l 1,23,-1
 9 14 l 1,0,-1
EndSplineSet
Substitution2: "onum-subtable" six.onum
EndChar

StartChar: seven
Encoding: 23 55 23
Width: 12
VWidth: 36
GlyphClass: 2
Flags: MW
LayerCount: 2
Fore
SplineSet
1 10 m 1,0,-1
 1 14 l 1,1,-1
 3 14 l 1,2,-1
 11 14 l 1,3,-1
 11 12 l 1,4,-1
 11 8 l 1,5,-1
 9 8 l 1,6,-1
 9 4 l 1,7,-1
 7 4 l 1,8,-1
 7 0 l 1,9,-1
 5 0 l 1,10,-1
 5 4 l 1,11,-1
 7 4 l 1,12,-1
 7 8 l 1,13,-1
 9 8 l 1,14,-1
 9 12 l 1,15,-1
 3 12 l 1,16,-1
 3 10 l 1,17,-1
 1 10 l 1,0,-1
EndSplineSet
Substitution2: "onum-subtable" seven.onum
EndChar

StartChar: eight
Encoding: 24 56 24
Width: 12
VWidth: 36
GlyphClass: 2
Flags: MW
LayerCount: 2
Fore
SplineSet
3 14 m 1,0,-1
 9 14 l 1,1,-1
 9 12 l 1,2,-1
 11 12 l 1,3,-1
 11 8 l 1,4,-1
 9 8 l 1,5,-1
 9 6 l 1,6,-1
 11 6 l 1,7,-1
 11 2 l 1,8,-1
 9 2 l 1,9,-1
 9 6 l 1,10,-1
 3 6 l 1,11,-1
 3 2 l 1,12,-1
 9 2 l 1,13,-1
 9 0 l 1,14,-1
 3 0 l 1,15,-1
 3 2 l 1,16,-1
 1 2 l 1,17,-1
 1 6 l 1,18,-1
 3 6 l 1,19,-1
 3 8 l 1,20,-1
 1 8 l 1,21,-1
 1 12 l 1,22,-1
 3 12 l 1,23,-1
 3 8 l 1,24,-1
 9 8 l 1,25,-1
 9 12 l 1,26,-1
 3 12 l 1,27,-1
 3 14 l 1,0,-1
EndSplineSet
Substitution2: "onum-subtable" eight.onum
EndChar

StartChar: nine
Encoding: 25 57 25
Width: 12
VWidth: 36
GlyphClass: 2
Flags: MW
LayerCount: 2
Fore
SplineSet
3 0 m 1,0,-1
 3 2 l 1,1,-1
 7 2 l 1,2,-1
 7 4 l 1,3,-1
 9 4 l 1,4,-1
 9 6 l 1,5,-1
 3 6 l 1,6,-1
 3 8 l 1,7,-1
 9 8 l 1,8,-1
 9 12 l 1,9,-1
 3 12 l 1,10,-1
 3 8 l 1,11,-1
 1 8 l 1,12,-1
 1 12 l 1,13,-1
 3 12 l 1,14,-1
 3 14 l 1,15,-1
 9 14 l 1,16,-1
 9 12 l 1,17,-1
 11 12 l 1,18,-1
 11 4 l 1,19,-1
 9 4 l 1,20,-1
 9 2 l 1,21,-1
 7 2 l 1,22,-1
 7 0 l 1,23,-1
 3 0 l 1,0,-1
EndSplineSet
Substitution2: "onum-subtable" nine.onum
EndChar

StartChar: colon
Encoding: 26 58 26
Width: 12
VWidth: 36
GlyphClass: 2
Flags: MW
LayerCount: 2
Fore
SplineSet
5 0 m 1,0,-1
 5 2 l 1,1,-1
 7 2 l 1,2,-1
 7 0 l 1,3,-1
 5 0 l 1,0,-1
5 10 m 1,4,-1
 7 10 l 1,5,-1
 7 8 l 1,6,-1
 5 8 l 1,7,-1
 5 10 l 1,4,-1
EndSplineSet
Substitution2: "cpunct-subtable" colon.cpunct
EndChar

StartChar: semicolon
Encoding: 27 59 27
Width: 12
VWidth: 36
GlyphClass: 2
Flags: MW
LayerCount: 2
Fore
SplineSet
3 -2 m 1,0,-1
 3 0 l 0,1,2
 3 0 3 0 5 0 c 0,3,4
 5 0 5 0 5 2 c 1,5,-1
 7 2 l 1,6,-1
 7 0 l 0,7,8
 7 0 7 0 5 0 c 0,9,10
 5 0 5 0 5 -2 c 1,11,-1
 3 -2 l 1,0,-1
5 10 m 1,12,-1
 7 10 l 1,13,-1
 7 8 l 1,14,-1
 5 8 l 1,15,-1
 5 10 l 1,12,-1
EndSplineSet
Substitution2: "ss01-1" semicolon.straight
EndChar

StartChar: less
Encoding: 28 60 28
Width: 12
VWidth: 36
GlyphClass: 2
Flags: MW
LayerCount: 2
Fore
SplineSet
11 14 m 1,0,-1
 11 12 l 1,1,-1
 9 12 l 1,2,-1
 9 10 l 1,3,-1
 7 10 l 1,4,-1
 7 8 l 1,5,-1
 5 8 l 1,6,-1
 5 6 l 1,7,-1
 7 6 l 1,8,-1
 7 4 l 1,9,-1
 9 4 l 1,10,-1
 9 2 l 1,11,-1
 11 2 l 1,12,-1
 11 0 l 1,13,-1
 9 0 l 1,14,-1
 9 2 l 1,15,-1
 7 2 l 1,16,-1
 7 4 l 1,17,-1
 5 4 l 1,18,-1
 5 6 l 1,19,-1
 3 6 l 1,20,-1
 3 8 l 1,21,-1
 5 8 l 1,22,-1
 5 10 l 1,23,-1
 7 10 l 1,24,-1
 7 12 l 1,25,-1
 9 12 l 1,26,-1
 9 14 l 1,27,-1
 11 14 l 1,0,-1
EndSplineSet
EndChar

StartChar: equal
Encoding: 29 61 29
Width: 12
VWidth: 36
GlyphClass: 2
Flags: MW
LayerCount: 2
Fore
SplineSet
1 6 m 1,0,-1
 11 6 l 1,1,-1
 11 4 l 1,2,-1
 1 4 l 1,3,-1
 1 6 l 1,0,-1
1 10 m 1,4,-1
 11 10 l 1,5,-1
 11 8 l 1,6,-1
 1 8 l 1,7,-1
 1 10 l 1,4,-1
EndSplineSet
EndChar

StartChar: question
Encoding: 31 63 31
Width: 12
VWidth: 36
GlyphClass: 2
Flags: MW
LayerCount: 2
Fore
SplineSet
5 2 m 1,0,-1
 7 2 l 1,1,-1
 7 0 l 1,2,-1
 5 0 l 1,3,-1
 5 2 l 1,0,-1
3 14 m 1,4,-1
 9 14 l 1,5,-1
 9 12 l 1,6,-1
 11 12 l 1,7,-1
 11 8 l 1,8,-1
 9 8 l 1,9,-1
 9 6 l 1,10,-1
 7 6 l 1,11,-1
 7 4 l 1,12,-1
 5 4 l 1,13,-1
 5 6 l 1,14,-1
 7 6 l 1,15,-1
 7 8 l 1,16,-1
 9 8 l 1,17,-1
 9 12 l 1,18,-1
 3 12 l 1,19,-1
 3 14 l 1,4,-1
3 12 m 1,20,-1
 3 10 l 1,21,-1
 1 10 l 1,22,-1
 1 12 l 1,23,-1
 3 12 l 1,20,-1
EndSplineSet
EndChar

StartChar: at
Encoding: 32 64 32
Width: 12
VWidth: 36
GlyphClass: 2
Flags: MW
LayerCount: 2
Fore
SplineSet
5 10 m 1,0,-1
 7 10 l 1,1,-1
 7 6 l 1,2,-1
 9 6 l 1,3,-1
 9 12 l 1,4,-1
 3 12 l 1,5,-1
 3 2 l 1,6,-1
 11 2 l 1,7,-1
 11 0 l 1,8,-1
 3 0 l 1,9,-1
 3 2 l 1,10,-1
 1 2 l 1,11,-1
 1 12 l 1,12,-1
 3 12 l 1,13,-1
 3 14 l 1,14,-1
 9 14 l 1,15,-1
 9 12 l 1,16,-1
 11 12 l 1,17,-1
 11 4 l 1,18,-1
 9 4 l 1,19,-1
 5 4 l 1,20,-1
 5 6 l 1,21,-1
 5 10 l 1,0,-1
EndSplineSet
EndChar

StartChar: A
Encoding: 33 65 33
Width: 12
VWidth: 36
GlyphClass: 2
Flags: MW
LayerCount: 2
Fore
SplineSet
3 14 m 1,0,-1
 9 14 l 1,1,-1
 9 12 l 1,2,-1
 11 12 l 1,3,-1
 11 0 l 1,4,-1
 9 0 l 1,5,-1
 9 8 l 1,6,-1
 3 8 l 1,7,-1
 3 0 l 1,8,-1
 1 0 l 1,9,-1
 1 12 l 1,10,-1
 3 12 l 1,11,-1
 3 10 l 1,12,-1
 9 10 l 1,13,-1
 9 12 l 1,14,-1
 3 12 l 1,15,-1
 3 14 l 1,0,-1
EndSplineSet
EndChar

StartChar: B
Encoding: 34 66 34
Width: 12
VWidth: 36
GlyphClass: 2
Flags: MW
LayerCount: 2
Fore
SplineSet
3 14 m 1,0,-1
 9 14 l 1,1,-1
 9 12 l 1,2,-1
 11 12 l 1,3,-1
 11 10 l 1,4,-1
 9 10 l 1,5,-1
 9 8 l 1,6,-1
 11 8 l 1,7,-1
 11 2 l 1,8,-1
 9 2 l 1,9,-1
 9 0 l 1,10,-1
 3 0 l 1,11,-1
 1 0 l 1,12,-1
 1 14 l 1,13,-1
 3 14 l 1,0,-1
3 12 m 1,14,-1
 3 10 l 1,15,-1
 9 10 l 1,16,-1
 9 12 l 1,17,-1
 3 12 l 1,14,-1
9 2 m 1,18,-1
 9 8 l 1,19,-1
 3 8 l 1,20,-1
 3 2 l 1,21,-1
 9 2 l 1,18,-1
EndSplineSet
EndChar

StartChar: C
Encoding: 35 67 35
Width: 12
VWidth: 36
GlyphClass: 2
Flags: MW
LayerCount: 2
Fore
SplineSet
9 4 m 1,0,-1
 11 4 l 1,1,-1
 11 2 l 1,2,-1
 9 2 l 1,3,-1
 9 4 l 1,0,-1
9 12 m 1,4,-1
 3 12 l 1,5,-1
 3 2 l 1,6,-1
 9 2 l 1,7,-1
 9 0 l 1,8,-1
 3 0 l 1,9,-1
 3 2 l 1,10,-1
 1 2 l 1,11,-1
 1 12 l 1,12,-1
 3 12 l 1,13,-1
 3 14 l 1,14,-1
 9 14 l 1,15,-1
 9 12 l 1,4,-1
9 12 m 1,16,-1
 11 12 l 1,17,-1
 11 10 l 1,18,-1
 9 10 l 1,19,-1
 9 12 l 1,16,-1
EndSplineSet
EndChar

StartChar: D
Encoding: 36 68 36
Width: 12
VWidth: 36
GlyphClass: 2
Flags: MW
LayerCount: 2
Fore
SplineSet
9 12 m 1,0,-1
 3 12 l 1,1,-1
 3 2 l 1,2,-1
 9 2 l 1,3,-1
 9 12 l 1,0,-1
9 12 m 1,4,-1
 11 12 l 1,5,-1
 11 2 l 1,6,-1
 9 2 l 1,7,-1
 9 0 l 1,8,-1
 3 0 l 1,9,-1
 1 0 l 1,10,-1
 1 14 l 1,11,-1
 3 14 l 1,12,-1
 9 14 l 1,13,-1
 9 12 l 1,4,-1
EndSplineSet
EndChar

StartChar: E
Encoding: 37 69 37
Width: 12
VWidth: 36
GlyphClass: 2
Flags: MW
LayerCount: 2
Fore
SplineSet
3 12 m 1,0,-1
 3 8 l 1,1,-1
 9 8 l 1,2,-1
 9 6 l 1,3,-1
 3 6 l 1,4,-1
 3 2 l 1,5,-1
 11 2 l 1,6,-1
 11 0 l 1,7,-1
 3 0 l 1,8,-1
 1 0 l 1,9,-1
 1 14 l 1,10,-1
 3 14 l 1,11,-1
 11 14 l 1,12,-1
 11 12 l 1,13,-1
 3 12 l 1,0,-1
EndSplineSet
EndChar

StartChar: F
Encoding: 38 70 38
Width: 12
VWidth: 36
GlyphClass: 2
Flags: MW
LayerCount: 2
Fore
SplineSet
1 0 m 1,0,-1
 1 14 l 1,1,-1
 3 14 l 1,2,-1
 11 14 l 1,3,-1
 11 12 l 1,4,-1
 3 12 l 1,5,-1
 3 8 l 1,6,-1
 9 8 l 1,7,-1
 9 6 l 1,8,-1
 3 6 l 1,9,-1
 3 0 l 1,10,-1
 1 0 l 1,0,-1
EndSplineSet
EndChar

StartChar: G
Encoding: 39 71 39
Width: 12
VWidth: 36
GlyphClass: 2
Flags: MW
LayerCount: 2
Fore
SplineSet
7 8 m 1,0,-1
 11 8 l 1,1,-1
 11 6 l 1,2,-1
 11 2 l 1,3,-1
 9 2 l 1,4,-1
 9 6 l 1,5,-1
 7 6 l 1,6,-1
 7 8 l 1,0,-1
11 12 m 1,7,-1
 11 10 l 1,8,-1
 9 10 l 1,9,-1
 9 12 l 1,10,-1
 3 12 l 1,11,-1
 3 2 l 1,12,-1
 9 2 l 1,13,-1
 9 0 l 1,14,-1
 3 0 l 1,15,-1
 3 2 l 1,16,-1
 1 2 l 1,17,-1
 1 12 l 1,18,-1
 3 12 l 1,19,-1
 3 14 l 1,20,-1
 9 14 l 1,21,-1
 9 12 l 1,22,-1
 11 12 l 1,7,-1
EndSplineSet
EndChar

StartChar: H
Encoding: 40 72 40
Width: 12
VWidth: 36
GlyphClass: 2
Flags: MW
LayerCount: 2
Fore
SplineSet
1 14 m 1,0,-1
 3 14 l 1,1,-1
 3 10 l 1,2,-1
 9 10 l 1,3,-1
 9 14 l 1,4,-1
 11 14 l 1,5,-1
 11 0 l 1,6,-1
 9 0 l 1,7,-1
 9 8 l 1,8,-1
 3 8 l 1,9,-1
 3 0 l 1,10,-1
 1 0 l 1,11,-1
 1 14 l 1,0,-1
EndSplineSet
EndChar

StartChar: I
Encoding: 41 73 41
Width: 12
VWidth: 36
GlyphClass: 2
Flags: MW
LayerCount: 2
Fore
SplineSet
3 14 m 1,0,-1
 9 14 l 1,1,-1
 9 12 l 1,2,-1
 7 12 l 1,3,-1
 7 2 l 1,4,-1
 9 2 l 1,5,-1
 9 0 l 1,6,-1
 3 0 l 1,7,-1
 3 2 l 1,8,-1
 5 2 l 1,9,-1
 5 12 l 1,10,-1
 3 12 l 1,11,-1
 3 14 l 1,0,-1
EndSplineSet
EndChar

StartChar: J
Encoding: 42 74 42
Width: 12
VWidth: 36
GlyphClass: 2
Flags: MW
LayerCount: 2
Fore
SplineSet
5 14 m 1,0,-1
 11 14 l 1,1,-1
 11 12 l 1,2,-1
 9 12 l 1,3,-1
 9 2 l 1,4,-1
 7 2 l 1,5,-1
 7 12 l 1,6,-1
 5 12 l 1,7,-1
 5 14 l 1,0,-1
1 4 m 1,8,-1
 3 4 l 1,9,-1
 3 2 l 1,10,-1
 7 2 l 1,11,-1
 7 0 l 1,12,-1
 3 0 l 1,13,-1
 3 2 l 1,14,-1
 1 2 l 1,15,-1
 1 4 l 1,8,-1
EndSplineSet
EndChar

StartChar: K
Encoding: 43 75 43
Width: 12
VWidth: 36
GlyphClass: 2
Flags: MW
LayerCount: 2
Fore
SplineSet
9 14 m 1,0,-1
 11 14 l 1,1,-1
 11 12 l 1,2,-1
 9 12 l 1,3,-1
 9 14 l 1,0,-1
1 14 m 1,4,-1
 3 14 l 1,5,-1
 3 10 l 1,6,-1
 7 10 l 1,7,-1
 7 12 l 1,8,-1
 9 12 l 1,9,-1
 9 10 l 1,10,-1
 7 10 l 1,11,-1
 7 8 l 1,12,-1
 3 8 l 1,13,-1
 3 0 l 1,14,-1
 1 0 l 1,15,-1
 1 14 l 1,4,-1
9 6 m 1,16,-1
 7 6 l 1,17,-1
 7 8 l 1,18,-1
 9 8 l 1,19,-1
 9 6 l 1,16,-1
9 6 m 1,20,-1
 11 6 l 1,21,-1
 11 0 l 1,22,-1
 9 0 l 1,23,-1
 9 6 l 1,20,-1
EndSplineSet
EndChar

StartChar: L
Encoding: 44 76 44
Width: 12
VWidth: 36
GlyphClass: 2
Flags: MW
LayerCount: 2
Fore
SplineSet
1 14 m 1,0,-1
 3 14 l 1,1,-1
 3 2 l 1,2,-1
 11 2 l 1,3,-1
 11 0 l 1,4,-1
 1 0 l 1,5,-1
 1 2 l 1,6,-1
 1 14 l 1,0,-1
EndSplineSet
EndChar

StartChar: M
Encoding: 45 77 45
Width: 12
VWidth: 36
GlyphClass: 2
Flags: MW
LayerCount: 2
Fore
SplineSet
9 14 m 1,0,-1
 11 14 l 1,1,-1
 11 0 l 1,2,-1
 9 0 l 1,3,-1
 9 10 l 1,4,-1
 7 10 l 1,5,-1
 7 12 l 1,6,-1
 9 12 l 1,7,-1
 9 14 l 1,0,-1
1 0 m 1,8,-1
 1 14 l 1,9,-1
 3 14 l 1,10,-1
 3 12 l 1,11,-1
 5 12 l 1,12,-1
 5 10 l 1,13,-1
 7 10 l 1,14,-1
 7 8 l 1,15,-1
 5 8 l 1,16,-1
 5 10 l 1,17,-1
 3 10 l 1,18,-1
 3 0 l 1,19,-1
 1 0 l 1,8,-1
EndSplineSet
EndChar

StartChar: N
Encoding: 46 78 46
Width: 12
VWidth: 36
GlyphClass: 2
Flags: MW
LayerCount: 2
Fore
SplineSet
9 14 m 1,0,-1
 11 14 l 1,1,-1
 11 0 l 1,2,-1
 9 0 l 1,3,-1
 9 6 l 1,4,-1
 7 6 l 1,5,-1
 7 8 l 1,6,-1
 9 8 l 1,7,-1
 9 14 l 1,0,-1
1 0 m 1,8,-1
 1 14 l 1,9,-1
 3 14 l 1,10,-1
 3 12 l 1,11,-1
 5 12 l 1,12,-1
 5 10 l 1,13,-1
 7 10 l 1,14,-1
 7 8 l 1,15,-1
 5 8 l 1,16,-1
 5 10 l 1,17,-1
 3 10 l 1,18,-1
 3 0 l 1,19,-1
 1 0 l 1,8,-1
EndSplineSet
EndChar

StartChar: O
Encoding: 47 79 47
Width: 12
VWidth: 36
GlyphClass: 2
Flags: MW
LayerCount: 2
Fore
SplineSet
3 14 m 1,0,-1
 9 14 l 1,1,-1
 9 12 l 1,2,-1
 11 12 l 1,3,-1
 11 2 l 1,4,-1
 9 2 l 1,5,-1
 9 0 l 1,6,-1
 3 0 l 1,7,-1
 3 2 l 1,8,-1
 1 2 l 1,9,-1
 1 12 l 1,10,-1
 3 12 l 1,11,-1
 3 2 l 1,12,-1
 9 2 l 1,13,-1
 9 12 l 1,14,-1
 3 12 l 1,15,-1
 3 14 l 1,0,-1
EndSplineSet
EndChar

StartChar: P
Encoding: 48 80 48
Width: 12
VWidth: 36
GlyphClass: 2
Flags: MW
LayerCount: 2
Fore
SplineSet
1 0 m 1,0,-1
 1 14 l 1,1,-1
 3 14 l 1,2,-1
 9 14 l 1,3,-1
 9 12 l 1,4,-1
 11 12 l 1,5,-1
 11 8 l 1,6,-1
 9 8 l 1,7,-1
 9 6 l 1,8,-1
 3 6 l 1,9,-1
 3 0 l 1,10,-1
 1 0 l 1,0,-1
9 8 m 1,11,-1
 9 12 l 1,12,-1
 3 12 l 1,13,-1
 3 8 l 1,14,-1
 9 8 l 1,11,-1
EndSplineSet
EndChar

StartChar: Q
Encoding: 49 81 49
Width: 12
VWidth: 36
GlyphClass: 2
Flags: MW
LayerCount: 2
Fore
SplineSet
3 14 m 1,0,-1
 9 14 l 1,1,-1
 9 12 l 1,2,-1
 11 12 l 1,3,-1
 11 4 l 1,4,-1
 9 4 l 1,5,-1
 9 2 l 1,6,-1
 11 2 l 1,7,-1
 11 0 l 1,8,-1
 9 0 l 1,9,-1
 9 2 l 1,10,-1
 7 2 l 1,11,-1
 7 0 l 1,12,-1
 3 0 l 1,13,-1
 3 2 l 1,14,-1
 1 2 l 1,15,-1
 1 12 l 1,16,-1
 3 12 l 1,17,-1
 3 2 l 1,18,-1
 7 2 l 1,19,-1
 7 4 l 1,20,-1
 9 4 l 1,21,-1
 9 12 l 1,22,-1
 3 12 l 1,23,-1
 3 14 l 1,0,-1
EndSplineSet
EndChar

StartChar: R
Encoding: 50 82 50
Width: 12
VWidth: 36
GlyphClass: 2
Flags: MW
LayerCount: 2
Fore
SplineSet
1 0 m 1,0,-1
 1 14 l 1,1,-1
 3 14 l 1,2,-1
 9 14 l 1,3,-1
 9 12 l 1,4,-1
 11 12 l 1,5,-1
 11 8 l 1,6,-1
 9 8 l 1,7,-1
 9 6 l 1,8,-1
 11 6 l 1,9,-1
 11 0 l 1,10,-1
 9 0 l 1,11,-1
 9 6 l 1,12,-1
 3 6 l 1,13,-1
 3 0 l 1,14,-1
 1 0 l 1,0,-1
9 8 m 1,15,-1
 9 12 l 1,16,-1
 3 12 l 1,17,-1
 3 8 l 1,18,-1
 9 8 l 1,15,-1
EndSplineSet
EndChar

StartChar: S
Encoding: 51 83 51
Width: 12
VWidth: 36
GlyphClass: 2
Flags: MW
LayerCount: 2
Fore
SplineSet
1 4 m 1,0,-1
 3 4 l 1,1,-1
 3 2 l 1,2,-1
 1 2 l 1,3,-1
 1 4 l 1,0,-1
11 12 m 1,4,-1
 11 10 l 1,5,-1
 9 10 l 1,6,-1
 9 12 l 1,7,-1
 3 12 l 1,8,-1
 3 8 l 1,9,-1
 9 8 l 1,10,-1
 9 6 l 1,11,-1
 11 6 l 1,12,-1
 11 2 l 1,13,-1
 9 2 l 1,14,-1
 9 0 l 1,15,-1
 3 0 l 1,16,-1
 3 2 l 1,17,-1
 9 2 l 1,18,-1
 9 6 l 1,19,-1
 3 6 l 1,20,-1
 3 8 l 1,21,-1
 1 8 l 1,22,-1
 1 12 l 1,23,-1
 3 12 l 1,24,-1
 3 14 l 1,25,-1
 9 14 l 1,26,-1
 9 12 l 1,27,-1
 11 12 l 1,4,-1
EndSplineSet
EndChar

StartChar: T
Encoding: 52 84 52
Width: 12
VWidth: 36
GlyphClass: 2
Flags: MW
LayerCount: 2
Fore
SplineSet
1 14 m 1,0,-1
 11 14 l 1,1,-1
 11 12 l 1,2,-1
 7 12 l 1,3,-1
 7 0 l 1,4,-1
 5 0 l 1,5,-1
 5 12 l 1,6,-1
 1 12 l 1,7,-1
 1 14 l 1,0,-1
EndSplineSet
EndChar

StartChar: U
Encoding: 53 85 53
Width: 12
VWidth: 36
GlyphClass: 2
Flags: MW
LayerCount: 2
Fore
SplineSet
1 14 m 1,0,-1
 3 14 l 1,1,-1
 3 2 l 1,2,-1
 9 2 l 1,3,-1
 9 14 l 1,4,-1
 11 14 l 1,5,-1
 11 2 l 1,6,-1
 9 2 l 1,7,-1
 9 0 l 1,8,-1
 3 0 l 1,9,-1
 3 2 l 1,10,-1
 1 2 l 1,11,-1
 1 14 l 1,0,-1
EndSplineSet
EndChar

StartChar: V
Encoding: 54 86 54
Width: 12
VWidth: 36
GlyphClass: 2
Flags: MW
LayerCount: 2
Fore
SplineSet
1 14 m 1,0,-1
 3 14 l 1,1,-1
 3 6 l 1,2,-1
 5 6 l 1,3,-1
 5 2 l 1,4,-1
 7 2 l 1,5,-1
 7 6 l 1,6,-1
 9 6 l 1,7,-1
 9 14 l 1,8,-1
 11 14 l 1,9,-1
 11 6 l 1,10,-1
 9 6 l 1,11,-1
 9 2 l 1,12,-1
 7 2 l 1,13,-1
 7 0 l 1,14,-1
 5 0 l 1,15,-1
 5 2 l 1,16,-1
 3 2 l 1,17,-1
 3 6 l 1,18,-1
 1 6 l 1,19,-1
 1 14 l 1,0,-1
EndSplineSet
EndChar

StartChar: W
Encoding: 55 87 55
Width: 12
VWidth: 36
GlyphClass: 2
Flags: MW
LayerCount: 2
Fore
SplineSet
9 14 m 1,0,-1
 11 14 l 1,1,-1
 11 4 l 1,2,-1
 9 4 l 1,3,-1
 9 14 l 1,0,-1
5 8 m 1,4,-1
 7 8 l 1,5,-1
 7 4 l 1,6,-1
 9 4 l 1,7,-1
 9 0 l 1,8,-1
 7 0 l 1,9,-1
 7 4 l 1,10,-1
 5 4 l 1,11,-1
 5 8 l 1,4,-1
1 14 m 1,12,-1
 3 14 l 1,13,-1
 3 4 l 1,14,-1
 5 4 l 1,15,-1
 5 0 l 1,16,-1
 3 0 l 1,17,-1
 3 4 l 1,18,-1
 1 4 l 1,19,-1
 1 14 l 1,12,-1
EndSplineSet
EndChar

StartChar: X
Encoding: 56 88 56
Width: 12
VWidth: 36
GlyphClass: 2
Flags: MW
LayerCount: 2
Fore
SplineSet
9 14 m 1,0,-1
 11 14 l 1,1,-1
 11 10 l 1,2,-1
 9 10 l 1,3,-1
 9 14 l 1,0,-1
1 14 m 1,4,-1
 3 14 l 1,5,-1
 3 10 l 1,6,-1
 5 10 l 1,7,-1
 5 8 l 1,8,-1
 7 8 l 1,9,-1
 7 10 l 1,10,-1
 9 10 l 1,11,-1
 9 8 l 1,12,-1
 7 8 l 1,13,-1
 7 6 l 1,14,-1
 9 6 l 1,15,-1
 9 4 l 1,16,-1
 11 4 l 1,17,-1
 11 0 l 1,18,-1
 9 0 l 1,19,-1
 9 4 l 1,20,-1
 7 4 l 1,21,-1
 7 6 l 1,22,-1
 5 6 l 1,23,-1
 5 4 l 1,24,-1
 3 4 l 1,25,-1
 3 6 l 1,26,-1
 5 6 l 1,27,-1
 5 8 l 1,28,-1
 3 8 l 1,29,-1
 3 10 l 1,30,-1
 1 10 l 1,31,-1
 1 14 l 1,4,-1
3 4 m 1,32,-1
 3 0 l 1,33,-1
 1 0 l 1,34,-1
 1 4 l 1,35,-1
 3 4 l 1,32,-1
EndSplineSet
EndChar

StartChar: Y
Encoding: 57 89 57
Width: 12
VWidth: 36
GlyphClass: 2
Flags: MW
LayerCount: 2
Fore
SplineSet
9 14 m 1,0,-1
 11 14 l 1,1,-1
 11 10 l 1,2,-1
 9 10 l 1,3,-1
 9 14 l 1,0,-1
1 14 m 1,4,-1
 3 14 l 1,5,-1
 3 10 l 1,6,-1
 5 10 l 1,7,-1
 5 8 l 1,8,-1
 7 8 l 1,9,-1
 7 10 l 1,10,-1
 9 10 l 1,11,-1
 9 8 l 1,12,-1
 7 8 l 1,13,-1
 7 0 l 1,14,-1
 5 0 l 1,15,-1
 5 8 l 1,16,-1
 3 8 l 1,17,-1
 3 10 l 1,18,-1
 1 10 l 1,19,-1
 1 14 l 1,4,-1
EndSplineSet
EndChar

StartChar: Z
Encoding: 58 90 58
Width: 12
VWidth: 36
GlyphClass: 2
Flags: MW
LayerCount: 2
Fore
SplineSet
1 14 m 1,0,-1
 11 14 l 1,1,-1
 11 12 l 1,2,-1
 11 10 l 1,3,-1
 9 10 l 1,4,-1
 9 8 l 1,5,-1
 7 8 l 1,6,-1
 7 6 l 1,7,-1
 5 6 l 1,8,-1
 5 4 l 1,9,-1
 3 4 l 1,10,-1
 3 2 l 1,11,-1
 11 2 l 1,12,-1
 11 0 l 1,13,-1
 1 0 l 1,14,-1
 1 2 l 1,15,-1
 1 4 l 1,16,-1
 3 4 l 1,17,-1
 3 6 l 1,18,-1
 5 6 l 1,19,-1
 5 8 l 1,20,-1
 7 8 l 1,21,-1
 7 10 l 1,22,-1
 9 10 l 1,23,-1
 9 12 l 1,24,-1
 1 12 l 1,25,-1
 1 14 l 1,0,-1
EndSplineSet
EndChar

StartChar: bracketleft
Encoding: 59 91 59
Width: 12
VWidth: 36
GlyphClass: 2
Flags: MW
LayerCount: 2
Fore
SplineSet
9 16 m 1,0,-1
 9 14 l 1,1,-1
 7 14 l 1,2,-1
 7 0 l 1,3,-1
 9 0 l 1,4,-1
 9 -2 l 1,5,-1
 7 -2 l 1,6,-1
 5 -2 l 1,7,-1
 5 16 l 1,8,-1
 7 16 l 1,9,-1
 9 16 l 1,0,-1
EndSplineSet
EndChar

StartChar: backslash
Encoding: 60 92 60
Width: 12
VWidth: 36
GlyphClass: 2
Flags: MW
LayerCount: 2
Fore
SplineSet
1 14 m 1,0,-1
 3 14 l 1,1,-1
 3 12 l 1,2,-1
 5 12 l 1,3,-1
 5 8 l 1,4,-1
 7 8 l 1,5,-1
 7 6 l 1,6,-1
 9 6 l 1,7,-1
 9 2 l 1,8,-1
 11 2 l 1,9,-1
 11 0 l 1,10,-1
 9 0 l 1,11,-1
 9 2 l 1,12,-1
 7 2 l 1,13,-1
 7 6 l 1,14,-1
 5 6 l 1,15,-1
 5 8 l 1,16,-1
 3 8 l 1,17,-1
 3 12 l 1,18,-1
 1 12 l 1,19,-1
 1 14 l 1,0,-1
EndSplineSet
EndChar

StartChar: asciicircum
Encoding: 62 94 62
Width: 12
VWidth: 36
GlyphClass: 2
Flags: MW
LayerCount: 2
Fore
SplineSet
9 10 m 5,0,-1
 11 10 l 1,1,-1
 11 8 l 1,2,-1
 9 8 l 1,3,-1
 9 10 l 5,0,-1
1 10 m 1,4,-1
 3 10 l 1,5,-1
 3 8 l 1,6,-1
 1 8 l 1,7,-1
 1 10 l 1,4,-1
5 14 m 1,8,-1
 7 14 l 1,9,-1
 7 12 l 1,10,-1
 9 12 l 1,11,-1
 9 10 l 1,12,-1
 7 10 l 1,13,-1
 7 12 l 1,14,-1
 5 12 l 1,15,-1
 5 14 l 1,8,-1
5 12 m 1,16,-1
 5 10 l 1,17,-1
 3 10 l 1,18,-1
 3 12 l 1,19,-1
 5 12 l 1,16,-1
EndSplineSet
EndChar

StartChar: underscore
Encoding: 63 95 63
Width: 12
VWidth: 36
GlyphClass: 2
Flags: MW
LayerCount: 2
Fore
SplineSet
1 0 m 1,0,-1
 11 0 l 1,1,-1
 11 -2 l 1,2,-1
 1 -2 l 1,3,-1
 1 0 l 1,0,-1
EndSplineSet
EndChar

StartChar: grave
Encoding: 64 96 64
Width: 12
VWidth: 36
GlyphClass: 2
Flags: MW
LayerCount: 2
Fore
SplineSet
3 14 m 1,0,-1
 5 14 l 1,1,-1
 5 12 l 1,2,-1
 7 12 l 1,3,-1
 7 10 l 1,4,-1
 5 10 l 1,5,-1
 5 12 l 1,6,-1
 3 12 l 1,7,-1
 3 14 l 1,0,-1
EndSplineSet
EndChar

StartChar: a
Encoding: 65 97 65
Width: 12
VWidth: 36
GlyphClass: 2
Flags: MW
LayerCount: 2
Fore
SplineSet
9 8 m 1,0,-1
 3 8 l 1,1,-1
 3 10 l 1,2,-1
 9 10 l 1,3,-1
 9 8 l 1,0,-1
9 8 m 1,4,-1
 11 8 l 1,5,-1
 11 2 l 1,6,-1
 11 0 l 1,7,-1
 3 0 l 1,8,-1
 3 2 l 1,9,-1
 1 2 l 1,10,-1
 1 4 l 1,11,-1
 3 4 l 1,12,-1
 3 6 l 1,13,-1
 9 6 l 1,14,-1
 9 8 l 1,4,-1
9 4 m 1,15,-1
 3 4 l 1,16,-1
 3 2 l 1,17,-1
 9 2 l 1,18,-1
 9 4 l 1,15,-1
EndSplineSet
EndChar

StartChar: b
Encoding: 66 98 66
Width: 12
VWidth: 36
GlyphClass: 2
Flags: MW
LayerCount: 2
Fore
SplineSet
1 0 m 1,0,-1
 1 14 l 1,1,-1
 3 14 l 1,2,-1
 3 8 l 1,3,-1
 5 8 l 1,4,-1
 5 6 l 1,5,-1
 3 6 l 1,6,-1
 3 2 l 1,7,-1
 9 2 l 1,8,-1
 9 8 l 1,9,-1
 5 8 l 1,10,-1
 5 10 l 1,11,-1
 9 10 l 1,12,-1
 9 8 l 1,13,-1
 11 8 l 1,14,-1
 11 2 l 1,15,-1
 9 2 l 1,16,-1
 9 0 l 1,17,-1
 3 0 l 1,18,-1
 1 0 l 1,0,-1
EndSplineSet
EndChar

StartChar: c
Encoding: 67 99 67
Width: 12
VWidth: 36
GlyphClass: 2
Flags: MW
LayerCount: 2
Fore
SplineSet
9 0 m 1,0,-1
 3 0 l 1,1,-1
 3 2 l 1,2,-1
 1 2 l 1,3,-1
 1 8 l 1,4,-1
 3 8 l 1,5,-1
 3 10 l 1,6,-1
 9 10 l 1,7,-1
 9 8 l 1,8,-1
 3 8 l 1,9,-1
 3 2 l 1,10,-1
 9 2 l 1,11,-1
 9 0 l 1,0,-1
9 4 m 1,12,-1
 11 4 l 1,13,-1
 11 2 l 1,14,-1
 9 2 l 1,15,-1
 9 4 l 1,12,-1
9 8 m 1,16,-1
 11 8 l 1,17,-1
 11 6 l 1,18,-1
 9 6 l 1,19,-1
 9 8 l 1,16,-1
EndSplineSet
EndChar

StartChar: d
Encoding: 68 100 68
Width: 12
VWidth: 36
GlyphClass: 2
Flags: MW
LayerCount: 2
Fore
SplineSet
9 2 m 1,0,-1
 7 2 l 1,1,-1
 7 8 l 1,2,-1
 3 8 l 1,3,-1
 3 2 l 1,4,-1
 1 2 l 1,5,-1
 1 8 l 1,6,-1
 3 8 l 1,7,-1
 3 10 l 1,8,-1
 7 10 l 1,9,-1
 7 14 l 1,10,-1
 9 14 l 1,11,-1
 9 2 l 1,0,-1
9 2 m 1,12,-1
 11 2 l 1,13,-1
 11 0 l 1,14,-1
 9 0 l 1,15,-1
 9 2 l 1,12,-1
7 2 m 1,16,-1
 7 0 l 1,17,-1
 3 0 l 1,18,-1
 3 2 l 1,19,-1
 7 2 l 1,16,-1
EndSplineSet
EndChar

StartChar: e
Encoding: 69 101 69
Width: 12
VWidth: 36
GlyphClass: 2
Flags: MW
LayerCount: 2
Fore
SplineSet
1 2 m 1,0,-1
 1 8 l 1,1,-1
 3 8 l 1,2,-1
 3 10 l 1,3,-1
 9 10 l 1,4,-1
 9 8 l 1,5,-1
 11 8 l 1,6,-1
 11 6 l 1,7,-1
 11 4 l 1,8,-1
 3 4 l 1,9,-1
 3 2 l 1,10,-1
 11 2 l 1,11,-1
 11 0 l 1,12,-1
 3 0 l 1,13,-1
 3 2 l 1,14,-1
 1 2 l 1,0,-1
9 8 m 1,15,-1
 3 8 l 1,16,-1
 3 6 l 1,17,-1
 9 6 l 1,18,-1
 9 8 l 1,15,-1
EndSplineSet
EndChar

StartChar: f
Encoding: 70 102 70
Width: 12
VWidth: 36
GlyphClass: 2
Flags: MW
LayerCount: 2
Fore
SplineSet
5 14 m 1,0,-1
 9 14 l 1,1,-1
 9 12 l 1,2,-1
 11 12 l 1,3,-1
 11 10 l 1,4,-1
 9 10 l 1,5,-1
 9 12 l 1,6,-1
 5 12 l 1,7,-1
 5 14 l 1,0,-1
5 12 m 1,8,-1
 5 8 l 1,9,-1
 9 8 l 1,10,-1
 9 6 l 1,11,-1
 5 6 l 1,12,-1
 5 0 l 1,13,-1
 3 0 l 1,14,-1
 3 6 l 1,15,-1
 1 6 l 1,16,-1
 1 8 l 1,17,-1
 3 8 l 1,18,-1
 3 12 l 1,19,-1
 5 12 l 1,8,-1
EndSplineSet
EndChar

StartChar: g
Encoding: 71 103 71
Width: 12
VWidth: 36
GlyphClass: 2
Flags: MW
LayerCount: 2
Fore
SplineSet
3 10 m 1,0,-1
 11 10 l 1,1,-1
 11 8 l 1,2,-1
 11 0 l 1,3,-1
 9 0 l 1,4,-1
 9 2 l 1,5,-1
 3 2 l 1,6,-1
 3 4 l 1,7,-1
 9 4 l 1,8,-1
 9 8 l 1,9,-1
 3 8 l 1,10,-1
 3 10 l 1,0,-1
3 8 m 1,11,-1
 3 4 l 1,12,-1
 1 4 l 1,13,-1
 1 8 l 1,14,-1
 3 8 l 1,11,-1
9 0 m 1,15,-1
 9 -2 l 1,16,-1
 1 -2 l 1,17,-1
 1 0 l 1,18,-1
 9 0 l 1,15,-1
EndSplineSet
EndChar

StartChar: h
Encoding: 72 104 72
Width: 12
VWidth: 36
GlyphClass: 2
Flags: MW
LayerCount: 2
Fore
SplineSet
5 10 m 1,0,-1
 9 10 l 1,1,-1
 9 8 l 1,2,-1
 11 8 l 1,3,-1
 11 0 l 1,4,-1
 9 0 l 1,5,-1
 9 8 l 1,6,-1
 5 8 l 1,7,-1
 5 10 l 1,0,-1
1 14 m 1,8,-1
 3 14 l 1,9,-1
 3 8 l 1,10,-1
 5 8 l 1,11,-1
 5 6 l 1,12,-1
 3 6 l 1,13,-1
 3 0 l 1,14,-1
 1 0 l 1,15,-1
 1 14 l 1,8,-1
EndSplineSet
EndChar

StartChar: i
Encoding: 73 105 73
Width: 12
VWidth: 36
GlyphClass: 2
Flags: MW
LayerCount: 2
Fore
SplineSet
5 8 m 1,0,-1
 3 8 l 1,1,-1
 3 10 l 1,2,-1
 5 10 l 1,3,-1
 7 10 l 1,4,-1
 7 2 l 1,5,-1
 9 2 l 1,6,-1
 9 0 l 1,7,-1
 3 0 l 1,8,-1
 3 2 l 1,9,-1
 5 2 l 1,10,-1
 5 8 l 1,0,-1
5 14 m 1,11,-1
 7 14 l 1,12,-1
 7 12 l 1,13,-1
 5 12 l 1,14,-1
 5 14 l 1,11,-1
EndSplineSet
EndChar

StartChar: j
Encoding: 74 106 74
Width: 12
VWidth: 36
GlyphClass: 2
Flags: MW
LayerCount: 2
Fore
SplineSet
7 14 m 1,0,-1
 9 14 l 1,1,-1
 9 12 l 1,2,-1
 7 12 l 1,3,-1
 7 14 l 1,0,-1
1 2 m 1,4,-1
 3 2 l 1,5,-1
 3 0 l 1,6,-1
 7 0 l 1,7,-1
 7 8 l 1,8,-1
 5 8 l 1,9,-1
 5 10 l 1,10,-1
 7 10 l 1,11,-1
 9 10 l 1,12,-1
 9 0 l 1,13,-1
 7 0 l 1,14,-1
 7 -2 l 1,15,-1
 3 -2 l 1,16,-1
 3 0 l 1,17,-1
 1 0 l 1,18,-1
 1 2 l 1,4,-1
EndSplineSet
EndChar

StartChar: k
Encoding: 75 107 75
Width: 12
VWidth: 36
GlyphClass: 2
Flags: MW
LayerCount: 2
Fore
SplineSet
1 0 m 1,0,-1
 1 14 l 1,1,-1
 3 14 l 1,2,-1
 3 6 l 1,3,-1
 5 6 l 1,4,-1
 5 4 l 1,5,-1
 7 4 l 1,6,-1
 7 2 l 1,7,-1
 11 2 l 1,8,-1
 11 0 l 1,9,-1
 7 0 l 1,10,-1
 7 2 l 1,11,-1
 5 2 l 1,12,-1
 5 4 l 1,13,-1
 3 4 l 1,14,-1
 3 0 l 1,15,-1
 1 0 l 1,0,-1
5 6 m 1,16,-1
 5 8 l 1,17,-1
 7 8 l 1,18,-1
 7 6 l 1,19,-1
 5 6 l 1,16,-1
7 8 m 1,20,-1
 7 10 l 1,21,-1
 9 10 l 1,22,-1
 9 8 l 1,23,-1
 7 8 l 1,20,-1
EndSplineSet
EndChar

StartChar: l
Encoding: 76 108 76
Width: 12
VWidth: 36
GlyphClass: 2
Flags: MW
LayerCount: 2
Fore
SplineSet
7 2 m 5,0,-1
 11 2 l 1,1,-1
 11 0 l 1,2,-1
 7 0 l 1,3,-1
 7 2 l 5,0,-1
7 2 m 5,4,-1
 5 2 l 1,5,-1
 5 12 l 1,6,-1
 3 12 l 1,7,-1
 3 14 l 1,8,-1
 5 14 l 1,9,-1
 7 14 l 1,10,-1
 7 2 l 5,4,-1
EndSplineSet
Substitution2: "shifted-1" l.shifted
EndChar

StartChar: m
Encoding: 77 109 77
Width: 12
VWidth: 36
GlyphClass: 2
Flags: MW
LayerCount: 2
Fore
SplineSet
7 10 m 1,0,-1
 9 10 l 1,1,-1
 9 8 l 1,2,-1
 11 8 l 1,3,-1
 11 0 l 1,4,-1
 9 0 l 1,5,-1
 9 8 l 1,6,-1
 7 8 l 1,7,-1
 7 10 l 1,0,-1
1 0 m 1,8,-1
 1 10 l 1,9,-1
 3 10 l 1,10,-1
 5 10 l 1,11,-1
 5 8 l 1,12,-1
 7 8 l 1,13,-1
 7 0 l 1,14,-1
 5 0 l 1,15,-1
 5 8 l 1,16,-1
 3 8 l 1,17,-1
 3 0 l 1,18,-1
 1 0 l 1,8,-1
EndSplineSet
EndChar

StartChar: n
Encoding: 78 110 78
Width: 12
VWidth: 36
GlyphClass: 2
Flags: MW
LayerCount: 2
Fore
SplineSet
5 10 m 1,0,-1
 9 10 l 1,1,-1
 9 8 l 1,2,-1
 11 8 l 1,3,-1
 11 0 l 1,4,-1
 9 0 l 1,5,-1
 9 8 l 1,6,-1
 5 8 l 1,7,-1
 5 10 l 1,0,-1
1 0 m 1,8,-1
 1 10 l 1,9,-1
 3 10 l 1,10,-1
 3 8 l 1,11,-1
 5 8 l 1,12,-1
 5 6 l 1,13,-1
 3 6 l 1,14,-1
 3 0 l 1,15,-1
 1 0 l 1,8,-1
EndSplineSet
EndChar

StartChar: o
Encoding: 79 111 79
Width: 12
VWidth: 36
GlyphClass: 2
Flags: MW
LayerCount: 2
Fore
SplineSet
3 8 m 1,0,-1
 3 2 l 1,1,-1
 1 2 l 1,2,-1
 1 8 l 1,3,-1
 3 8 l 1,0,-1
3 8 m 1,4,-1
 3 10 l 1,5,-1
 9 10 l 1,6,-1
 9 8 l 1,7,-1
 3 8 l 1,4,-1
9 8 m 1,8,-1
 11 8 l 1,9,-1
 11 2 l 1,10,-1
 9 2 l 1,11,-1
 9 8 l 1,8,-1
3 2 m 1,12,-1
 9 2 l 1,13,-1
 9 0 l 1,14,-1
 3 0 l 1,15,-1
 3 2 l 1,12,-1
EndSplineSet
EndChar

StartChar: p
Encoding: 80 112 80
Width: 12
VWidth: 36
GlyphClass: 2
Flags: MW
LayerCount: 2
Fore
SplineSet
1 -2 m 1,0,-1
 1 10 l 1,1,-1
 3 10 l 1,2,-1
 3 8 l 1,3,-1
 5 8 l 1,4,-1
 5 6 l 1,5,-1
 3 6 l 1,6,-1
 3 4 l 1,7,-1
 9 4 l 1,8,-1
 9 2 l 1,9,-1
 3 2 l 1,10,-1
 3 -2 l 1,11,-1
 1 -2 l 1,0,-1
9 4 m 1,12,-1
 9 8 l 1,13,-1
 11 8 l 1,14,-1
 11 4 l 1,15,-1
 9 4 l 1,12,-1
9 8 m 1,16,-1
 5 8 l 1,17,-1
 5 10 l 1,18,-1
 9 10 l 1,19,-1
 9 8 l 1,16,-1
EndSplineSet
EndChar

StartChar: q
Encoding: 81 113 81
Width: 12
VWidth: 36
GlyphClass: 2
Flags: MW
LayerCount: 2
Fore
SplineSet
9 -2 m 1,0,-1
 7 -2 l 1,1,-1
 7 2 l 1,2,-1
 3 2 l 1,3,-1
 3 4 l 1,4,-1
 7 4 l 1,5,-1
 7 8 l 1,6,-1
 3 8 l 1,7,-1
 3 4 l 1,8,-1
 1 4 l 1,9,-1
 1 8 l 1,10,-1
 3 8 l 1,11,-1
 3 10 l 1,12,-1
 7 10 l 1,13,-1
 9 10 l 1,14,-1
 9 0 l 1,15,-1
 11 0 l 1,16,-1
 11 -2 l 1,17,-1
 9 -2 l 1,0,-1
EndSplineSet
EndChar

StartChar: r
Encoding: 82 114 82
Width: 12
VWidth: 36
GlyphClass: 2
Flags: MW
LayerCount: 2
Fore
SplineSet
5 10 m 1,0,-1
 9 10 l 1,1,-1
 9 8 l 1,2,-1
 11 8 l 1,3,-1
 11 6 l 1,4,-1
 9 6 l 1,5,-1
 9 8 l 1,6,-1
 5 8 l 1,7,-1
 5 10 l 1,0,-1
1 0 m 1,8,-1
 1 10 l 1,9,-1
 3 10 l 1,10,-1
 3 8 l 1,11,-1
 5 8 l 1,12,-1
 5 6 l 1,13,-1
 3 6 l 1,14,-1
 3 0 l 1,15,-1
 1 0 l 1,8,-1
EndSplineSet
EndChar

StartChar: s
Encoding: 83 115 83
Width: 12
VWidth: 36
GlyphClass: 2
Flags: MW
LayerCount: 2
Fore
SplineSet
3 10 m 1,0,-1
 11 10 l 1,1,-1
 11 8 l 1,2,-1
 3 8 l 1,3,-1
 3 10 l 1,0,-1
9 2 m 1,4,-1
 9 4 l 1,5,-1
 3 4 l 1,6,-1
 3 6 l 1,7,-1
 1 6 l 1,8,-1
 1 8 l 1,9,-1
 3 8 l 1,10,-1
 3 6 l 1,11,-1
 9 6 l 1,12,-1
 9 4 l 1,13,-1
 11 4 l 1,14,-1
 11 2 l 1,15,-1
 9 2 l 1,4,-1
9 2 m 1,16,-1
 9 0 l 1,17,-1
 1 0 l 1,18,-1
 1 2 l 1,19,-1
 9 2 l 1,16,-1
EndSplineSet
EndChar

StartChar: t
Encoding: 84 116 84
Width: 12
VWidth: 36
GlyphClass: 2
Flags: MW
LayerCount: 2
Fore
SplineSet
11 2 m 1,0,-1
 11 0 l 1,1,-1
 5 0 l 1,2,-1
 5 2 l 1,3,-1
 3 2 l 1,4,-1
 3 8 l 1,5,-1
 1 8 l 1,6,-1
 1 10 l 1,7,-1
 3 10 l 1,8,-1
 3 14 l 1,9,-1
 5 14 l 1,10,-1
 5 10 l 1,11,-1
 9 10 l 1,12,-1
 9 8 l 1,13,-1
 5 8 l 1,14,-1
 5 2 l 1,15,-1
 11 2 l 1,0,-1
EndSplineSet
EndChar

StartChar: u
Encoding: 85 117 85
Width: 12
VWidth: 36
GlyphClass: 2
Flags: MW
LayerCount: 2
Fore
SplineSet
1 10 m 1,0,-1
 3 10 l 1,1,-1
 3 2 l 1,2,-1
 7 2 l 1,3,-1
 7 10 l 1,4,-1
 9 10 l 1,5,-1
 9 2 l 1,6,-1
 11 2 l 1,7,-1
 11 0 l 1,8,-1
 9 0 l 1,9,-1
 9 2 l 1,10,-1
 7 2 l 1,11,-1
 7 0 l 1,12,-1
 3 0 l 1,13,-1
 3 2 l 1,14,-1
 1 2 l 1,15,-1
 1 10 l 1,0,-1
EndSplineSet
EndChar

StartChar: v
Encoding: 86 118 86
Width: 12
VWidth: 36
GlyphClass: 2
Flags: MW
LayerCount: 2
Fore
SplineSet
9 10 m 1,0,-1
 11 10 l 1,1,-1
 11 4 l 1,2,-1
 9 4 l 1,3,-1
 9 10 l 1,0,-1
1 10 m 1,4,-1
 3 10 l 1,5,-1
 3 4 l 1,6,-1
 5 4 l 1,7,-1
 5 2 l 1,8,-1
 7 2 l 1,9,-1
 7 4 l 1,10,-1
 9 4 l 1,11,-1
 9 2 l 1,12,-1
 7 2 l 1,13,-1
 7 0 l 1,14,-1
 5 0 l 1,15,-1
 5 2 l 1,16,-1
 3 2 l 1,17,-1
 3 4 l 1,18,-1
 1 4 l 1,19,-1
 1 10 l 1,4,-1
EndSplineSet
EndChar

StartChar: w
Encoding: 87 119 87
Width: 12
VWidth: 36
GlyphClass: 2
Flags: MW
LayerCount: 2
Fore
SplineSet
9 10 m 1,0,-1
 11 10 l 1,1,-1
 11 4 l 1,2,-1
 9 4 l 1,3,-1
 9 10 l 1,0,-1
5 8 m 5,4,-1
 7 8 l 5,5,-1
 7 4 l 1,6,-1
 9 4 l 1,7,-1
 9 0 l 1,8,-1
 7 0 l 1,9,-1
 7 4 l 1,10,-1
 5 4 l 1,11,-1
 5 8 l 5,4,-1
1 10 m 1,12,-1
 3 10 l 1,13,-1
 3 4 l 1,14,-1
 5 4 l 1,15,-1
 5 0 l 1,16,-1
 3 0 l 1,17,-1
 3 4 l 1,18,-1
 1 4 l 1,19,-1
 1 10 l 1,12,-1
EndSplineSet
EndChar

StartChar: x
Encoding: 88 120 88
Width: 12
VWidth: 36
GlyphClass: 2
Flags: MW
LayerCount: 2
Fore
SplineSet
7 6 m 1,0,-1
 7 4 l 1,1,-1
 9 4 l 1,2,-1
 9 2 l 1,3,-1
 11 2 l 1,4,-1
 11 0 l 1,5,-1
 9 0 l 1,6,-1
 7 0 l 1,7,-1
 7 2 l 1,8,-1
 7 4 l 1,9,-1
 5 4 l 1,10,-1
 5 6 l 1,11,-1
 7 6 l 1,0,-1
7 6 m 1,12,-1
 7 8 l 1,13,-1
 7 10 l 1,14,-1
 9 10 l 1,15,-1
 11 10 l 1,16,-1
 11 8 l 1,17,-1
 9 8 l 1,18,-1
 9 6 l 1,19,-1
 7 6 l 1,12,-1
5 6 m 1,20,-1
 3 6 l 1,21,-1
 3 8 l 1,22,-1
 1 8 l 1,23,-1
 1 10 l 1,24,-1
 3 10 l 1,25,-1
 5 10 l 1,26,-1
 5 8 l 1,27,-1
 5 6 l 1,20,-1
5 4 m 1,28,-1
 5 2 l 1,29,-1
 5 0 l 1,30,-1
 3 0 l 1,31,-1
 1 0 l 1,32,-1
 1 2 l 1,33,-1
 3 2 l 1,34,-1
 3 4 l 1,35,-1
 5 4 l 1,28,-1
EndSplineSet
Substitution2: "cpunct-subtable" x.cpunct
EndChar

StartChar: y
Encoding: 89 121 89
Width: 12
VWidth: 36
GlyphClass: 2
Flags: MW
LayerCount: 2
Fore
SplineSet
9 10 m 1,0,-1
 11 10 l 1,1,-1
 11 2 l 1,2,-1
 11 0 l 1,3,-1
 9 0 l 1,4,-1
 9 2 l 1,5,-1
 3 2 l 1,6,-1
 3 4 l 1,7,-1
 1 4 l 1,8,-1
 1 10 l 1,9,-1
 3 10 l 1,10,-1
 3 4 l 1,11,-1
 9 4 l 1,12,-1
 9 10 l 1,0,-1
9 0 m 1,13,-1
 9 -2 l 1,14,-1
 1 -2 l 1,15,-1
 1 0 l 1,16,-1
 9 0 l 1,13,-1
EndSplineSet
EndChar

StartChar: z
Encoding: 90 122 90
Width: 12
VWidth: 36
GlyphClass: 2
Flags: MW
LayerCount: 2
Fore
SplineSet
3 2 m 1,0,-1
 3 4 l 1,1,-1
 5 4 l 1,2,-1
 5 6 l 1,3,-1
 7 6 l 1,4,-1
 7 8 l 1,5,-1
 1 8 l 1,6,-1
 1 10 l 1,7,-1
 11 10 l 1,8,-1
 11 8 l 1,9,-1
 9 8 l 1,10,-1
 9 6 l 1,11,-1
 7 6 l 1,12,-1
 7 4 l 1,13,-1
 5 4 l 1,14,-1
 5 2 l 1,15,-1
 11 2 l 1,16,-1
 11 0 l 1,17,-1
 1 0 l 1,18,-1
 1 2 l 1,19,-1
 3 2 l 1,0,-1
EndSplineSet
EndChar

StartChar: braceleft
Encoding: 91 123 91
Width: 12
VWidth: 36
GlyphClass: 2
Flags: MW
LayerCount: 2
Fore
SplineSet
5 10 m 1,0,-1
 5 14 l 1,1,-1
 7 14 l 1,2,-1
 7 10 l 1,3,-1
 9 10 l 1,4,-1
 9 8 l 1,5,-1
 7 8 l 1,6,-1
 7 6 l 1,7,-1
 3 6 l 1,8,-1
 3 8 l 1,9,-1
 7 8 l 1,10,-1
 7 10 l 1,11,-1
 5 10 l 1,0,-1
7 6 m 1,12,-1
 9 6 l 1,13,-1
 9 4 l 1,14,-1
 7 4 l 1,15,-1
 7 6 l 1,12,-1
7 4 m 1,16,-1
 7 0 l 1,17,-1
 5 0 l 1,18,-1
 5 4 l 1,19,-1
 7 4 l 1,16,-1
7 0 m 1,20,-1
 11 0 l 1,21,-1
 11 -2 l 1,22,-1
 7 -2 l 1,23,-1
 7 0 l 1,20,-1
7 14 m 1,24,-1
 7 16 l 1,25,-1
 11 16 l 1,26,-1
 11 14 l 1,27,-1
 7 14 l 1,24,-1
EndSplineSet
EndChar

StartChar: bar
Encoding: 92 124 92
Width: 12
VWidth: 36
GlyphClass: 2
Flags: MW
LayerCount: 2
Fore
SplineSet
5 16 m 1,0,-1
 7 16 l 1,1,-1
 7 -2 l 1,2,-1
 5 -2 l 1,3,-1
 5 16 l 1,0,-1
EndSplineSet
EndChar

StartChar: asciitilde
Encoding: 94 126 94
Width: 12
VWidth: 36
GlyphClass: 2
Flags: MW
LayerCount: 2
Fore
SplineSet
1 4 m 1,0,-1
 1 8 l 1,1,-1
 3 8 l 1,2,-1
 3 4 l 1,3,-1
 1 4 l 1,0,-1
3 10 m 1,4,-1
 5 10 l 1,5,-1
 5 8 l 1,6,-1
 3 8 l 1,7,-1
 3 10 l 1,4,-1
9 10 m 1,8,-1
 11 10 l 1,9,-1
 11 6 l 1,10,-1
 9 6 l 1,11,-1
 9 4 l 1,12,-1
 7 4 l 1,13,-1
 7 6 l 1,14,-1
 5 6 l 1,15,-1
 5 8 l 1,16,-1
 7 8 l 1,17,-1
 7 6 l 1,18,-1
 9 6 l 1,19,-1
 9 10 l 1,8,-1
EndSplineSet
EndChar

StartChar: exclamdown
Encoding: 95 161 95
Width: 12
VWidth: 36
GlyphClass: 2
Flags: MW
LayerCount: 2
Fore
SplineSet
3 12 m 1,0,-1
 5 12 l 1,1,-1
 5 10 l 1,2,-1
 3 10 l 1,3,-1
 3 12 l 1,0,-1
3 -2 m 1,4,-1
 3 8 l 1,5,-1
 5 8 l 1,6,-1
 5 -2 l 1,7,-1
 3 -2 l 1,4,-1
EndSplineSet
EndChar

StartChar: cent
Encoding: 96 162 96
Width: 12
VWidth: 36
GlyphClass: 2
Flags: MW
LayerCount: 2
Fore
SplineSet
9 6 m 1,0,-1
 11 6 l 1,1,-1
 11 4 l 1,2,-1
 9 4 l 1,3,-1
 9 6 l 1,0,-1
5 14 m 1,4,-1
 7 14 l 1,5,-1
 7 12 l 1,6,-1
 9 12 l 1,7,-1
 9 10 l 1,8,-1
 11 10 l 1,9,-1
 11 8 l 1,10,-1
 9 8 l 1,11,-1
 9 10 l 1,12,-1
 7 10 l 1,13,-1
 7 4 l 1,14,-1
 9 4 l 1,15,-1
 9 2 l 1,16,-1
 7 2 l 1,17,-1
 7 0 l 1,18,-1
 5 0 l 1,19,-1
 5 2 l 1,20,-1
 3 2 l 1,21,-1
 3 4 l 1,22,-1
 5 4 l 1,23,-1
 5 10 l 1,24,-1
 3 10 l 1,25,-1
 3 4 l 1,26,-1
 1 4 l 1,27,-1
 1 10 l 1,28,-1
 3 10 l 1,29,-1
 3 12 l 1,30,-1
 5 12 l 1,31,-1
 5 14 l 1,4,-1
EndSplineSet
EndChar

StartChar: sterling
Encoding: 97 163 97
Width: 12
VWidth: 36
GlyphClass: 2
Flags: MW
LayerCount: 2
Fore
SplineSet
5 14 m 1,0,-1
 9 14 l 1,1,-1
 9 12 l 1,2,-1
 11 12 l 1,3,-1
 11 10 l 1,4,-1
 9 10 l 1,5,-1
 9 12 l 1,6,-1
 5 12 l 1,7,-1
 5 14 l 1,0,-1
11 0 m 1,8,-1
 1 0 l 1,9,-1
 1 2 l 1,10,-1
 1 4 l 1,11,-1
 3 4 l 1,12,-1
 3 6 l 1,13,-1
 1 6 l 1,14,-1
 1 8 l 1,15,-1
 3 8 l 1,16,-1
 3 12 l 1,17,-1
 5 12 l 1,18,-1
 5 8 l 1,19,-1
 7 8 l 1,20,-1
 7 6 l 1,21,-1
 5 6 l 1,22,-1
 5 4 l 1,23,-1
 3 4 l 1,24,-1
 3 2 l 1,25,-1
 11 2 l 1,26,-1
 11 0 l 1,8,-1
EndSplineSet
EndChar

StartChar: currency
Encoding: 98 164 98
Width: 12
VWidth: 36
GlyphClass: 2
Flags: MW
LayerCount: 2
Fore
SplineSet
1 14 m 1,0,-1
 3 14 l 1,1,-1
 3 12 l 1,2,-1
 1 12 l 1,3,-1
 1 14 l 1,0,-1
9 14 m 1,4,-1
 11 14 l 1,5,-1
 11 12 l 1,6,-1
 9 12 l 1,7,-1
 9 14 l 1,4,-1
1 4 m 1,8,-1
 1 10 l 1,9,-1
 3 10 l 1,10,-1
 3 12 l 1,11,-1
 9 12 l 1,12,-1
 9 10 l 1,13,-1
 11 10 l 1,14,-1
 11 4 l 1,15,-1
 9 4 l 1,16,-1
 9 10 l 1,17,-1
 3 10 l 1,18,-1
 3 4 l 1,19,-1
 1 4 l 1,8,-1
1 0 m 1,20,-1
 1 2 l 1,21,-1
 3 2 l 1,22,-1
 3 4 l 1,23,-1
 9 4 l 1,24,-1
 9 2 l 1,25,-1
 11 2 l 1,26,-1
 11 0 l 1,27,-1
 9 0 l 1,28,-1
 9 2 l 1,29,-1
 3 2 l 1,30,-1
 3 0 l 1,31,-1
 1 0 l 1,20,-1
EndSplineSet
EndChar

StartChar: yen
Encoding: 99 165 99
Width: 12
VWidth: 36
GlyphClass: 2
Flags: MW
LayerCount: 2
Fore
SplineSet
1 14 m 1,0,-1
 3 14 l 1,1,-1
 3 12 l 1,2,-1
 1 12 l 1,3,-1
 1 14 l 1,0,-1
9 14 m 1,4,-1
 11 14 l 1,5,-1
 11 12 l 1,6,-1
 9 12 l 1,7,-1
 9 14 l 1,4,-1
3 12 m 1,8,-1
 5 12 l 1,9,-1
 5 10 l 1,10,-1
 3 10 l 1,11,-1
 3 12 l 1,8,-1
5 10 m 1,12,-1
 7 10 l 1,13,-1
 7 12 l 1,14,-1
 9 12 l 1,15,-1
 9 10 l 1,16,-1
 7 10 l 1,17,-1
 7 8 l 1,18,-1
 11 8 l 1,19,-1
 11 6 l 1,20,-1
 7 6 l 1,21,-1
 7 4 l 1,22,-1
 11 4 l 1,23,-1
 11 2 l 1,24,-1
 7 2 l 1,25,-1
 7 0 l 1,26,-1
 5 0 l 1,27,-1
 5 2 l 1,28,-1
 1 2 l 1,29,-1
 1 4 l 1,30,-1
 5 4 l 1,31,-1
 5 6 l 1,32,-1
 1 6 l 1,33,-1
 1 8 l 1,34,-1
 5 8 l 1,35,-1
 5 10 l 1,12,-1
EndSplineSet
EndChar

StartChar: brokenbar
Encoding: 100 166 100
Width: 12
VWidth: 36
GlyphClass: 2
Flags: MW
LayerCount: 2
Fore
SplineSet
5 16 m 1,0,-1
 7 16 l 1,1,-1
 7 8 l 1,2,-1
 5 8 l 1,3,-1
 5 16 l 1,0,-1
5 6 m 1,4,-1
 7 6 l 1,5,-1
 7 -2 l 1,6,-1
 5 -2 l 1,7,-1
 5 6 l 1,4,-1
EndSplineSet
EndChar

StartChar: section
Encoding: 101 167 101
Width: 12
VWidth: 36
GlyphClass: 2
Flags: MW
LayerCount: 2
Fore
SplineSet
5 14 m 1,0,-1
 9 14 l 1,1,-1
 9 12 l 1,2,-1
 5 12 l 1,3,-1
 5 14 l 1,0,-1
9 4 m 1,4,-1
 9 2 l 1,5,-1
 7 2 l 1,6,-1
 7 0 l 1,7,-1
 3 0 l 1,8,-1
 3 2 l 1,9,-1
 7 2 l 1,10,-1
 7 4 l 1,11,-1
 9 4 l 1,4,-1
9 8 m 1,12,-1
 9 6 l 1,13,-1
 7 6 l 1,14,-1
 7 4 l 1,15,-1
 5 4 l 1,16,-1
 5 6 l 1,17,-1
 7 6 l 1,18,-1
 7 8 l 1,19,-1
 9 8 l 1,12,-1
5 12 m 1,20,-1
 5 10 l 1,21,-1
 3 10 l 1,22,-1
 3 12 l 1,23,-1
 5 12 l 1,20,-1
5 6 m 1,24,-1
 3 6 l 1,25,-1
 3 8 l 1,26,-1
 5 8 l 1,27,-1
 5 6 l 1,24,-1
5 10 m 1,28,-1
 7 10 l 1,29,-1
 7 8 l 1,30,-1
 5 8 l 1,31,-1
 5 10 l 1,28,-1
EndSplineSet
EndChar

StartChar: dieresis
Encoding: 102 168 102
Width: 12
VWidth: 36
GlyphClass: 2
Flags: MW
LayerCount: 2
Fore
SplineSet
7 14 m 1,0,-1
 9 14 l 1,1,-1
 9 12 l 1,2,-1
 7 12 l 1,3,-1
 7 14 l 1,0,-1
3 14 m 1,4,-1
 5 14 l 1,5,-1
 5 12 l 1,6,-1
 3 12 l 1,7,-1
 3 14 l 1,4,-1
EndSplineSet
EndChar

StartChar: ordfeminine
Encoding: 103 170 103
Width: 12
VWidth: 36
GlyphClass: 2
Flags: MW
LayerCount: 2
Fore
SplineSet
3 14 m 1,0,-1
 5 14 l 1,1,-1
 5 12 l 1,2,-1
 7 12 l 1,3,-1
 7 8 l 1,4,-1
 5 8 l 1,5,-1
 3 8 l 1,6,-1
 3 10 l 1,7,-1
 5 10 l 1,8,-1
 5 12 l 1,9,-1
 3 12 l 1,10,-1
 3 10 l 1,11,-1
 1 10 l 1,12,-1
 1 12 l 1,13,-1
 3 12 l 1,14,-1
 3 14 l 1,0,-1
EndSplineSet
EndChar

StartChar: guillemotleft
Encoding: 104 171 104
Width: 12
VWidth: 36
GlyphClass: 2
Flags: MW
LayerCount: 2
Fore
SplineSet
12 12 m 1,0,-1
 12 10 l 1,1,-1
 10 10 l 1,2,-1
 10 8 l 1,3,-1
 8 8 l 1,4,-1
 8 6 l 1,5,-1
 10 6 l 1,6,-1
 10 4 l 1,7,-1
 12 4 l 1,8,-1
 12 2 l 1,9,-1
 10 2 l 1,10,-1
 10 4 l 1,11,-1
 8 4 l 1,12,-1
 8 6 l 1,13,-1
 6 6 l 1,14,-1
 6 8 l 1,15,-1
 8 8 l 1,16,-1
 8 10 l 1,17,-1
 10 10 l 1,18,-1
 10 12 l 1,19,-1
 12 12 l 1,0,-1
4 12 m 1,20,-1
 6 12 l 1,21,-1
 6 10 l 1,22,-1
 4 10 l 1,23,-1
 4 8 l 1,24,-1
 2 8 l 1,25,-1
 2 6 l 1,26,-1
 4 6 l 1,27,-1
 4 4 l 1,28,-1
 6 4 l 1,29,-1
 6 2 l 1,30,-1
 4 2 l 1,31,-1
 4 4 l 1,32,-1
 2 4 l 1,33,-1
 2 6 l 1,34,-1
 0 6 l 1,35,-1
 0 8 l 1,36,-1
 2 8 l 1,37,-1
 2 10 l 1,38,-1
 4 10 l 1,39,-1
 4 12 l 1,20,-1
EndSplineSet
EndChar

StartChar: logicalnot
Encoding: 105 172 105
Width: 12
VWidth: 36
GlyphClass: 2
Flags: MW
LayerCount: 2
Fore
SplineSet
9 6 m 1,0,-1
 1 6 l 1,1,-1
 1 8 l 1,2,-1
 9 8 l 1,3,-1
 11 8 l 1,4,-1
 11 4 l 1,5,-1
 9 4 l 1,6,-1
 9 6 l 1,0,-1
EndSplineSet
EndChar

StartChar: uni00AD
Encoding: 106 173 106
Width: 12
VWidth: 36
GlyphClass: 2
Flags: MW
LayerCount: 2
Fore
SplineSet
3 8 m 1,0,-1
 9 8 l 1,1,-1
 9 6 l 1,2,-1
 3 6 l 1,3,-1
 3 8 l 1,0,-1
EndSplineSet
EndChar

StartChar: macron
Encoding: 107 175 107
Width: 12
VWidth: 36
GlyphClass: 2
Flags: MW
LayerCount: 2
Fore
SplineSet
1 14 m 1,0,-1
 11 14 l 1,1,-1
 11 12 l 1,2,-1
 1 12 l 1,3,-1
 1 14 l 1,0,-1
EndSplineSet
EndChar

StartChar: degree
Encoding: 108 176 108
Width: 12
VWidth: 36
GlyphClass: 2
Flags: MW
LayerCount: 2
Fore
SplineSet
3 14 m 1,0,-1
 5 14 l 1,1,-1
 5 12 l 1,2,-1
 7 12 l 1,3,-1
 7 10 l 1,4,-1
 5 10 l 1,5,-1
 5 8 l 1,6,-1
 3 8 l 1,7,-1
 3 10 l 1,8,-1
 1 10 l 1,9,-1
 1 12 l 1,10,-1
 3 12 l 1,11,-1
 3 10 l 1,12,-1
 5 10 l 1,13,-1
 5 12 l 1,14,-1
 3 12 l 1,15,-1
 3 14 l 1,0,-1
EndSplineSet
EndChar

StartChar: plusminus
Encoding: 109 177 109
Width: 12
VWidth: 36
GlyphClass: 2
Flags: MW
LayerCount: 2
Fore
SplineSet
3 4 m 1,0,-1
 9 4 l 1,1,-1
 9 2 l 1,2,-1
 3 2 l 1,3,-1
 3 4 l 1,0,-1
5 12 m 1,4,-1
 7 12 l 1,5,-1
 7 10 l 1,6,-1
 9 10 l 1,7,-1
 9 8 l 1,8,-1
 7 8 l 1,9,-1
 7 6 l 1,10,-1
 5 6 l 1,11,-1
 5 8 l 1,12,-1
 3 8 l 1,13,-1
 3 10 l 1,14,-1
 5 10 l 1,15,-1
 5 12 l 1,4,-1
EndSplineSet
EndChar

StartChar: acute
Encoding: 110 180 110
Width: 12
VWidth: 36
GlyphClass: 2
Flags: MW
LayerCount: 2
Fore
SplineSet
5 14 m 1,0,-1
 7 14 l 1,1,-1
 7 12 l 1,2,-1
 5 12 l 1,3,-1
 5 14 l 1,0,-1
5 12 m 1,4,-1
 5 10 l 1,5,-1
 3 10 l 1,6,-1
 3 12 l 1,7,-1
 5 12 l 1,4,-1
EndSplineSet
EndChar

StartChar: mu
Encoding: 111 181 111
Width: 12
VWidth: 36
GlyphClass: 2
Flags: MW
LayerCount: 2
Fore
SplineSet
3 -2 m 1,0,-1
 1 -2 l 1,1,-1
 1 10 l 1,2,-1
 3 10 l 1,3,-1
 3 2 l 1,4,-1
 7 2 l 1,5,-1
 7 0 l 1,6,-1
 3 0 l 1,7,-1
 3 -2 l 1,0,-1
7 10 m 1,8,-1
 9 10 l 1,9,-1
 9 2 l 1,10,-1
 7 2 l 1,11,-1
 7 10 l 1,8,-1
9 2 m 1,12,-1
 11 2 l 1,13,-1
 11 0 l 1,14,-1
 9 0 l 1,15,-1
 9 2 l 1,12,-1
EndSplineSet
EndChar

StartChar: paragraph
Encoding: 112 182 112
Width: 12
VWidth: 36
GlyphClass: 2
Flags: MW
LayerCount: 2
Fore
SplineSet
11 -2 m 1,0,-1
 9 -2 l 1,1,-1
 9 12 l 1,2,-1
 7 12 l 1,3,-1
 7 8 l 1,4,-1
 7 -2 l 1,5,-1
 5 -2 l 1,6,-1
 5 6 l 1,7,-1
 3 6 l 1,8,-1
 3 8 l 1,9,-1
 1 8 l 1,10,-1
 1 12 l 1,11,-1
 3 12 l 1,12,-1
 3 14 l 1,13,-1
 9 14 l 1,14,-1
 11 14 l 1,15,-1
 11 -2 l 1,0,-1
EndSplineSet
EndChar

StartChar: periodcentered
Encoding: 113 183 113
Width: 12
VWidth: 36
GlyphClass: 2
Flags: MW
LayerCount: 2
Fore
SplineSet
7 8 m 1,0,-1
 7 6 l 1,1,-1
 5 6 l 1,2,-1
 5 8 l 1,3,-1
 7 8 l 1,0,-1
EndSplineSet
EndChar

StartChar: cedilla
Encoding: 114 184 114
Width: 12
VWidth: 36
GlyphClass: 2
Flags: MW
LayerCount: 2
Fore
SplineSet
7 0 m 1,0,-1
 9 0 l 1,1,-1
 9 -2 l 1,2,-1
 7 -2 l 1,3,-1
 7 -4 l 1,4,-1
 5 -4 l 1,5,-1
 5 -2 l 1,6,-1
 7 -2 l 1,7,-1
 7 0 l 1,0,-1
EndSplineSet
EndChar

StartChar: uni00B9
Encoding: 115 185 115
Width: 12
VWidth: 36
GlyphClass: 2
Flags: MW
LayerCount: 2
Fore
SplineSet
3 14 m 1,0,-1
 5 14 l 1,1,-1
 5 6 l 1,2,-1
 3 6 l 1,3,-1
 3 10 l 1,4,-1
 1 10 l 1,5,-1
 1 12 l 1,6,-1
 3 12 l 1,7,-1
 3 14 l 1,0,-1
EndSplineSet
EndChar

StartChar: ordmasculine
Encoding: 116 186 116
Width: 12
VWidth: 36
GlyphClass: 2
Flags: MW
LayerCount: 2
Fore
SplineSet
3 14 m 1,0,-1
 5 14 l 1,1,-1
 5 12 l 1,2,-1
 7 12 l 1,3,-1
 7 10 l 1,4,-1
 5 10 l 1,5,-1
 5 8 l 1,6,-1
 3 8 l 1,7,-1
 3 10 l 1,8,-1
 1 10 l 1,9,-1
 1 12 l 1,10,-1
 3 12 l 1,11,-1
 3 10 l 1,12,-1
 5 10 l 1,13,-1
 5 12 l 1,14,-1
 3 12 l 1,15,-1
 3 14 l 1,0,-1
EndSplineSet
EndChar

StartChar: questiondown
Encoding: 118 191 118
Width: 12
VWidth: 36
GlyphClass: 2
Flags: MW
LayerCount: 2
Fore
SplineSet
5 12 m 1,0,-1
 7 12 l 1,1,-1
 7 10 l 1,2,-1
 5 10 l 1,3,-1
 5 12 l 1,0,-1
9 2 m 1,4,-1
 11 2 l 1,5,-1
 11 0 l 1,6,-1
 9 0 l 1,7,-1
 9 2 l 1,4,-1
5 6 m 1,8,-1
 5 8 l 1,9,-1
 7 8 l 1,10,-1
 7 6 l 1,11,-1
 5 6 l 1,8,-1
5 6 m 1,12,-1
 5 4 l 1,13,-1
 3 4 l 1,14,-1
 3 6 l 1,15,-1
 5 6 l 1,12,-1
3 4 m 1,16,-1
 3 0 l 1,17,-1
 1 0 l 1,18,-1
 1 4 l 1,19,-1
 3 4 l 1,16,-1
3 0 m 1,20,-1
 9 0 l 1,21,-1
 9 -2 l 1,22,-1
 3 -2 l 1,23,-1
 3 0 l 1,20,-1
EndSplineSet
EndChar

StartChar: Agrave
Encoding: 119 192 119
Width: 12
VWidth: 36
GlyphClass: 2
Flags: MW
LayerCount: 2
Fore
SplineSet
3 20 m 1,0,-1
 5 20 l 1,1,-1
 5 18 l 1,2,-1
 3 18 l 1,3,-1
 3 20 l 1,0,-1
3 14 m 1,4,-1
 9 14 l 1,5,-1
 9 12 l 1,6,-1
 11 12 l 1,7,-1
 11 0 l 1,8,-1
 9 0 l 1,9,-1
 9 8 l 1,10,-1
 3 8 l 1,11,-1
 3 0 l 1,12,-1
 1 0 l 1,13,-1
 1 12 l 1,14,-1
 3 12 l 1,15,-1
 3 10 l 1,16,-1
 9 10 l 1,17,-1
 9 12 l 1,18,-1
 3 12 l 1,19,-1
 3 14 l 1,4,-1
5 18 m 1,20,-1
 7 18 l 1,21,-1
 7 16 l 1,22,-1
 5 16 l 1,23,-1
 5 18 l 1,20,-1
EndSplineSet
EndChar

StartChar: Aacute
Encoding: 120 193 120
Width: 12
VWidth: 36
GlyphClass: 2
Flags: MW
LayerCount: 2
Fore
SplineSet
7 20 m 1,0,-1
 9 20 l 1,1,-1
 9 18 l 1,2,-1
 7 18 l 1,3,-1
 7 20 l 1,0,-1
3 14 m 1,4,-1
 9 14 l 1,5,-1
 9 12 l 1,6,-1
 11 12 l 1,7,-1
 11 0 l 1,8,-1
 9 0 l 1,9,-1
 9 8 l 1,10,-1
 3 8 l 1,11,-1
 3 0 l 1,12,-1
 1 0 l 1,13,-1
 1 12 l 1,14,-1
 3 12 l 1,15,-1
 3 10 l 1,16,-1
 9 10 l 1,17,-1
 9 12 l 1,18,-1
 3 12 l 1,19,-1
 3 14 l 1,4,-1
7 18 m 1,20,-1
 7 16 l 1,21,-1
 5 16 l 1,22,-1
 5 18 l 1,23,-1
 7 18 l 1,20,-1
EndSplineSet
EndChar

StartChar: Acircumflex
Encoding: 121 194 121
Width: 12
VWidth: 36
GlyphClass: 2
Flags: MW
LayerCount: 2
Fore
SplineSet
5 20 m 1,0,-1
 7 20 l 1,1,-1
 7 18 l 1,2,-1
 9 18 l 1,3,-1
 9 16 l 1,4,-1
 7 16 l 1,5,-1
 7 18 l 1,6,-1
 5 18 l 1,7,-1
 5 20 l 1,0,-1
3 14 m 1,8,-1
 9 14 l 1,9,-1
 9 12 l 1,10,-1
 11 12 l 1,11,-1
 11 0 l 1,12,-1
 9 0 l 1,13,-1
 9 8 l 1,14,-1
 3 8 l 1,15,-1
 3 0 l 1,16,-1
 1 0 l 1,17,-1
 1 12 l 1,18,-1
 3 12 l 1,19,-1
 3 10 l 1,20,-1
 9 10 l 1,21,-1
 9 12 l 1,22,-1
 3 12 l 1,23,-1
 3 14 l 1,8,-1
5 18 m 1,24,-1
 5 16 l 1,25,-1
 3 16 l 1,26,-1
 3 18 l 1,27,-1
 5 18 l 1,24,-1
EndSplineSet
EndChar

StartChar: Atilde
Encoding: 122 195 122
Width: 12
VWidth: 36
GlyphClass: 2
Flags: MW
LayerCount: 2
Fore
SplineSet
9 20 m 1,0,-1
 11 20 l 1,1,-1
 11 18 l 1,2,-1
 9 18 l 1,3,-1
 9 20 l 1,0,-1
5 20 m 1,4,-1
 7 20 l 1,5,-1
 7 18 l 1,6,-1
 9 18 l 1,7,-1
 9 16 l 1,8,-1
 7 16 l 1,9,-1
 7 18 l 1,10,-1
 5 18 l 1,11,-1
 5 20 l 1,4,-1
3 14 m 1,12,-1
 9 14 l 1,13,-1
 9 12 l 1,14,-1
 11 12 l 1,15,-1
 11 0 l 1,16,-1
 9 0 l 1,17,-1
 9 8 l 1,18,-1
 3 8 l 1,19,-1
 3 0 l 1,20,-1
 1 0 l 1,21,-1
 1 12 l 1,22,-1
 3 12 l 1,23,-1
 3 10 l 1,24,-1
 9 10 l 1,25,-1
 9 12 l 1,26,-1
 3 12 l 1,27,-1
 3 14 l 1,12,-1
5 18 m 1,28,-1
 5 16 l 1,29,-1
 3 16 l 1,30,-1
 3 18 l 1,31,-1
 5 18 l 1,28,-1
EndSplineSet
EndChar

StartChar: Adieresis
Encoding: 123 196 123
Width: 12
VWidth: 36
GlyphClass: 2
Flags: MW
LayerCount: 2
Fore
SplineSet
7 18 m 1,0,-1
 9 18 l 1,1,-1
 9 16 l 1,2,-1
 7 16 l 1,3,-1
 7 18 l 1,0,-1
3 18 m 1,4,-1
 5 18 l 1,5,-1
 5 16 l 1,6,-1
 3 16 l 1,7,-1
 3 18 l 1,4,-1
3 14 m 1,8,-1
 9 14 l 1,9,-1
 9 12 l 1,10,-1
 11 12 l 1,11,-1
 11 0 l 1,12,-1
 9 0 l 1,13,-1
 9 8 l 1,14,-1
 3 8 l 1,15,-1
 3 0 l 1,16,-1
 1 0 l 1,17,-1
 1 12 l 1,18,-1
 3 12 l 1,19,-1
 3 10 l 1,20,-1
 9 10 l 1,21,-1
 9 12 l 1,22,-1
 3 12 l 1,23,-1
 3 14 l 1,8,-1
EndSplineSet
EndChar

StartChar: Aring
Encoding: 124 197 124
Width: 12
VWidth: 36
GlyphClass: 2
Flags: MW
LayerCount: 2
Fore
SplineSet
5 20 m 1,0,-1
 7 20 l 1,1,-1
 7 18 l 1,2,-1
 5 18 l 1,3,-1
 5 16 l 1,4,-1
 3 16 l 1,5,-1
 3 18 l 1,6,-1
 5 18 l 1,7,-1
 5 20 l 1,0,-1
5 16 m 1,8,-1
 7 16 l 1,9,-1
 7 18 l 1,10,-1
 9 18 l 1,11,-1
 9 16 l 1,12,-1
 7 16 l 1,13,-1
 7 14 l 1,14,-1
 9 14 l 1,15,-1
 9 12 l 1,16,-1
 11 12 l 1,17,-1
 11 0 l 1,18,-1
 9 0 l 1,19,-1
 9 8 l 1,20,-1
 3 8 l 1,21,-1
 3 0 l 1,22,-1
 1 0 l 1,23,-1
 1 12 l 1,24,-1
 3 12 l 1,25,-1
 3 10 l 1,26,-1
 9 10 l 1,27,-1
 9 12 l 1,28,-1
 3 12 l 1,29,-1
 3 14 l 1,30,-1
 5 14 l 1,31,-1
 5 16 l 1,8,-1
EndSplineSet
EndChar

StartChar: AE
Encoding: 125 198 125
Width: 12
VWidth: 36
GlyphClass: 2
Flags: MW
LayerCount: 2
Fore
SplineSet
5 10 m 1,0,-1
 5 12 l 1,1,-1
 3 12 l 1,2,-1
 3 10 l 1,3,-1
 5 10 l 1,0,-1
11 14 m 1,4,-1
 11 12 l 1,5,-1
 7 12 l 1,6,-1
 7 10 l 1,7,-1
 9 10 l 1,8,-1
 9 8 l 1,9,-1
 7 8 l 1,10,-1
 7 2 l 1,11,-1
 11 2 l 1,12,-1
 11 0 l 1,13,-1
 7 0 l 1,14,-1
 5 0 l 1,15,-1
 5 8 l 1,16,-1
 3 8 l 1,17,-1
 3 0 l 1,18,-1
 1 0 l 1,19,-1
 1 12 l 1,20,-1
 3 12 l 1,21,-1
 3 14 l 1,22,-1
 5 14 l 1,23,-1
 7 14 l 1,24,-1
 11 14 l 1,4,-1
EndSplineSet
EndChar

StartChar: Ccedilla
Encoding: 126 199 126
Width: 12
VWidth: 36
GlyphClass: 2
Flags: MW
LayerCount: 2
Fore
SplineSet
9 4 m 1,0,-1
 11 4 l 1,1,-1
 11 2 l 1,2,-1
 9 2 l 1,3,-1
 9 4 l 1,0,-1
11 12 m 1,4,-1
 11 10 l 1,5,-1
 9 10 l 1,6,-1
 9 12 l 1,7,-1
 3 12 l 1,8,-1
 3 2 l 1,9,-1
 9 2 l 1,10,-1
 9 0 l 1,11,-1
 9 -2 l 1,12,-1
 7 -2 l 1,13,-1
 7 -4 l 1,14,-1
 5 -4 l 1,15,-1
 5 -2 l 1,16,-1
 7 -2 l 1,17,-1
 7 0 l 1,18,-1
 3 0 l 1,19,-1
 3 2 l 1,20,-1
 1 2 l 1,21,-1
 1 12 l 1,22,-1
 3 12 l 1,23,-1
 3 14 l 1,24,-1
 9 14 l 1,25,-1
 9 12 l 1,26,-1
 11 12 l 1,4,-1
EndSplineSet
EndChar

StartChar: Egrave
Encoding: 127 200 127
Width: 12
VWidth: 36
GlyphClass: 2
Flags: MW
LayerCount: 2
Fore
SplineSet
3 20 m 1,0,-1
 5 20 l 1,1,-1
 5 18 l 1,2,-1
 3 18 l 1,3,-1
 3 20 l 1,0,-1
11 14 m 1,4,-1
 11 12 l 1,5,-1
 3 12 l 1,6,-1
 3 10 l 1,7,-1
 9 10 l 1,8,-1
 9 8 l 1,9,-1
 3 8 l 1,10,-1
 3 2 l 1,11,-1
 11 2 l 1,12,-1
 11 0 l 1,13,-1
 3 0 l 1,14,-1
 1 0 l 1,15,-1
 1 14 l 1,16,-1
 3 14 l 1,17,-1
 11 14 l 1,4,-1
5 18 m 1,18,-1
 7 18 l 1,19,-1
 7 16 l 1,20,-1
 5 16 l 1,21,-1
 5 18 l 1,18,-1
EndSplineSet
EndChar

StartChar: Eacute
Encoding: 128 201 128
Width: 12
VWidth: 36
GlyphClass: 2
Flags: MW
LayerCount: 2
Fore
SplineSet
7 20 m 1,0,-1
 9 20 l 1,1,-1
 9 18 l 1,2,-1
 7 18 l 1,3,-1
 7 20 l 1,0,-1
11 14 m 1,4,-1
 11 12 l 1,5,-1
 3 12 l 1,6,-1
 3 10 l 1,7,-1
 9 10 l 1,8,-1
 9 8 l 1,9,-1
 3 8 l 1,10,-1
 3 2 l 1,11,-1
 11 2 l 1,12,-1
 11 0 l 1,13,-1
 3 0 l 1,14,-1
 1 0 l 1,15,-1
 1 14 l 1,16,-1
 3 14 l 1,17,-1
 11 14 l 1,4,-1
7 18 m 1,18,-1
 7 16 l 1,19,-1
 5 16 l 1,20,-1
 5 18 l 1,21,-1
 7 18 l 1,18,-1
EndSplineSet
EndChar

StartChar: Ecircumflex
Encoding: 129 202 129
Width: 12
VWidth: 36
GlyphClass: 2
Flags: MW
LayerCount: 2
Fore
SplineSet
5 20 m 1,0,-1
 7 20 l 1,1,-1
 7 18 l 1,2,-1
 9 18 l 1,3,-1
 9 16 l 1,4,-1
 7 16 l 1,5,-1
 7 18 l 1,6,-1
 5 18 l 1,7,-1
 5 20 l 1,0,-1
11 14 m 1,8,-1
 11 12 l 1,9,-1
 3 12 l 1,10,-1
 3 10 l 1,11,-1
 9 10 l 1,12,-1
 9 8 l 1,13,-1
 3 8 l 1,14,-1
 3 2 l 1,15,-1
 11 2 l 1,16,-1
 11 0 l 1,17,-1
 3 0 l 1,18,-1
 1 0 l 1,19,-1
 1 14 l 1,20,-1
 3 14 l 1,21,-1
 11 14 l 1,8,-1
5 18 m 1,22,-1
 5 16 l 1,23,-1
 3 16 l 1,24,-1
 3 18 l 1,25,-1
 5 18 l 1,22,-1
EndSplineSet
EndChar

StartChar: Edieresis
Encoding: 130 203 130
Width: 12
VWidth: 36
GlyphClass: 2
Flags: MW
LayerCount: 2
Fore
SplineSet
7 18 m 1,0,-1
 9 18 l 1,1,-1
 9 16 l 1,2,-1
 7 16 l 1,3,-1
 7 18 l 1,0,-1
3 18 m 1,4,-1
 5 18 l 1,5,-1
 5 16 l 1,6,-1
 3 16 l 1,7,-1
 3 18 l 1,4,-1
11 14 m 1,8,-1
 11 12 l 1,9,-1
 3 12 l 1,10,-1
 3 10 l 1,11,-1
 9 10 l 1,12,-1
 9 8 l 1,13,-1
 3 8 l 1,14,-1
 3 2 l 1,15,-1
 11 2 l 1,16,-1
 11 0 l 1,17,-1
 3 0 l 1,18,-1
 1 0 l 1,19,-1
 1 14 l 1,20,-1
 3 14 l 1,21,-1
 11 14 l 1,8,-1
EndSplineSet
EndChar

StartChar: Igrave
Encoding: 131 204 131
Width: 12
VWidth: 36
GlyphClass: 2
Flags: MW
LayerCount: 2
Fore
SplineSet
3 20 m 1,0,-1
 5 20 l 1,1,-1
 5 18 l 1,2,-1
 3 18 l 1,3,-1
 3 20 l 1,0,-1
3 14 m 1,4,-1
 9 14 l 1,5,-1
 9 12 l 1,6,-1
 7 12 l 1,7,-1
 7 2 l 1,8,-1
 9 2 l 1,9,-1
 9 0 l 1,10,-1
 3 0 l 1,11,-1
 3 2 l 1,12,-1
 5 2 l 1,13,-1
 5 12 l 1,14,-1
 3 12 l 1,15,-1
 3 14 l 1,4,-1
5 18 m 1,16,-1
 7 18 l 1,17,-1
 7 16 l 1,18,-1
 5 16 l 1,19,-1
 5 18 l 1,16,-1
EndSplineSet
EndChar

StartChar: Iacute
Encoding: 132 205 132
Width: 12
VWidth: 36
GlyphClass: 2
Flags: MW
LayerCount: 2
Fore
SplineSet
7 20 m 1,0,-1
 9 20 l 1,1,-1
 9 18 l 1,2,-1
 7 18 l 1,3,-1
 7 20 l 1,0,-1
5 16 m 1,4,-1
 5 18 l 1,5,-1
 7 18 l 1,6,-1
 7 16 l 1,7,-1
 5 16 l 1,4,-1
3 14 m 1,8,-1
 9 14 l 1,9,-1
 9 12 l 1,10,-1
 7 12 l 1,11,-1
 7 2 l 1,12,-1
 9 2 l 1,13,-1
 9 0 l 1,14,-1
 3 0 l 1,15,-1
 3 2 l 1,16,-1
 5 2 l 1,17,-1
 5 12 l 1,18,-1
 3 12 l 1,19,-1
 3 14 l 1,8,-1
EndSplineSet
EndChar

StartChar: Icircumflex
Encoding: 133 206 133
Width: 12
VWidth: 36
GlyphClass: 2
Flags: MW
LayerCount: 2
Fore
SplineSet
5 20 m 1,0,-1
 7 20 l 1,1,-1
 7 18 l 1,2,-1
 9 18 l 1,3,-1
 9 16 l 1,4,-1
 7 16 l 1,5,-1
 7 18 l 1,6,-1
 5 18 l 1,7,-1
 5 20 l 1,0,-1
3 14 m 1,8,-1
 9 14 l 1,9,-1
 9 12 l 1,10,-1
 7 12 l 1,11,-1
 7 2 l 1,12,-1
 9 2 l 1,13,-1
 9 0 l 1,14,-1
 3 0 l 1,15,-1
 3 2 l 1,16,-1
 5 2 l 1,17,-1
 5 12 l 1,18,-1
 3 12 l 1,19,-1
 3 14 l 1,8,-1
5 18 m 1,20,-1
 5 16 l 1,21,-1
 3 16 l 1,22,-1
 3 18 l 1,23,-1
 5 18 l 1,20,-1
EndSplineSet
EndChar

StartChar: Idieresis
Encoding: 134 207 134
Width: 12
VWidth: 36
GlyphClass: 2
Flags: MW
LayerCount: 2
Fore
SplineSet
7 18 m 1,0,-1
 9 18 l 1,1,-1
 9 16 l 1,2,-1
 7 16 l 1,3,-1
 7 18 l 1,0,-1
3 18 m 1,4,-1
 5 18 l 1,5,-1
 5 16 l 1,6,-1
 3 16 l 1,7,-1
 3 18 l 1,4,-1
3 14 m 1,8,-1
 9 14 l 1,9,-1
 9 12 l 1,10,-1
 7 12 l 1,11,-1
 7 2 l 1,12,-1
 9 2 l 1,13,-1
 9 0 l 1,14,-1
 3 0 l 1,15,-1
 3 2 l 1,16,-1
 5 2 l 1,17,-1
 5 12 l 1,18,-1
 3 12 l 1,19,-1
 3 14 l 1,8,-1
EndSplineSet
EndChar

StartChar: Eth
Encoding: 135 208 135
Width: 12
VWidth: 36
GlyphClass: 2
Flags: MW
LayerCount: 2
Fore
SplineSet
5 0 m 1,0,-1
 3 0 l 1,1,-1
 3 6 l 1,2,-1
 1 6 l 1,3,-1
 1 8 l 1,4,-1
 3 8 l 1,5,-1
 3 14 l 1,6,-1
 5 14 l 1,7,-1
 9 14 l 1,8,-1
 9 12 l 1,9,-1
 5 12 l 1,10,-1
 5 8 l 1,11,-1
 7 8 l 1,12,-1
 7 6 l 1,13,-1
 5 6 l 1,14,-1
 5 2 l 1,15,-1
 9 2 l 1,16,-1
 9 12 l 1,17,-1
 11 12 l 1,18,-1
 11 2 l 1,19,-1
 9 2 l 1,20,-1
 9 0 l 1,21,-1
 5 0 l 1,0,-1
EndSplineSet
EndChar

StartChar: Ntilde
Encoding: 136 209 136
Width: 12
VWidth: 36
GlyphClass: 2
Flags: MW
LayerCount: 2
Fore
SplineSet
9 20 m 1,0,-1
 11 20 l 1,1,-1
 11 18 l 1,2,-1
 9 18 l 1,3,-1
 9 20 l 1,0,-1
3 20 m 1,4,-1
 7 20 l 1,5,-1
 7 18 l 1,6,-1
 9 18 l 1,7,-1
 9 16 l 1,8,-1
 7 16 l 1,9,-1
 7 18 l 1,10,-1
 3 18 l 1,11,-1
 3 20 l 1,4,-1
9 14 m 1,12,-1
 11 14 l 1,13,-1
 11 0 l 1,14,-1
 9 0 l 1,15,-1
 9 6 l 1,16,-1
 7 6 l 1,17,-1
 7 8 l 1,18,-1
 9 8 l 1,19,-1
 9 14 l 1,12,-1
1 0 m 1,20,-1
 1 14 l 1,21,-1
 3 14 l 1,22,-1
 3 12 l 1,23,-1
 5 12 l 1,24,-1
 5 10 l 1,25,-1
 7 10 l 1,26,-1
 7 8 l 1,27,-1
 5 8 l 1,28,-1
 5 10 l 1,29,-1
 3 10 l 1,30,-1
 3 0 l 1,31,-1
 1 0 l 1,20,-1
3 18 m 1,32,-1
 3 16 l 1,33,-1
 1 16 l 1,34,-1
 1 18 l 1,35,-1
 3 18 l 1,32,-1
EndSplineSet
EndChar

StartChar: Ograve
Encoding: 137 210 137
Width: 12
VWidth: 36
GlyphClass: 2
Flags: MW
LayerCount: 2
Fore
SplineSet
3 20 m 1,0,-1
 5 20 l 1,1,-1
 5 18 l 1,2,-1
 3 18 l 1,3,-1
 3 20 l 1,0,-1
3 14 m 1,4,-1
 9 14 l 1,5,-1
 9 12 l 1,6,-1
 11 12 l 1,7,-1
 11 2 l 1,8,-1
 9 2 l 1,9,-1
 9 0 l 1,10,-1
 3 0 l 1,11,-1
 3 2 l 1,12,-1
 1 2 l 1,13,-1
 1 12 l 1,14,-1
 3 12 l 1,15,-1
 3 2 l 1,16,-1
 9 2 l 1,17,-1
 9 12 l 1,18,-1
 3 12 l 1,19,-1
 3 14 l 1,4,-1
5 18 m 1,20,-1
 7 18 l 1,21,-1
 7 16 l 1,22,-1
 5 16 l 1,23,-1
 5 18 l 1,20,-1
EndSplineSet
EndChar

StartChar: Oacute
Encoding: 138 211 138
Width: 12
VWidth: 36
GlyphClass: 2
Flags: MW
LayerCount: 2
Fore
SplineSet
7 20 m 1,0,-1
 9 20 l 1,1,-1
 9 18 l 1,2,-1
 7 18 l 1,3,-1
 7 20 l 1,0,-1
3 14 m 1,4,-1
 9 14 l 1,5,-1
 9 12 l 1,6,-1
 11 12 l 1,7,-1
 11 2 l 1,8,-1
 9 2 l 1,9,-1
 9 0 l 1,10,-1
 3 0 l 1,11,-1
 3 2 l 1,12,-1
 1 2 l 1,13,-1
 1 12 l 1,14,-1
 3 12 l 1,15,-1
 3 2 l 1,16,-1
 9 2 l 1,17,-1
 9 12 l 1,18,-1
 3 12 l 1,19,-1
 3 14 l 1,4,-1
7 18 m 1,20,-1
 7 16 l 1,21,-1
 5 16 l 1,22,-1
 5 18 l 1,23,-1
 7 18 l 1,20,-1
EndSplineSet
EndChar

StartChar: Ocircumflex
Encoding: 139 212 139
Width: 12
VWidth: 36
GlyphClass: 2
Flags: MW
LayerCount: 2
Fore
SplineSet
5 20 m 1,0,-1
 7 20 l 1,1,-1
 7 18 l 1,2,-1
 9 18 l 1,3,-1
 9 16 l 1,4,-1
 7 16 l 1,5,-1
 7 18 l 1,6,-1
 5 18 l 1,7,-1
 5 20 l 1,0,-1
3 14 m 1,8,-1
 9 14 l 1,9,-1
 9 12 l 1,10,-1
 11 12 l 1,11,-1
 11 2 l 1,12,-1
 9 2 l 1,13,-1
 9 0 l 1,14,-1
 3 0 l 1,15,-1
 3 2 l 1,16,-1
 1 2 l 1,17,-1
 1 12 l 1,18,-1
 3 12 l 1,19,-1
 3 2 l 1,20,-1
 9 2 l 1,21,-1
 9 12 l 1,22,-1
 3 12 l 1,23,-1
 3 14 l 1,8,-1
5 18 m 1,24,-1
 5 16 l 1,25,-1
 3 16 l 1,26,-1
 3 18 l 1,27,-1
 5 18 l 1,24,-1
EndSplineSet
EndChar

StartChar: Otilde
Encoding: 140 213 140
Width: 12
VWidth: 36
GlyphClass: 2
Flags: MW
LayerCount: 2
Fore
SplineSet
9 20 m 1,0,-1
 11 20 l 1,1,-1
 11 18 l 1,2,-1
 9 18 l 1,3,-1
 9 20 l 1,0,-1
5 20 m 1,4,-1
 7 20 l 1,5,-1
 7 18 l 1,6,-1
 9 18 l 1,7,-1
 9 16 l 1,8,-1
 7 16 l 1,9,-1
 7 18 l 1,10,-1
 5 18 l 1,11,-1
 5 20 l 1,4,-1
3 14 m 1,12,-1
 9 14 l 1,13,-1
 9 12 l 1,14,-1
 11 12 l 1,15,-1
 11 2 l 1,16,-1
 9 2 l 1,17,-1
 9 0 l 1,18,-1
 3 0 l 1,19,-1
 3 2 l 1,20,-1
 1 2 l 1,21,-1
 1 12 l 1,22,-1
 3 12 l 1,23,-1
 3 2 l 1,24,-1
 9 2 l 1,25,-1
 9 12 l 1,26,-1
 3 12 l 1,27,-1
 3 14 l 1,12,-1
5 18 m 1,28,-1
 5 16 l 1,29,-1
 3 16 l 1,30,-1
 3 18 l 1,31,-1
 5 18 l 1,28,-1
EndSplineSet
EndChar

StartChar: Odieresis
Encoding: 141 214 141
Width: 12
VWidth: 36
GlyphClass: 2
Flags: MW
LayerCount: 2
Fore
SplineSet
7 18 m 1,0,-1
 9 18 l 1,1,-1
 9 16 l 1,2,-1
 7 16 l 1,3,-1
 7 18 l 1,0,-1
3 18 m 1,4,-1
 5 18 l 1,5,-1
 5 16 l 1,6,-1
 3 16 l 1,7,-1
 3 18 l 1,4,-1
3 14 m 1,8,-1
 9 14 l 1,9,-1
 9 12 l 1,10,-1
 11 12 l 1,11,-1
 11 2 l 1,12,-1
 9 2 l 1,13,-1
 9 0 l 1,14,-1
 3 0 l 1,15,-1
 3 2 l 1,16,-1
 1 2 l 1,17,-1
 1 12 l 1,18,-1
 3 12 l 1,19,-1
 3 2 l 1,20,-1
 9 2 l 1,21,-1
 9 12 l 1,22,-1
 3 12 l 1,23,-1
 3 14 l 1,8,-1
EndSplineSet
EndChar

StartChar: multiply
Encoding: 142 215 142
Width: 12
VWidth: 36
GlyphClass: 2
Flags: MW
LayerCount: 2
Fore
SplineSet
1 10 m 1,0,-1
 3 10 l 1,1,-1
 3 8 l 1,2,-1
 1 8 l 1,3,-1
 1 10 l 1,0,-1
9 10 m 1,4,-1
 11 10 l 1,5,-1
 11 8 l 1,6,-1
 9 8 l 1,7,-1
 9 10 l 1,4,-1
9 2 m 1,8,-1
 11 2 l 1,9,-1
 11 0 l 1,10,-1
 9 0 l 1,11,-1
 9 2 l 1,8,-1
9 2 m 1,12,-1
 7 2 l 1,13,-1
 7 4 l 1,14,-1
 9 4 l 1,15,-1
 9 2 l 1,12,-1
3 8 m 1,16,-1
 5 8 l 1,17,-1
 5 6 l 1,18,-1
 3 6 l 1,19,-1
 3 8 l 1,16,-1
5 6 m 1,20,-1
 7 6 l 1,21,-1
 7 8 l 1,22,-1
 9 8 l 1,23,-1
 9 6 l 1,24,-1
 7 6 l 1,25,-1
 7 4 l 1,26,-1
 5 4 l 1,27,-1
 5 6 l 1,20,-1
3 2 m 1,28,-1
 3 4 l 1,29,-1
 5 4 l 1,30,-1
 5 2 l 1,31,-1
 3 2 l 1,28,-1
3 2 m 1,32,-1
 3 0 l 1,33,-1
 1 0 l 1,34,-1
 1 2 l 1,35,-1
 3 2 l 1,32,-1
EndSplineSet
EndChar

StartChar: Oslash
Encoding: 143 216 143
Width: 12
VWidth: 36
GlyphClass: 2
Flags: MW
LayerCount: 2
Fore
SplineSet
9 2 m 1,0,-1
 9 0 l 1,1,-1
 3 0 l 1,2,-1
 3 2 l 1,3,-1
 1 2 l 1,4,-1
 1 12 l 1,5,-1
 3 12 l 1,6,-1
 3 14 l 1,7,-1
 9 14 l 1,8,-1
 9 12 l 1,9,-1
 11 12 l 1,10,-1
 11 2 l 1,11,-1
 9 2 l 1,0,-1
9 2 m 1,12,-1
 9 8 l 1,13,-1
 7 8 l 1,14,-1
 7 6 l 1,15,-1
 5 6 l 1,16,-1
 5 2 l 1,17,-1
 9 2 l 1,12,-1
3 12 m 1,18,-1
 3 6 l 1,19,-1
 5 6 l 1,20,-1
 5 8 l 1,21,-1
 7 8 l 1,22,-1
 7 12 l 1,23,-1
 3 12 l 1,18,-1
EndSplineSet
EndChar

StartChar: Ugrave
Encoding: 144 217 144
Width: 12
VWidth: 36
GlyphClass: 2
Flags: MW
LayerCount: 2
Fore
SplineSet
3 20 m 1,0,-1
 5 20 l 1,1,-1
 5 18 l 1,2,-1
 3 18 l 1,3,-1
 3 20 l 1,0,-1
1 14 m 1,4,-1
 3 14 l 1,5,-1
 3 2 l 1,6,-1
 9 2 l 1,7,-1
 9 14 l 1,8,-1
 11 14 l 1,9,-1
 11 2 l 1,10,-1
 9 2 l 1,11,-1
 9 0 l 1,12,-1
 3 0 l 1,13,-1
 3 2 l 1,14,-1
 1 2 l 1,15,-1
 1 14 l 1,4,-1
5 18 m 1,16,-1
 7 18 l 1,17,-1
 7 16 l 1,18,-1
 5 16 l 1,19,-1
 5 18 l 1,16,-1
EndSplineSet
EndChar

StartChar: Uacute
Encoding: 145 218 145
Width: 12
VWidth: 36
GlyphClass: 2
Flags: MW
LayerCount: 2
Fore
SplineSet
7 20 m 1,0,-1
 9 20 l 1,1,-1
 9 18 l 1,2,-1
 7 18 l 1,3,-1
 7 20 l 1,0,-1
1 14 m 1,4,-1
 3 14 l 1,5,-1
 3 2 l 1,6,-1
 9 2 l 1,7,-1
 9 14 l 1,8,-1
 11 14 l 1,9,-1
 11 2 l 1,10,-1
 9 2 l 1,11,-1
 9 0 l 1,12,-1
 3 0 l 1,13,-1
 3 2 l 1,14,-1
 1 2 l 1,15,-1
 1 14 l 1,4,-1
7 18 m 1,16,-1
 7 16 l 1,17,-1
 5 16 l 1,18,-1
 5 18 l 1,19,-1
 7 18 l 1,16,-1
EndSplineSet
EndChar

StartChar: Ucircumflex
Encoding: 146 219 146
Width: 12
VWidth: 36
GlyphClass: 2
Flags: MW
LayerCount: 2
Fore
SplineSet
5 20 m 1,0,-1
 7 20 l 1,1,-1
 7 18 l 1,2,-1
 9 18 l 1,3,-1
 9 16 l 1,4,-1
 7 16 l 1,5,-1
 7 18 l 1,6,-1
 5 18 l 1,7,-1
 5 20 l 1,0,-1
3 16 m 1,8,-1
 3 18 l 1,9,-1
 5 18 l 1,10,-1
 5 16 l 1,11,-1
 3 16 l 1,8,-1
1 14 m 1,12,-1
 3 14 l 1,13,-1
 3 2 l 1,14,-1
 9 2 l 1,15,-1
 9 14 l 1,16,-1
 11 14 l 1,17,-1
 11 2 l 1,18,-1
 9 2 l 1,19,-1
 9 0 l 1,20,-1
 3 0 l 1,21,-1
 3 2 l 1,22,-1
 1 2 l 1,23,-1
 1 14 l 1,12,-1
EndSplineSet
EndChar

StartChar: Udieresis
Encoding: 147 220 147
Width: 12
VWidth: 36
GlyphClass: 2
Flags: MW
LayerCount: 2
Fore
SplineSet
7 18 m 1,0,-1
 9 18 l 1,1,-1
 9 16 l 1,2,-1
 7 16 l 1,3,-1
 7 18 l 1,0,-1
3 18 m 1,4,-1
 5 18 l 1,5,-1
 5 16 l 1,6,-1
 3 16 l 1,7,-1
 3 18 l 1,4,-1
1 14 m 1,8,-1
 3 14 l 1,9,-1
 3 2 l 1,10,-1
 9 2 l 1,11,-1
 9 14 l 1,12,-1
 11 14 l 1,13,-1
 11 2 l 1,14,-1
 9 2 l 1,15,-1
 9 0 l 1,16,-1
 3 0 l 1,17,-1
 3 2 l 1,18,-1
 1 2 l 1,19,-1
 1 14 l 1,8,-1
EndSplineSet
EndChar

StartChar: Yacute
Encoding: 148 221 148
Width: 12
VWidth: 36
GlyphClass: 2
Flags: MW
LayerCount: 2
Fore
SplineSet
7 20 m 1,0,-1
 9 20 l 1,1,-1
 9 18 l 1,2,-1
 7 18 l 1,3,-1
 7 20 l 1,0,-1
9 14 m 1,4,-1
 11 14 l 1,5,-1
 11 10 l 1,6,-1
 9 10 l 1,7,-1
 9 14 l 1,4,-1
1 14 m 1,8,-1
 3 14 l 1,9,-1
 3 10 l 1,10,-1
 5 10 l 1,11,-1
 5 8 l 1,12,-1
 7 8 l 1,13,-1
 7 10 l 1,14,-1
 9 10 l 1,15,-1
 9 8 l 1,16,-1
 7 8 l 1,17,-1
 7 0 l 1,18,-1
 5 0 l 1,19,-1
 5 8 l 1,20,-1
 3 8 l 1,21,-1
 3 10 l 1,22,-1
 1 10 l 1,23,-1
 1 14 l 1,8,-1
7 18 m 1,24,-1
 7 16 l 1,25,-1
 5 16 l 1,26,-1
 5 18 l 1,27,-1
 7 18 l 1,24,-1
EndSplineSet
EndChar

StartChar: Thorn
Encoding: 149 222 149
Width: 12
VWidth: 36
GlyphClass: 2
Flags: MW
LayerCount: 2
Fore
SplineSet
1 14 m 1,0,-1
 3 14 l 1,1,-1
 3 12 l 1,2,-1
 7 12 l 1,3,-1
 7 10 l 1,4,-1
 3 10 l 1,5,-1
 3 4 l 1,6,-1
 7 4 l 1,7,-1
 7 10 l 1,8,-1
 9 10 l 1,9,-1
 9 4 l 1,10,-1
 7 4 l 1,11,-1
 7 2 l 1,12,-1
 3 2 l 1,13,-1
 3 0 l 1,14,-1
 1 0 l 1,15,-1
 1 14 l 1,0,-1
EndSplineSet
EndChar

StartChar: germandbls
Encoding: 150 223 150
Width: 12
VWidth: 36
GlyphClass: 2
Flags: MW
LayerCount: 2
Fore
SplineSet
1 -2 m 1,0,-1
 1 14 l 1,1,-1
 3 14 l 1,2,-1
 7 14 l 1,3,-1
 7 12 l 1,4,-1
 9 12 l 1,5,-1
 9 10 l 1,6,-1
 7 10 l 1,7,-1
 7 8 l 1,8,-1
 9 8 l 1,9,-1
 9 6 l 1,10,-1
 11 6 l 1,11,-1
 11 2 l 1,12,-1
 9 2 l 1,13,-1
 9 0 l 1,14,-1
 5 0 l 1,15,-1
 5 2 l 1,16,-1
 9 2 l 1,17,-1
 9 6 l 1,18,-1
 7 6 l 1,19,-1
 7 8 l 1,20,-1
 5 8 l 1,21,-1
 5 10 l 1,22,-1
 7 10 l 1,23,-1
 7 12 l 1,24,-1
 3 12 l 1,25,-1
 3 -2 l 1,26,-1
 1 -2 l 1,0,-1
EndSplineSet
EndChar

StartChar: agrave
Encoding: 151 224 151
Width: 12
VWidth: 36
GlyphClass: 2
Flags: MW
LayerCount: 2
Fore
SplineSet
3 10 m 1,0,-1
 9 10 l 1,1,-1
 9 8 l 1,2,-1
 3 8 l 1,3,-1
 3 10 l 1,0,-1
1 2 m 1,4,-1
 1 4 l 1,5,-1
 3 4 l 1,6,-1
 3 2 l 1,7,-1
 9 2 l 1,8,-1
 9 4 l 1,9,-1
 3 4 l 1,10,-1
 3 6 l 1,11,-1
 9 6 l 1,12,-1
 9 8 l 1,13,-1
 11 8 l 1,14,-1
 11 0 l 1,15,-1
 9 0 l 1,16,-1
 3 0 l 1,17,-1
 3 2 l 1,18,-1
 1 2 l 1,4,-1
3 16 m 1,19,-1
 5 16 l 1,20,-1
 5 14 l 1,21,-1
 7 14 l 1,22,-1
 7 12 l 1,23,-1
 5 12 l 1,24,-1
 5 14 l 1,25,-1
 3 14 l 1,26,-1
 3 16 l 1,19,-1
EndSplineSet
EndChar

StartChar: aacute
Encoding: 152 225 152
Width: 12
VWidth: 36
GlyphClass: 2
Flags: MW
LayerCount: 2
Fore
SplineSet
3 10 m 1,0,-1
 9 10 l 1,1,-1
 9 8 l 1,2,-1
 3 8 l 1,3,-1
 3 10 l 1,0,-1
1 2 m 1,4,-1
 1 4 l 1,5,-1
 3 4 l 1,6,-1
 3 2 l 1,7,-1
 9 2 l 1,8,-1
 9 4 l 1,9,-1
 3 4 l 1,10,-1
 3 6 l 1,11,-1
 9 6 l 1,12,-1
 9 8 l 1,13,-1
 11 8 l 1,14,-1
 11 0 l 1,15,-1
 9 0 l 1,16,-1
 3 0 l 1,17,-1
 3 2 l 1,18,-1
 1 2 l 1,4,-1
7 16 m 1,19,-1
 9 16 l 1,20,-1
 9 14 l 1,21,-1
 7 14 l 1,22,-1
 7 12 l 1,23,-1
 5 12 l 1,24,-1
 5 14 l 1,25,-1
 7 14 l 1,26,-1
 7 16 l 1,19,-1
EndSplineSet
EndChar

StartChar: acircumflex
Encoding: 153 226 153
Width: 12
VWidth: 36
GlyphClass: 2
Flags: MW
LayerCount: 2
Fore
SplineSet
3 10 m 1,0,-1
 9 10 l 1,1,-1
 9 8 l 1,2,-1
 3 8 l 1,3,-1
 3 10 l 1,0,-1
1 2 m 1,4,-1
 1 4 l 1,5,-1
 3 4 l 1,6,-1
 3 2 l 1,7,-1
 9 2 l 1,8,-1
 9 4 l 1,9,-1
 3 4 l 1,10,-1
 3 6 l 1,11,-1
 9 6 l 1,12,-1
 9 8 l 1,13,-1
 11 8 l 1,14,-1
 11 0 l 1,15,-1
 9 0 l 1,16,-1
 3 0 l 1,17,-1
 3 2 l 1,18,-1
 1 2 l 1,4,-1
5 16 m 1,19,-1
 7 16 l 1,20,-1
 7 14 l 1,21,-1
 5 14 l 1,22,-1
 5 12 l 1,23,-1
 3 12 l 1,24,-1
 3 14 l 1,25,-1
 5 14 l 1,26,-1
 5 16 l 1,19,-1
7 14 m 1,27,-1
 9 14 l 1,28,-1
 9 12 l 1,29,-1
 7 12 l 1,30,-1
 7 14 l 1,27,-1
EndSplineSet
EndChar

StartChar: atilde
Encoding: 154 227 154
Width: 12
VWidth: 36
GlyphClass: 2
Flags: MW
LayerCount: 2
Fore
SplineSet
3 10 m 1,0,-1
 9 10 l 1,1,-1
 9 8 l 1,2,-1
 3 8 l 1,3,-1
 3 10 l 1,0,-1
1 2 m 1,4,-1
 1 4 l 1,5,-1
 3 4 l 1,6,-1
 3 2 l 1,7,-1
 9 2 l 1,8,-1
 9 4 l 1,9,-1
 3 4 l 1,10,-1
 3 6 l 1,11,-1
 9 6 l 1,12,-1
 9 8 l 1,13,-1
 11 8 l 1,14,-1
 11 0 l 1,15,-1
 9 0 l 1,16,-1
 3 0 l 1,17,-1
 3 2 l 1,18,-1
 1 2 l 1,4,-1
3 16 m 1,19,-1
 7 16 l 1,20,-1
 7 14 l 1,21,-1
 3 14 l 1,22,-1
 3 12 l 1,23,-1
 1 12 l 1,24,-1
 1 14 l 1,25,-1
 3 14 l 1,26,-1
 3 16 l 1,19,-1
9 16 m 1,27,-1
 11 16 l 1,28,-1
 11 14 l 1,29,-1
 9 14 l 1,30,-1
 9 12 l 1,31,-1
 7 12 l 1,32,-1
 7 14 l 1,33,-1
 9 14 l 1,34,-1
 9 16 l 1,27,-1
EndSplineSet
EndChar

StartChar: adieresis
Encoding: 155 228 155
Width: 12
VWidth: 36
GlyphClass: 2
Flags: MW
LayerCount: 2
Fore
SplineSet
3 10 m 1,0,-1
 9 10 l 1,1,-1
 9 8 l 1,2,-1
 3 8 l 1,3,-1
 3 10 l 1,0,-1
1 2 m 1,4,-1
 1 4 l 1,5,-1
 3 4 l 1,6,-1
 3 2 l 1,7,-1
 9 2 l 1,8,-1
 9 4 l 1,9,-1
 3 4 l 1,10,-1
 3 6 l 1,11,-1
 9 6 l 1,12,-1
 9 8 l 1,13,-1
 11 8 l 1,14,-1
 11 0 l 1,15,-1
 9 0 l 1,16,-1
 3 0 l 1,17,-1
 3 2 l 1,18,-1
 1 2 l 1,4,-1
3 14 m 1,19,-1
 5 14 l 1,20,-1
 5 12 l 1,21,-1
 3 12 l 1,22,-1
 3 14 l 1,19,-1
7 14 m 1,23,-1
 9 14 l 1,24,-1
 9 12 l 1,25,-1
 7 12 l 1,26,-1
 7 14 l 1,23,-1
EndSplineSet
EndChar

StartChar: aring
Encoding: 156 229 156
Width: 12
VWidth: 36
GlyphClass: 2
Flags: MW
LayerCount: 2
Fore
SplineSet
3 10 m 1,0,-1
 9 10 l 1,1,-1
 9 8 l 1,2,-1
 3 8 l 1,3,-1
 3 10 l 1,0,-1
1 2 m 1,4,-1
 1 4 l 1,5,-1
 3 4 l 1,6,-1
 3 2 l 1,7,-1
 9 2 l 1,8,-1
 9 4 l 1,9,-1
 3 4 l 1,10,-1
 3 6 l 1,11,-1
 9 6 l 1,12,-1
 9 8 l 1,13,-1
 11 8 l 1,14,-1
 11 0 l 1,15,-1
 9 0 l 1,16,-1
 3 0 l 1,17,-1
 3 2 l 1,18,-1
 1 2 l 1,4,-1
7 14 m 1,19,-1
 7 12 l 1,20,-1
 5 12 l 1,21,-1
 5 14 l 1,22,-1
 7 14 l 1,19,-1
7 14 m 1,23,-1
 7 16 l 1,24,-1
 9 16 l 1,25,-1
 9 14 l 1,26,-1
 7 14 l 1,23,-1
7 16 m 1,27,-1
 5 16 l 1,28,-1
 5 18 l 1,29,-1
 7 18 l 1,30,-1
 7 16 l 1,27,-1
5 16 m 1,31,-1
 5 14 l 1,32,-1
 3 14 l 1,33,-1
 3 16 l 1,34,-1
 5 16 l 1,31,-1
EndSplineSet
EndChar

StartChar: ae
Encoding: 157 230 157
Width: 12
VWidth: 36
GlyphClass: 2
Flags: MW
LayerCount: 2
Fore
SplineSet
7 2 m 1,0,-1
 11 2 l 1,1,-1
 11 0 l 1,2,-1
 7 0 l 1,3,-1
 7 2 l 1,0,-1
7 2 m 1,4,-1
 5 2 l 1,5,-1
 5 4 l 1,6,-1
 3 4 l 1,7,-1
 3 2 l 1,8,-1
 1 2 l 1,9,-1
 1 4 l 1,10,-1
 3 4 l 1,11,-1
 3 6 l 1,12,-1
 5 6 l 1,13,-1
 5 8 l 1,14,-1
 3 8 l 1,15,-1
 3 10 l 1,16,-1
 5 10 l 1,17,-1
 5 8 l 1,18,-1
 7 8 l 1,19,-1
 7 10 l 1,20,-1
 9 10 l 1,21,-1
 9 8 l 1,22,-1
 7 8 l 1,23,-1
 7 6 l 1,24,-1
 9 6 l 1,25,-1
 9 8 l 1,26,-1
 11 8 l 1,27,-1
 11 6 l 1,28,-1
 11 4 l 1,29,-1
 7 4 l 1,30,-1
 7 2 l 1,4,-1
3 2 m 1,31,-1
 5 2 l 1,32,-1
 5 0 l 1,33,-1
 3 0 l 1,34,-1
 3 2 l 1,31,-1
EndSplineSet
EndChar

StartChar: ccedilla
Encoding: 158 231 158
Width: 12
VWidth: 36
GlyphClass: 2
Flags: MW
LayerCount: 2
Fore
SplineSet
9 4 m 1,0,-1
 11 4 l 1,1,-1
 11 2 l 1,2,-1
 9 2 l 1,3,-1
 9 0 l 1,4,-1
 9 -2 l 1,5,-1
 7 -2 l 1,6,-1
 7 -4 l 1,7,-1
 5 -4 l 1,8,-1
 5 -2 l 1,9,-1
 7 -2 l 1,10,-1
 7 0 l 1,11,-1
 3 0 l 1,12,-1
 3 2 l 1,13,-1
 1 2 l 1,14,-1
 1 8 l 1,15,-1
 3 8 l 1,16,-1
 3 10 l 1,17,-1
 9 10 l 1,18,-1
 9 8 l 1,19,-1
 3 8 l 1,20,-1
 3 2 l 1,21,-1
 9 2 l 1,22,-1
 9 4 l 1,0,-1
9 8 m 1,23,-1
 11 8 l 1,24,-1
 11 6 l 1,25,-1
 9 6 l 1,26,-1
 9 8 l 1,23,-1
EndSplineSet
EndChar

StartChar: egrave
Encoding: 159 232 159
Width: 12
VWidth: 36
GlyphClass: 2
Flags: MW
LayerCount: 2
Fore
SplineSet
3 16 m 1,0,-1
 5 16 l 1,1,-1
 5 14 l 1,2,-1
 3 14 l 1,3,-1
 3 16 l 1,0,-1
1 2 m 1,4,-1
 1 8 l 1,5,-1
 3 8 l 1,6,-1
 3 10 l 1,7,-1
 9 10 l 1,8,-1
 9 8 l 1,9,-1
 11 8 l 1,10,-1
 11 6 l 1,11,-1
 11 4 l 1,12,-1
 3 4 l 1,13,-1
 3 2 l 1,14,-1
 11 2 l 1,15,-1
 11 0 l 1,16,-1
 3 0 l 1,17,-1
 3 2 l 1,18,-1
 1 2 l 1,4,-1
5 14 m 1,19,-1
 7 14 l 1,20,-1
 7 12 l 1,21,-1
 5 12 l 1,22,-1
 5 14 l 1,19,-1
9 8 m 1,23,-1
 3 8 l 1,24,-1
 3 6 l 1,25,-1
 9 6 l 1,26,-1
 9 8 l 1,23,-1
EndSplineSet
EndChar

StartChar: eacute
Encoding: 160 233 160
Width: 12
VWidth: 36
GlyphClass: 2
Flags: MW
LayerCount: 2
Fore
SplineSet
7 16 m 1,0,-1
 9 16 l 1,1,-1
 9 14 l 1,2,-1
 7 14 l 1,3,-1
 7 16 l 1,0,-1
1 2 m 1,4,-1
 1 8 l 1,5,-1
 3 8 l 1,6,-1
 3 10 l 1,7,-1
 9 10 l 1,8,-1
 9 8 l 1,9,-1
 11 8 l 1,10,-1
 11 6 l 1,11,-1
 11 4 l 1,12,-1
 3 4 l 1,13,-1
 3 2 l 1,14,-1
 11 2 l 1,15,-1
 11 0 l 1,16,-1
 3 0 l 1,17,-1
 3 2 l 1,18,-1
 1 2 l 1,4,-1
7 14 m 1,19,-1
 7 12 l 1,20,-1
 5 12 l 1,21,-1
 5 14 l 1,22,-1
 7 14 l 1,19,-1
9 8 m 1,23,-1
 3 8 l 1,24,-1
 3 6 l 1,25,-1
 9 6 l 1,26,-1
 9 8 l 1,23,-1
EndSplineSet
EndChar

StartChar: ecircumflex
Encoding: 161 234 161
Width: 12
VWidth: 36
GlyphClass: 2
Flags: MW
LayerCount: 2
Fore
SplineSet
5 16 m 1,0,-1
 7 16 l 1,1,-1
 7 14 l 1,2,-1
 9 14 l 1,3,-1
 9 12 l 1,4,-1
 7 12 l 1,5,-1
 7 14 l 1,6,-1
 5 14 l 1,7,-1
 5 16 l 1,0,-1
1 2 m 1,8,-1
 1 8 l 1,9,-1
 3 8 l 1,10,-1
 3 10 l 1,11,-1
 9 10 l 1,12,-1
 9 8 l 1,13,-1
 11 8 l 1,14,-1
 11 6 l 1,15,-1
 11 4 l 1,16,-1
 3 4 l 1,17,-1
 3 2 l 1,18,-1
 11 2 l 1,19,-1
 11 0 l 1,20,-1
 3 0 l 1,21,-1
 3 2 l 1,22,-1
 1 2 l 1,8,-1
5 14 m 1,23,-1
 5 12 l 1,24,-1
 3 12 l 1,25,-1
 3 14 l 1,26,-1
 5 14 l 1,23,-1
9 8 m 1,27,-1
 3 8 l 1,28,-1
 3 6 l 1,29,-1
 9 6 l 1,30,-1
 9 8 l 1,27,-1
EndSplineSet
EndChar

StartChar: edieresis
Encoding: 162 235 162
Width: 12
VWidth: 36
GlyphClass: 2
Flags: MW
LayerCount: 2
Fore
SplineSet
7 14 m 1,0,-1
 9 14 l 1,1,-1
 9 12 l 1,2,-1
 7 12 l 1,3,-1
 7 14 l 1,0,-1
3 14 m 1,4,-1
 5 14 l 1,5,-1
 5 12 l 1,6,-1
 3 12 l 1,7,-1
 3 14 l 1,4,-1
1 2 m 1,8,-1
 1 8 l 1,9,-1
 3 8 l 1,10,-1
 3 10 l 1,11,-1
 9 10 l 1,12,-1
 9 8 l 1,13,-1
 11 8 l 1,14,-1
 11 6 l 1,15,-1
 11 4 l 1,16,-1
 3 4 l 1,17,-1
 3 2 l 1,18,-1
 11 2 l 1,19,-1
 11 0 l 1,20,-1
 3 0 l 1,21,-1
 3 2 l 1,22,-1
 1 2 l 1,8,-1
9 8 m 1,23,-1
 3 8 l 1,24,-1
 3 6 l 1,25,-1
 9 6 l 1,26,-1
 9 8 l 1,23,-1
EndSplineSet
EndChar

StartChar: igrave
Encoding: 163 236 163
Width: 12
VWidth: 36
GlyphClass: 2
Flags: MW
LayerCount: 2
Fore
SplineSet
5 8 m 1,0,-1
 3 8 l 1,1,-1
 3 10 l 1,2,-1
 5 10 l 1,3,-1
 7 10 l 1,4,-1
 7 2 l 1,5,-1
 9 2 l 1,6,-1
 9 0 l 1,7,-1
 3 0 l 1,8,-1
 3 2 l 1,9,-1
 5 2 l 1,10,-1
 5 8 l 1,0,-1
3 16 m 1,11,-1
 5 16 l 1,12,-1
 5 14 l 1,13,-1
 3 14 l 1,14,-1
 3 16 l 1,11,-1
5 14 m 1,15,-1
 7 14 l 1,16,-1
 7 12 l 1,17,-1
 5 12 l 1,18,-1
 5 14 l 1,15,-1
EndSplineSet
EndChar

StartChar: iacute
Encoding: 164 237 164
Width: 12
VWidth: 36
GlyphClass: 2
Flags: MW
LayerCount: 2
Fore
SplineSet
5 8 m 1,0,-1
 3 8 l 1,1,-1
 3 10 l 1,2,-1
 5 10 l 1,3,-1
 7 10 l 1,4,-1
 7 2 l 1,5,-1
 9 2 l 1,6,-1
 9 0 l 1,7,-1
 3 0 l 1,8,-1
 3 2 l 1,9,-1
 5 2 l 1,10,-1
 5 8 l 1,0,-1
7 16 m 1,11,-1
 9 16 l 1,12,-1
 9 14 l 1,13,-1
 7 14 l 1,14,-1
 7 16 l 1,11,-1
7 14 m 1,15,-1
 7 12 l 1,16,-1
 5 12 l 1,17,-1
 5 14 l 1,18,-1
 7 14 l 1,15,-1
EndSplineSet
EndChar

StartChar: icircumflex
Encoding: 165 238 165
Width: 12
VWidth: 36
GlyphClass: 2
Flags: MW
LayerCount: 2
Fore
SplineSet
5 8 m 1,0,-1
 3 8 l 1,1,-1
 3 10 l 1,2,-1
 5 10 l 1,3,-1
 7 10 l 1,4,-1
 7 2 l 1,5,-1
 9 2 l 1,6,-1
 9 0 l 1,7,-1
 3 0 l 1,8,-1
 3 2 l 1,9,-1
 5 2 l 1,10,-1
 5 8 l 1,0,-1
5 16 m 1,11,-1
 7 16 l 1,12,-1
 7 14 l 1,13,-1
 9 14 l 1,14,-1
 9 12 l 1,15,-1
 7 12 l 1,16,-1
 7 14 l 1,17,-1
 5 14 l 1,18,-1
 5 12 l 1,19,-1
 3 12 l 1,20,-1
 3 14 l 1,21,-1
 5 14 l 1,22,-1
 5 16 l 1,11,-1
EndSplineSet
EndChar

StartChar: idieresis
Encoding: 166 239 166
Width: 12
VWidth: 36
GlyphClass: 2
Flags: MW
LayerCount: 2
Fore
SplineSet
5 8 m 1,0,-1
 3 8 l 1,1,-1
 3 10 l 1,2,-1
 5 10 l 1,3,-1
 7 10 l 1,4,-1
 7 2 l 1,5,-1
 9 2 l 1,6,-1
 9 0 l 1,7,-1
 3 0 l 1,8,-1
 3 2 l 1,9,-1
 5 2 l 1,10,-1
 5 8 l 1,0,-1
7 14 m 1,11,-1
 9 14 l 1,12,-1
 9 12 l 1,13,-1
 7 12 l 1,14,-1
 7 14 l 1,11,-1
3 14 m 1,15,-1
 5 14 l 1,16,-1
 5 12 l 1,17,-1
 3 12 l 1,18,-1
 3 14 l 1,15,-1
EndSplineSet
EndChar

StartChar: eth
Encoding: 167 240 167
Width: 12
VWidth: 36
GlyphClass: 2
Flags: MW
LayerCount: 2
Fore
SplineSet
9 2 m 1,0,-1
 9 0 l 1,1,-1
 3 0 l 1,2,-1
 3 2 l 1,3,-1
 9 2 l 1,0,-1
9 2 m 1,4,-1
 9 4 l 1,5,-1
 3 4 l 1,6,-1
 3 6 l 1,7,-1
 9 6 l 1,8,-1
 9 10 l 1,9,-1
 11 10 l 1,10,-1
 11 2 l 1,11,-1
 9 2 l 1,4,-1
3 4 m 1,12,-1
 3 2 l 1,13,-1
 1 2 l 1,14,-1
 1 4 l 1,15,-1
 3 4 l 1,12,-1
9 10 m 1,16,-1
 7 10 l 1,17,-1
 7 12 l 1,18,-1
 9 12 l 1,19,-1
 9 10 l 1,16,-1
7 12 m 1,20,-1
 3 12 l 1,21,-1
 3 14 l 1,22,-1
 7 14 l 1,23,-1
 7 12 l 1,20,-1
9 12 m 1,24,-1
 9 14 l 1,25,-1
 11 14 l 1,26,-1
 11 12 l 1,27,-1
 9 12 l 1,24,-1
7 10 m 1,28,-1
 7 8 l 1,29,-1
 5 8 l 1,30,-1
 5 10 l 1,31,-1
 7 10 l 1,28,-1
EndSplineSet
EndChar

StartChar: ntilde
Encoding: 168 241 168
Width: 12
VWidth: 36
GlyphClass: 2
Flags: MW
LayerCount: 2
Fore
SplineSet
9 16 m 1,0,-1
 11 16 l 1,1,-1
 11 14 l 1,2,-1
 9 14 l 1,3,-1
 9 16 l 1,0,-1
3 16 m 1,4,-1
 7 16 l 1,5,-1
 7 14 l 1,6,-1
 9 14 l 1,7,-1
 9 12 l 1,8,-1
 7 12 l 1,9,-1
 7 14 l 1,10,-1
 3 14 l 1,11,-1
 3 16 l 1,4,-1
5 10 m 1,12,-1
 9 10 l 1,13,-1
 9 8 l 1,14,-1
 11 8 l 1,15,-1
 11 0 l 1,16,-1
 9 0 l 1,17,-1
 9 8 l 1,18,-1
 5 8 l 1,19,-1
 5 10 l 1,12,-1
1 0 m 1,20,-1
 1 10 l 1,21,-1
 3 10 l 1,22,-1
 3 8 l 1,23,-1
 5 8 l 1,24,-1
 5 6 l 1,25,-1
 3 6 l 1,26,-1
 3 0 l 1,27,-1
 1 0 l 1,20,-1
3 14 m 1,28,-1
 3 12 l 1,29,-1
 1 12 l 1,30,-1
 1 14 l 1,31,-1
 3 14 l 1,28,-1
EndSplineSet
EndChar

StartChar: ograve
Encoding: 169 242 169
Width: 12
VWidth: 36
GlyphClass: 2
Flags: MW
LayerCount: 2
Fore
SplineSet
3 16 m 1,0,-1
 5 16 l 1,1,-1
 5 14 l 1,2,-1
 3 14 l 1,3,-1
 3 16 l 1,0,-1
3 8 m 1,4,-1
 3 2 l 1,5,-1
 1 2 l 1,6,-1
 1 8 l 1,7,-1
 3 8 l 1,4,-1
3 8 m 1,8,-1
 3 10 l 1,9,-1
 9 10 l 1,10,-1
 9 8 l 1,11,-1
 3 8 l 1,8,-1
9 8 m 1,12,-1
 11 8 l 1,13,-1
 11 2 l 1,14,-1
 9 2 l 1,15,-1
 9 8 l 1,12,-1
3 2 m 1,16,-1
 9 2 l 1,17,-1
 9 0 l 1,18,-1
 3 0 l 1,19,-1
 3 2 l 1,16,-1
5 14 m 1,20,-1
 7 14 l 1,21,-1
 7 12 l 1,22,-1
 5 12 l 1,23,-1
 5 14 l 1,20,-1
EndSplineSet
EndChar

StartChar: oacute
Encoding: 170 243 170
Width: 12
VWidth: 36
GlyphClass: 2
Flags: MW
LayerCount: 2
Fore
SplineSet
7 16 m 1,0,-1
 9 16 l 1,1,-1
 9 14 l 1,2,-1
 7 14 l 1,3,-1
 7 16 l 1,0,-1
3 8 m 1,4,-1
 3 2 l 1,5,-1
 1 2 l 1,6,-1
 1 8 l 1,7,-1
 3 8 l 1,4,-1
3 8 m 1,8,-1
 3 10 l 1,9,-1
 9 10 l 1,10,-1
 9 8 l 1,11,-1
 3 8 l 1,8,-1
9 8 m 1,12,-1
 11 8 l 1,13,-1
 11 2 l 1,14,-1
 9 2 l 1,15,-1
 9 8 l 1,12,-1
3 2 m 1,16,-1
 9 2 l 1,17,-1
 9 0 l 1,18,-1
 3 0 l 1,19,-1
 3 2 l 1,16,-1
7 14 m 1,20,-1
 7 12 l 1,21,-1
 5 12 l 1,22,-1
 5 14 l 1,23,-1
 7 14 l 1,20,-1
EndSplineSet
EndChar

StartChar: ocircumflex
Encoding: 171 244 171
Width: 12
VWidth: 36
GlyphClass: 2
Flags: MW
LayerCount: 2
Fore
SplineSet
5 16 m 1,0,-1
 7 16 l 1,1,-1
 7 14 l 1,2,-1
 9 14 l 1,3,-1
 9 12 l 1,4,-1
 7 12 l 1,5,-1
 7 14 l 1,6,-1
 5 14 l 1,7,-1
 5 16 l 1,0,-1
3 8 m 1,8,-1
 3 2 l 1,9,-1
 1 2 l 1,10,-1
 1 8 l 1,11,-1
 3 8 l 1,8,-1
3 8 m 1,12,-1
 3 10 l 1,13,-1
 9 10 l 1,14,-1
 9 8 l 1,15,-1
 3 8 l 1,12,-1
9 8 m 1,16,-1
 11 8 l 1,17,-1
 11 2 l 1,18,-1
 9 2 l 1,19,-1
 9 8 l 1,16,-1
3 2 m 1,20,-1
 9 2 l 1,21,-1
 9 0 l 1,22,-1
 3 0 l 1,23,-1
 3 2 l 1,20,-1
5 14 m 1,24,-1
 5 12 l 1,25,-1
 3 12 l 1,26,-1
 3 14 l 1,27,-1
 5 14 l 1,24,-1
EndSplineSet
EndChar

StartChar: otilde
Encoding: 172 245 172
Width: 12
VWidth: 36
GlyphClass: 2
Flags: MW
LayerCount: 2
Fore
SplineSet
9 16 m 1,0,-1
 11 16 l 1,1,-1
 11 14 l 1,2,-1
 9 14 l 1,3,-1
 9 16 l 1,0,-1
3 16 m 1,4,-1
 7 16 l 1,5,-1
 7 14 l 1,6,-1
 9 14 l 1,7,-1
 9 12 l 1,8,-1
 7 12 l 1,9,-1
 7 14 l 1,10,-1
 3 14 l 1,11,-1
 3 16 l 1,4,-1
3 8 m 1,12,-1
 3 2 l 1,13,-1
 1 2 l 1,14,-1
 1 8 l 1,15,-1
 3 8 l 1,12,-1
3 8 m 1,16,-1
 3 10 l 1,17,-1
 9 10 l 1,18,-1
 9 8 l 1,19,-1
 3 8 l 1,16,-1
9 8 m 1,20,-1
 11 8 l 1,21,-1
 11 2 l 1,22,-1
 9 2 l 1,23,-1
 9 8 l 1,20,-1
3 2 m 1,24,-1
 9 2 l 1,25,-1
 9 0 l 1,26,-1
 3 0 l 1,27,-1
 3 2 l 1,24,-1
3 14 m 1,28,-1
 3 12 l 1,29,-1
 1 12 l 1,30,-1
 1 14 l 1,31,-1
 3 14 l 1,28,-1
EndSplineSet
EndChar

StartChar: odieresis
Encoding: 173 246 173
Width: 12
VWidth: 36
GlyphClass: 2
Flags: MW
LayerCount: 2
Fore
SplineSet
7 14 m 1,0,-1
 9 14 l 1,1,-1
 9 12 l 1,2,-1
 7 12 l 1,3,-1
 7 14 l 1,0,-1
3 14 m 1,4,-1
 5 14 l 1,5,-1
 5 12 l 1,6,-1
 3 12 l 1,7,-1
 3 14 l 1,4,-1
3 8 m 1,8,-1
 3 2 l 1,9,-1
 1 2 l 1,10,-1
 1 8 l 1,11,-1
 3 8 l 1,8,-1
3 8 m 1,12,-1
 3 10 l 1,13,-1
 9 10 l 1,14,-1
 9 8 l 1,15,-1
 3 8 l 1,12,-1
9 8 m 1,16,-1
 11 8 l 1,17,-1
 11 2 l 1,18,-1
 9 2 l 1,19,-1
 9 8 l 1,16,-1
3 2 m 1,20,-1
 9 2 l 1,21,-1
 9 0 l 1,22,-1
 3 0 l 1,23,-1
 3 2 l 1,20,-1
EndSplineSet
EndChar

StartChar: divide
Encoding: 174 247 174
Width: 12
VWidth: 36
GlyphClass: 2
Flags: MW
LayerCount: 2
Fore
SplineSet
5 4 m 1,0,-1
 7 4 l 1,1,-1
 7 2 l 1,2,-1
 5 2 l 1,3,-1
 5 4 l 1,0,-1
5 12 m 1,4,-1
 7 12 l 1,5,-1
 7 10 l 1,6,-1
 5 10 l 1,7,-1
 5 12 l 1,4,-1
1 8 m 1,8,-1
 11 8 l 1,9,-1
 11 6 l 1,10,-1
 1 6 l 1,11,-1
 1 8 l 1,8,-1
EndSplineSet
EndChar

StartChar: oslash
Encoding: 175 248 175
Width: 12
VWidth: 36
GlyphClass: 2
Flags: MW
LayerCount: 2
Fore
SplineSet
9 2 m 1,0,-1
 9 0 l 1,1,-1
 3 0 l 1,2,-1
 3 2 l 1,3,-1
 1 2 l 1,4,-1
 1 8 l 1,5,-1
 3 8 l 1,6,-1
 3 10 l 1,7,-1
 9 10 l 1,8,-1
 9 8 l 1,9,-1
 11 8 l 1,10,-1
 11 2 l 1,11,-1
 9 2 l 1,0,-1
9 2 m 1,12,-1
 9 6 l 1,13,-1
 7 6 l 1,14,-1
 7 4 l 1,15,-1
 5 4 l 1,16,-1
 5 2 l 1,17,-1
 9 2 l 1,12,-1
3 8 m 1,18,-1
 3 4 l 1,19,-1
 5 4 l 1,20,-1
 5 6 l 1,21,-1
 7 6 l 1,22,-1
 7 8 l 1,23,-1
 3 8 l 1,18,-1
EndSplineSet
EndChar

StartChar: ugrave
Encoding: 176 249 176
Width: 12
VWidth: 36
GlyphClass: 2
Flags: MW
LayerCount: 2
Fore
SplineSet
3 16 m 1,0,-1
 5 16 l 1,1,-1
 5 14 l 1,2,-1
 3 14 l 1,3,-1
 3 16 l 1,0,-1
7 12 m 1,4,-1
 5 12 l 1,5,-1
 5 14 l 1,6,-1
 7 14 l 1,7,-1
 7 12 l 1,4,-1
1 10 m 1,8,-1
 3 10 l 1,9,-1
 3 2 l 1,10,-1
 7 2 l 1,11,-1
 7 10 l 1,12,-1
 9 10 l 1,13,-1
 9 2 l 1,14,-1
 11 2 l 1,15,-1
 11 0 l 1,16,-1
 9 0 l 1,17,-1
 9 2 l 1,18,-1
 7 2 l 1,19,-1
 7 0 l 1,20,-1
 3 0 l 1,21,-1
 3 2 l 1,22,-1
 1 2 l 1,23,-1
 1 10 l 1,8,-1
EndSplineSet
EndChar

StartChar: uacute
Encoding: 177 250 177
Width: 12
VWidth: 36
GlyphClass: 2
Flags: MW
LayerCount: 2
Fore
SplineSet
5 16 m 1,0,-1
 7 16 l 1,1,-1
 7 14 l 1,2,-1
 5 14 l 1,3,-1
 5 16 l 1,0,-1
1 10 m 1,4,-1
 3 10 l 1,5,-1
 3 2 l 1,6,-1
 7 2 l 1,7,-1
 7 10 l 1,8,-1
 9 10 l 1,9,-1
 9 2 l 1,10,-1
 11 2 l 1,11,-1
 11 0 l 1,12,-1
 9 0 l 1,13,-1
 9 2 l 1,14,-1
 7 2 l 1,15,-1
 7 0 l 1,16,-1
 3 0 l 1,17,-1
 3 2 l 1,18,-1
 1 2 l 1,19,-1
 1 10 l 1,4,-1
5 14 m 1,20,-1
 5 12 l 1,21,-1
 3 12 l 1,22,-1
 3 14 l 1,23,-1
 5 14 l 1,20,-1
EndSplineSet
EndChar

StartChar: ucircumflex
Encoding: 178 251 178
Width: 12
VWidth: 36
GlyphClass: 2
Flags: MW
LayerCount: 2
Fore
SplineSet
5 16 m 1,0,-1
 7 16 l 1,1,-1
 7 14 l 1,2,-1
 9 14 l 1,3,-1
 9 12 l 1,4,-1
 7 12 l 1,5,-1
 7 14 l 1,6,-1
 5 14 l 1,7,-1
 5 16 l 1,0,-1
1 10 m 1,8,-1
 3 10 l 1,9,-1
 3 2 l 1,10,-1
 7 2 l 1,11,-1
 7 10 l 1,12,-1
 9 10 l 1,13,-1
 9 2 l 1,14,-1
 11 2 l 1,15,-1
 11 0 l 1,16,-1
 9 0 l 1,17,-1
 9 2 l 1,18,-1
 7 2 l 1,19,-1
 7 0 l 1,20,-1
 3 0 l 1,21,-1
 3 2 l 1,22,-1
 1 2 l 1,23,-1
 1 10 l 1,8,-1
5 14 m 1,24,-1
 5 12 l 1,25,-1
 3 12 l 1,26,-1
 3 14 l 1,27,-1
 5 14 l 1,24,-1
EndSplineSet
EndChar

StartChar: udieresis
Encoding: 179 252 179
Width: 12
VWidth: 36
GlyphClass: 2
Flags: MW
LayerCount: 2
Fore
SplineSet
7 14 m 1,0,-1
 9 14 l 1,1,-1
 9 12 l 1,2,-1
 7 12 l 1,3,-1
 7 14 l 1,0,-1
3 14 m 1,4,-1
 5 14 l 1,5,-1
 5 12 l 1,6,-1
 3 12 l 1,7,-1
 3 14 l 1,4,-1
1 10 m 1,8,-1
 3 10 l 1,9,-1
 3 2 l 1,10,-1
 7 2 l 1,11,-1
 7 10 l 1,12,-1
 9 10 l 1,13,-1
 9 2 l 1,14,-1
 11 2 l 1,15,-1
 11 0 l 1,16,-1
 9 0 l 1,17,-1
 9 2 l 1,18,-1
 7 2 l 1,19,-1
 7 0 l 1,20,-1
 3 0 l 1,21,-1
 3 2 l 1,22,-1
 1 2 l 1,23,-1
 1 10 l 1,8,-1
EndSplineSet
EndChar

StartChar: yacute
Encoding: 180 253 180
Width: 12
VWidth: 36
GlyphClass: 2
Flags: MW
LayerCount: 2
Fore
SplineSet
7 14 m 5,0,-1
 9 14 l 1,1,-1
 9 12 l 1,2,-1
 7 12 l 1,3,-1
 7 14 l 5,0,-1
5 12 m 1,4,-1
 7 12 l 1,5,-1
 7 10 l 1,6,-1
 5 10 l 1,7,-1
 5 12 l 1,4,-1
9 10 m 1,8,-1
 11 10 l 1,9,-1
 11 2 l 1,10,-1
 11 0 l 1,11,-1
 9 0 l 1,12,-1
 9 2 l 1,13,-1
 3 2 l 1,14,-1
 3 4 l 1,15,-1
 1 4 l 1,16,-1
 1 10 l 1,17,-1
 3 10 l 1,18,-1
 3 4 l 1,19,-1
 9 4 l 1,20,-1
 9 10 l 1,8,-1
9 0 m 1,21,-1
 9 -2 l 1,22,-1
 1 -2 l 1,23,-1
 1 0 l 1,24,-1
 9 0 l 1,21,-1
EndSplineSet
EndChar

StartChar: thorn
Encoding: 181 254 181
Width: 12
VWidth: 36
GlyphClass: 2
Flags: MW
LayerCount: 2
Fore
SplineSet
3 -2 m 1,0,-1
 1 -2 l 1,1,-1
 1 14 l 1,2,-1
 3 14 l 1,3,-1
 3 8 l 1,4,-1
 7 8 l 1,5,-1
 7 6 l 1,6,-1
 9 6 l 1,7,-1
 9 2 l 1,8,-1
 7 2 l 1,9,-1
 7 0 l 1,10,-1
 3 0 l 1,11,-1
 3 -2 l 1,0,-1
7 2 m 1,12,-1
 7 6 l 1,13,-1
 3 6 l 1,14,-1
 3 2 l 1,15,-1
 7 2 l 1,12,-1
EndSplineSet
EndChar

StartChar: ydieresis
Encoding: 182 255 182
Width: 12
VWidth: 36
GlyphClass: 2
Flags: MW
LayerCount: 2
Fore
SplineSet
7 14 m 5,0,-1
 9 14 l 1,1,-1
 9 12 l 1,2,-1
 7 12 l 1,3,-1
 7 14 l 5,0,-1
3 14 m 1,4,-1
 5 14 l 1,5,-1
 5 12 l 1,6,-1
 3 12 l 1,7,-1
 3 14 l 1,4,-1
9 10 m 1,8,-1
 11 10 l 1,9,-1
 11 2 l 1,10,-1
 11 0 l 1,11,-1
 9 0 l 1,12,-1
 9 2 l 1,13,-1
 3 2 l 1,14,-1
 3 4 l 1,15,-1
 1 4 l 1,16,-1
 1 10 l 1,17,-1
 3 10 l 1,18,-1
 3 4 l 1,19,-1
 9 4 l 1,20,-1
 9 10 l 1,8,-1
9 0 m 1,21,-1
 9 -2 l 1,22,-1
 1 -2 l 1,23,-1
 1 0 l 1,24,-1
 9 0 l 1,21,-1
EndSplineSet
EndChar

StartChar: .notdef
Encoding: 183 -1 183
Width: 12
VWidth: 36
GlyphClass: 1
Flags: MW
LayerCount: 2
Fore
SplineSet
5 14 m 1,0,-1
 7 14 l 1,1,-1
 7 12 l 1,2,-1
 9 12 l 1,3,-1
 9 10 l 1,4,-1
 11 10 l 1,5,-1
 11 2 l 1,6,-1
 9 2 l 1,7,-1
 9 0 l 1,8,-1
 7 0 l 1,9,-1
 7 2 l 1,10,-1
 5 2 l 1,11,-1
 5 0 l 1,12,-1
 7 0 l 1,13,-1
 7 -2 l 1,14,-1
 5 -2 l 1,15,-1
 5 0 l 1,16,-1
 3 0 l 1,17,-1
 3 2 l 1,18,-1
 1 2 l 1,19,-1
 1 10 l 1,20,-1
 3 10 l 1,21,-1
 3 8 l 1,22,-1
 5 8 l 1,23,-1
 5 10 l 1,24,-1
 7 10 l 1,25,-1
 7 6 l 1,26,-1
 9 6 l 1,27,-1
 9 10 l 1,28,-1
 7 10 l 1,29,-1
 7 12 l 1,30,-1
 5 12 l 1,31,-1
 5 10 l 1,32,-1
 3 10 l 1,33,-1
 3 12 l 1,34,-1
 5 12 l 1,35,-1
 5 14 l 1,0,-1
7 6 m 1,36,-1
 5 6 l 1,37,-1
 5 4 l 1,38,-1
 7 4 l 1,39,-1
 7 6 l 1,36,-1
EndSplineSet
EndChar

StartChar: zero.onum
Encoding: 184 -1 184
Width: 12
VWidth: 36
GlyphClass: 2
Flags: MW
LayerCount: 2
Fore
SplineSet
5 8 m 1,0,-1
 7 8 l 1,1,-1
 7 4 l 1,2,-1
 5 4 l 1,3,-1
 5 8 l 1,0,-1
3 10 m 1,4,-1
 3 2 l 1,5,-1
 1 2 l 1,6,-1
 1 10 l 1,7,-1
 3 10 l 1,4,-1
3 10 m 1,8,-1
 3 12 l 1,9,-1
 9 12 l 1,10,-1
 9 10 l 1,11,-1
 3 10 l 1,8,-1
9 10 m 1,12,-1
 11 10 l 1,13,-1
 11 2 l 1,14,-1
 9 2 l 1,15,-1
 9 10 l 1,12,-1
3 2 m 1,16,-1
 9 2 l 1,17,-1
 9 0 l 1,18,-1
 3 0 l 1,19,-1
 3 2 l 1,16,-1
EndSplineSet
EndChar

StartChar: one.onum
Encoding: 185 -1 185
Width: 12
VWidth: 36
GlyphClass: 2
Flags: MW
LayerCount: 2
Fore
SplineSet
5 12 m 1,0,-1
 7 12 l 1,1,-1
 7 10 l 1,2,-1
 7 2 l 1,3,-1
 9 2 l 1,4,-1
 9 0 l 1,5,-1
 3 0 l 1,6,-1
 3 2 l 1,7,-1
 5 2 l 1,8,-1
 5 8 l 1,9,-1
 3 8 l 1,10,-1
 3 10 l 1,11,-1
 5 10 l 1,12,-1
 5 12 l 1,0,-1
EndSplineSet
EndChar

StartChar: two.onum
Encoding: 186 -1 186
Width: 12
VWidth: 36
GlyphClass: 2
Flags: MW
LayerCount: 2
Fore
SplineSet
3 12 m 1,0,-1
 9 12 l 1,1,-1
 9 10 l 1,2,-1
 3 10 l 1,3,-1
 3 8 l 1,4,-1
 1 8 l 1,5,-1
 1 10 l 1,6,-1
 3 10 l 1,7,-1
 3 12 l 1,0,-1
5 4 m 1,8,-1
 5 6 l 1,9,-1
 9 6 l 1,10,-1
 9 10 l 1,11,-1
 11 10 l 1,12,-1
 11 6 l 1,13,-1
 9 6 l 1,14,-1
 9 4 l 1,15,-1
 5 4 l 1,8,-1
5 4 m 1,16,-1
 5 2 l 1,17,-1
 11 2 l 1,18,-1
 11 0 l 1,19,-1
 1 0 l 1,20,-1
 1 2 l 1,21,-1
 3 2 l 1,22,-1
 3 4 l 1,23,-1
 5 4 l 1,16,-1
EndSplineSet
EndChar

StartChar: three.onum
Encoding: 187 -1 187
Width: 12
VWidth: 36
GlyphClass: 2
Flags: MW
LayerCount: 2
Fore
SplineSet
1 2 m 1,0,-1
 3 2 l 1,1,-1
 3 0 l 1,2,-1
 1 0 l 1,3,-1
 1 2 l 1,0,-1
3 12 m 1,4,-1
 9 12 l 1,5,-1
 9 10 l 1,6,-1
 11 10 l 1,7,-1
 11 6 l 1,8,-1
 9 6 l 1,9,-1
 9 4 l 1,10,-1
 11 4 l 1,11,-1
 11 0 l 1,12,-1
 9 0 l 1,13,-1
 9 -2 l 1,14,-1
 3 -2 l 1,15,-1
 3 0 l 1,16,-1
 9 0 l 1,17,-1
 9 4 l 1,18,-1
 5 4 l 1,19,-1
 5 6 l 1,20,-1
 9 6 l 1,21,-1
 9 10 l 1,22,-1
 3 10 l 1,23,-1
 3 12 l 1,4,-1
3 10 m 1,24,-1
 3 8 l 1,25,-1
 1 8 l 1,26,-1
 1 10 l 1,27,-1
 3 10 l 1,24,-1
EndSplineSet
EndChar

StartChar: four.onum
Encoding: 188 -1 188
Width: 12
VWidth: 36
GlyphClass: 2
Flags: MW
LayerCount: 2
Fore
SplineSet
9 4 m 1,0,-1
 9 -2 l 1,1,-1
 7 -2 l 1,2,-1
 7 4 l 1,3,-1
 1 4 l 1,4,-1
 1 6 l 1,5,-1
 1 8 l 1,6,-1
 3 8 l 1,7,-1
 3 10 l 1,8,-1
 5 10 l 1,9,-1
 5 12 l 1,10,-1
 7 12 l 1,11,-1
 9 12 l 1,12,-1
 9 6 l 1,13,-1
 11 6 l 1,14,-1
 11 4 l 1,15,-1
 9 4 l 1,0,-1
5 10 m 1,16,-1
 5 8 l 1,17,-1
 3 8 l 1,18,-1
 3 6 l 1,19,-1
 7 6 l 1,20,-1
 7 10 l 1,21,-1
 5 10 l 1,16,-1
EndSplineSet
EndChar

StartChar: five.onum
Encoding: 189 -1 189
Width: 12
VWidth: 36
GlyphClass: 2
Flags: MW
LayerCount: 2
Fore
SplineSet
1 2 m 1,0,-1
 3 2 l 1,1,-1
 3 0 l 1,2,-1
 1 0 l 1,3,-1
 1 2 l 1,0,-1
11 12 m 1,4,-1
 11 10 l 1,5,-1
 3 10 l 1,6,-1
 3 8 l 1,7,-1
 9 8 l 1,8,-1
 9 6 l 1,9,-1
 11 6 l 1,10,-1
 11 0 l 1,11,-1
 9 0 l 1,12,-1
 9 -2 l 1,13,-1
 3 -2 l 1,14,-1
 3 0 l 1,15,-1
 9 0 l 1,16,-1
 9 6 l 1,17,-1
 3 6 l 1,18,-1
 1 6 l 1,19,-1
 1 10 l 1,20,-1
 1 12 l 1,21,-1
 11 12 l 1,4,-1
EndSplineSet
EndChar

StartChar: six.onum
Encoding: 190 -1 190
Width: 12
VWidth: 36
GlyphClass: 2
Flags: MW
LayerCount: 2
Fore
SplineSet
9 14 m 1,0,-1
 9 12 l 1,1,-1
 5 12 l 1,2,-1
 5 10 l 1,3,-1
 3 10 l 1,4,-1
 3 8 l 1,5,-1
 9 8 l 1,6,-1
 9 6 l 1,7,-1
 3 6 l 1,8,-1
 3 2 l 1,9,-1
 9 2 l 1,10,-1
 9 6 l 1,11,-1
 11 6 l 1,12,-1
 11 2 l 1,13,-1
 9 2 l 1,14,-1
 9 0 l 1,15,-1
 3 0 l 1,16,-1
 3 2 l 1,17,-1
 1 2 l 1,18,-1
 1 10 l 1,19,-1
 3 10 l 1,20,-1
 3 12 l 1,21,-1
 5 12 l 1,22,-1
 5 14 l 1,23,-1
 9 14 l 1,0,-1
EndSplineSet
EndChar

StartChar: seven.onum
Encoding: 191 -1 191
Width: 12
VWidth: 36
GlyphClass: 2
Flags: MW
LayerCount: 2
Fore
SplineSet
1 8 m 1,0,-1
 1 12 l 1,1,-1
 3 12 l 1,2,-1
 11 12 l 1,3,-1
 11 10 l 1,4,-1
 11 6 l 1,5,-1
 9 6 l 1,6,-1
 9 2 l 1,7,-1
 7 2 l 1,8,-1
 7 -2 l 1,9,-1
 5 -2 l 1,10,-1
 5 2 l 1,11,-1
 7 2 l 1,12,-1
 7 6 l 1,13,-1
 9 6 l 1,14,-1
 9 10 l 1,15,-1
 3 10 l 1,16,-1
 3 8 l 1,17,-1
 1 8 l 1,0,-1
EndSplineSet
EndChar

StartChar: eight.onum
Encoding: 192 -1 192
Width: 12
VWidth: 36
GlyphClass: 2
Flags: MW
LayerCount: 2
Fore
SplineSet
3 14 m 1,0,-1
 9 14 l 1,1,-1
 9 12 l 1,2,-1
 11 12 l 1,3,-1
 11 8 l 1,4,-1
 9 8 l 1,5,-1
 9 6 l 1,6,-1
 11 6 l 1,7,-1
 11 2 l 1,8,-1
 9 2 l 1,9,-1
 9 6 l 1,10,-1
 3 6 l 1,11,-1
 3 2 l 1,12,-1
 9 2 l 1,13,-1
 9 0 l 1,14,-1
 3 0 l 1,15,-1
 3 2 l 1,16,-1
 1 2 l 1,17,-1
 1 6 l 1,18,-1
 3 6 l 1,19,-1
 3 8 l 1,20,-1
 1 8 l 1,21,-1
 1 12 l 1,22,-1
 3 12 l 1,23,-1
 3 8 l 1,24,-1
 9 8 l 1,25,-1
 9 12 l 1,26,-1
 3 12 l 1,27,-1
 3 14 l 1,0,-1
EndSplineSet
EndChar

StartChar: nine.onum
Encoding: 193 -1 193
Width: 12
VWidth: 36
GlyphClass: 2
Flags: MW
LayerCount: 2
Fore
SplineSet
7 -2 m 1,0,-1
 3 -2 l 1,1,-1
 3 0 l 1,2,-1
 7 0 l 1,3,-1
 7 -2 l 1,0,-1
3 6 m 1,4,-1
 9 6 l 1,5,-1
 9 10 l 1,6,-1
 3 10 l 1,7,-1
 3 6 l 1,4,-1
3 6 m 1,8,-1
 1 6 l 1,9,-1
 1 10 l 1,10,-1
 3 10 l 1,11,-1
 3 12 l 1,12,-1
 9 12 l 1,13,-1
 9 10 l 1,14,-1
 11 10 l 1,15,-1
 11 2 l 1,16,-1
 9 2 l 1,17,-1
 9 4 l 1,18,-1
 3 4 l 1,19,-1
 3 6 l 1,8,-1
9 2 m 1,20,-1
 9 0 l 1,21,-1
 7 0 l 1,22,-1
 7 2 l 1,23,-1
 9 2 l 1,20,-1
EndSplineSet
EndChar

StartChar: checkmark
Encoding: 194 10003 194
Width: 12
Flags: M
LayerCount: 2
Fore
SplineSet
1 6 m 1,0,-1
 3 6 l 1,1,-1
 3 4 l 1,2,-1
 1 4 l 1,3,-1
 1 6 l 1,0,-1
3 4 m 1,4,-1
 5 4 l 1,5,-1
 5 0 l 1,6,-1
 3 0 l 1,7,-1
 3 4 l 1,4,-1
5 4 m 1,8,-1
 5 8 l 1,9,-1
 7 8 l 1,10,-1
 7 4 l 1,11,-1
 5 4 l 1,8,-1
7 8 m 1,12,-1
 7 12 l 1,13,-1
 9 12 l 1,14,-1
 9 8 l 1,15,-1
 7 8 l 1,12,-1
9 12 m 1,16,-1
 9 14 l 1,17,-1
 11 14 l 1,18,-1
 11 12 l 1,19,-1
 9 12 l 1,16,-1
EndSplineSet
EndChar

StartChar: uni2714
Encoding: 195 10004 195
Width: 12
Flags: MW
LayerCount: 2
Fore
SplineSet
1 6 m 1,0,-1
 3 6 l 1,1,-1
 3 4 l 1,2,-1
 5 4 l 1,3,-1
 5 8 l 1,4,-1
 7 8 l 1,5,-1
 7 12 l 1,6,-1
 9 12 l 1,7,-1
 9 14 l 1,8,-1
 11 14 l 1,9,-1
 11 10 l 1,10,-1
 9 10 l 1,11,-1
 9 6 l 1,12,-1
 7 6 l 1,13,-1
 7 2 l 1,14,-1
 5 2 l 1,15,-1
 5 0 l 1,16,-1
 3 0 l 1,17,-1
 3 2 l 1,18,-1
 1 2 l 1,19,-1
 1 6 l 1,0,-1
EndSplineSet
EndChar

StartChar: ml_cmnt_start
Encoding: 201 -1 201
Width: 24
Flags: MW
LayerCount: 2
Fore
SplineSet
5 0 m 1,0,-1
 5 2 l 1,1,-1
 7 2 l 1,2,-1
 7 0 l 1,3,-1
 5 0 l 1,0,-1
15 10 m 1,4,-1
 17 10 l 1,5,-1
 17 8 l 1,6,-1
 15 8 l 1,7,-1
 15 10 l 1,4,-1
7 2 m 1,8,-1
 7 6 l 1,9,-1
 9 6 l 1,10,-1
 9 2 l 1,11,-1
 7 2 l 1,8,-1
9 6 m 1,12,-1
 9 8 l 1,13,-1
 11 8 l 1,14,-1
 11 6 l 1,15,-1
 9 6 l 1,12,-1
11 8 m 1,16,-1
 11 12 l 1,17,-1
 13 12 l 1,18,-1
 13 8 l 1,19,-1
 11 8 l 1,16,-1
13 12 m 1,20,-1
 13 14 l 1,21,-1
 15 14 l 1,22,-1
 15 12 l 1,23,-1
 13 12 l 1,20,-1
17 8 m 1,24,-1
 19 8 l 1,25,-1
 19 6 l 1,26,-1
 17 6 l 1,27,-1
 17 8 l 1,24,-1
19 8 m 1,28,-1
 19 10 l 1,29,-1
 21 10 l 1,30,-1
 21 8 l 1,31,-1
 19 8 l 1,28,-1
19 6 m 1,32,-1
 21 6 l 1,33,-1
 21 4 l 1,34,-1
 19 4 l 1,35,-1
 19 6 l 1,32,-1
17 6 m 1,36,-1
 17 4 l 1,37,-1
 15 4 l 1,38,-1
 15 6 l 1,39,-1
 17 6 l 1,36,-1
EndSplineSet
Ligature2: "liga-subtable" slash asterisk
EndChar

StartChar: ml_cmnt_end
Encoding: 202 -1 202
Width: 24
Flags: MW
LayerCount: 2
Fore
SplineSet
11 0 m 1,0,-1
 11 2 l 1,1,-1
 13 2 l 1,2,-1
 13 0 l 1,3,-1
 11 0 l 1,0,-1
11 10 m 1,4,-1
 11 8 l 1,5,-1
 9 8 l 1,6,-1
 9 10 l 1,7,-1
 11 10 l 1,4,-1
13 2 m 1,8,-1
 13 6 l 1,9,-1
 15 6 l 1,10,-1
 15 2 l 1,11,-1
 13 2 l 1,8,-1
15 6 m 1,12,-1
 15 8 l 1,13,-1
 17 8 l 1,14,-1
 17 6 l 1,15,-1
 15 6 l 1,12,-1
17 8 m 1,16,-1
 17 12 l 1,17,-1
 19 12 l 1,18,-1
 19 8 l 1,19,-1
 17 8 l 1,16,-1
19 12 m 1,20,-1
 19 14 l 1,21,-1
 21 14 l 1,22,-1
 21 12 l 1,23,-1
 19 12 l 1,20,-1
9 8 m 1,24,-1
 9 6 l 1,25,-1
 7 6 l 1,26,-1
 7 8 l 1,27,-1
 9 8 l 1,24,-1
7 6 m 1,28,-1
 7 4 l 1,29,-1
 5 4 l 1,30,-1
 5 6 l 1,31,-1
 7 6 l 1,28,-1
7 8 m 1,32,-1
 5 8 l 1,33,-1
 5 10 l 1,34,-1
 7 10 l 1,35,-1
 7 8 l 1,32,-1
9 6 m 1,36,-1
 11 6 l 1,37,-1
 11 4 l 1,38,-1
 9 4 l 1,39,-1
 9 6 l 1,36,-1
EndSplineSet
Ligature2: "liga-subtable" asterisk slash
EndChar

StartChar: gte
Encoding: 204 -1 204
Width: 24
Flags: MW
LayerCount: 2
Fore
SplineSet
7 14 m 1,0,-1
 11 14 l 1,1,-1
 11 12 l 1,2,-1
 7 12 l 1,3,-1
 7 14 l 1,0,-1
7 2 m 1,4,-1
 19 2 l 1,5,-1
 19 0 l 1,6,-1
 7 0 l 1,7,-1
 7 2 l 1,4,-1
11 12 m 1,8,-1
 15 12 l 1,9,-1
 15 10 l 1,10,-1
 11 10 l 1,11,-1
 11 12 l 1,8,-1
15 10 m 1,12,-1
 19 10 l 1,13,-1
 19 8 l 1,14,-1
 15 8 l 1,15,-1
 15 10 l 1,12,-1
15 8 m 1,16,-1
 15 6 l 1,17,-1
 11 6 l 1,18,-1
 11 8 l 1,19,-1
 15 8 l 1,16,-1
11 6 m 1,20,-1
 11 4 l 1,21,-1
 7 4 l 1,22,-1
 7 6 l 1,23,-1
 11 6 l 1,20,-1
EndSplineSet
LCarets2: 1 0
Ligature2: "liga-subtable" greater equal
EndChar

StartChar: lte
Encoding: 205 -1 205
Width: 24
Flags: MW
LayerCount: 2
Fore
SplineSet
17 14 m 1,0,-1
 13 14 l 1,1,-1
 13 12 l 1,2,-1
 17 12 l 1,3,-1
 17 14 l 1,0,-1
17 2 m 1,4,-1
 5 2 l 1,5,-1
 5 0 l 1,6,-1
 17 0 l 1,7,-1
 17 2 l 1,4,-1
13 12 m 1,8,-1
 9 12 l 1,9,-1
 9 10 l 1,10,-1
 13 10 l 1,11,-1
 13 12 l 1,8,-1
9 10 m 1,12,-1
 5 10 l 1,13,-1
 5 8 l 1,14,-1
 9 8 l 1,15,-1
 9 10 l 1,12,-1
9 8 m 1,16,-1
 9 6 l 1,17,-1
 13 6 l 1,18,-1
 13 8 l 1,19,-1
 9 8 l 1,16,-1
13 6 m 1,20,-1
 13 4 l 1,21,-1
 17 4 l 1,22,-1
 17 6 l 1,23,-1
 13 6 l 1,20,-1
EndSplineSet
Ligature2: "liga-subtable" less equal
EndChar

StartChar: not_eq
Encoding: 206 -1 206
Width: 24
Flags: MW
LayerCount: 2
Fore
SplineSet
21 8 m 5,0,-1
 7 8 l 1,1,-1
 7 10 l 1,2,-1
 21 10 l 1,3,-1
 21 8 l 5,0,-1
21 6 m 5,4,-1
 21 4 l 1,5,-1
 7 4 l 1,6,-1
 7 6 l 1,7,-1
 21 6 l 5,4,-1
5 13 m 1,8,-1
 5 4 l 1,9,-1
 3 4 l 1,10,-1
 3 13 l 1,11,-1
 5 13 l 1,8,-1
5 2 m 1,12,-1
 5 0 l 1,13,-1
 3 0 l 1,14,-1
 3 2 l 1,15,-1
 5 2 l 1,12,-1
EndSplineSet
Ligature2: "liga-subtable" exclam equal
EndChar

StartChar: dbl_eq
Encoding: 207 -1 207
Width: 24
Flags: MW
LayerCount: 2
Fore
SplineSet
3 10 m 1,0,-1
 21 10 l 1,1,-1
 21 8 l 1,2,-1
 3 8 l 1,3,-1
 3 10 l 1,0,-1
21 6 m 1,4,-1
 21 4 l 1,5,-1
 3 4 l 1,6,-1
 3 6 l 1,7,-1
 21 6 l 1,4,-1
EndSplineSet
Ligature2: "liga-subtable" equal equal
EndChar

StartChar: not_eq_trpl
Encoding: 208 -1 208
Width: 36
Flags: MW
LayerCount: 2
Fore
SplineSet
3 14 m 1,0,-1
 5 14 l 1,1,-1
 5 4 l 1,2,-1
 3 4 l 1,3,-1
 3 14 l 1,0,-1
3 2 m 1,4,-1
 5 2 l 1,5,-1
 5 0 l 1,6,-1
 3 0 l 1,7,-1
 3 2 l 1,4,-1
7 4 m 1,8,-1
 33 4 l 1,9,-1
 33 2 l 1,10,-1
 7 2 l 1,11,-1
 7 4 l 1,8,-1
33 6 m 5,12,-1
 7 6 l 1,13,-1
 7 8 l 1,14,-1
 33 8 l 1,15,-1
 33 6 l 5,12,-1
7 10 m 1,16,-1
 7 12 l 1,17,-1
 33 12 l 1,18,-1
 33 10 l 1,19,-1
 7 10 l 1,16,-1
EndSplineSet
LCarets2: 2 0 0
Ligature2: "liga-subtable" exclam equal equal
EndChar

StartChar: trpl_eq
Encoding: 209 -1 209
Width: 36
Flags: MW
LayerCount: 2
Fore
SplineSet
3 12 m 5,0,-1
 33 12 l 1,1,-1
 33 10 l 1,2,-1
 3 10 l 1,3,-1
 3 12 l 5,0,-1
33 8 m 1,4,-1
 33 6 l 1,5,-1
 3 6 l 1,6,-1
 3 8 l 1,7,-1
 33 8 l 1,4,-1
3 4 m 5,8,-1
 33 4 l 1,9,-1
 33 2 l 1,10,-1
 3 2 l 1,11,-1
 3 4 l 5,8,-1
EndSplineSet
Ligature2: "liga-subtable" equal equal equal
EndChar

StartChar: eq_right_arrow
Encoding: 210 -1 210
Width: 24
Flags: MW
LayerCount: 2
Fore
SplineSet
15 14 m 1,0,-1
 17 14 l 1,1,-1
 17 12 l 1,2,-1
 15 12 l 1,3,-1
 15 14 l 1,0,-1
17 10 m 1,4,-1
 17 12 l 1,5,-1
 19 12 l 1,6,-1
 19 10 l 1,7,-1
 21 10 l 1,8,-1
 21 8 l 1,9,-1
 19 8 l 1,10,-1
 1 8 l 1,11,-1
 1 10 l 1,12,-1
 17 10 l 1,4,-1
21 8 m 1,13,-1
 23 8 l 1,14,-1
 23 6 l 1,15,-1
 21 6 l 1,16,-1
 21 8 l 1,13,-1
19 6 m 1,17,-1
 21 6 l 1,18,-1
 21 4 l 1,19,-1
 19 4 l 1,20,-1
 19 2 l 1,21,-1
 17 2 l 1,22,-1
 17 4 l 1,23,-1
 1 4 l 1,24,-1
 1 6 l 1,25,-1
 19 6 l 1,17,-1
17 2 m 1,26,-1
 17 0 l 1,27,-1
 15 0 l 1,28,-1
 15 2 l 1,29,-1
 17 2 l 1,26,-1
EndSplineSet
LCarets2: 1 0
Ligature2: "liga-subtable" equal greater
EndChar

StartChar: right_arrow
Encoding: 211 -1 211
Width: 24
Flags: MW
LayerCount: 2
Fore
SplineSet
19 6 m 5,0,-1
 1 6 l 1,1,-1
 1 8 l 1,2,-1
 19 8 l 1,3,-1
 19 10 l 1,4,-1
 21 10 l 1,5,-1
 21 8 l 1,6,-1
 23 8 l 1,7,-1
 23 6 l 1,8,-1
 21 6 l 1,9,-1
 21 4 l 1,10,-1
 19 4 l 1,11,-1
 19 6 l 5,0,-1
19 4 m 5,12,-1
 19 2 l 1,13,-1
 17 2 l 1,14,-1
 17 4 l 1,15,-1
 19 4 l 5,12,-1
17 2 m 5,16,-1
 17 0 l 1,17,-1
 15 0 l 1,18,-1
 15 2 l 1,19,-1
 17 2 l 5,16,-1
19 10 m 5,20,-1
 17 10 l 1,21,-1
 17 12 l 1,22,-1
 19 12 l 1,23,-1
 19 10 l 5,20,-1
17 12 m 5,24,-1
 15 12 l 1,25,-1
 15 14 l 1,26,-1
 17 14 l 1,27,-1
 17 12 l 5,24,-1
EndSplineSet
LCarets2: 1 0
Ligature2: "liga-subtable" hyphen greater
EndChar

StartChar: left_arrow
Encoding: 212 -1 212
Width: 24
Flags: MW
LayerCount: 2
Fore
SplineSet
5 6 m 1,0,-1
 23 6 l 1,1,-1
 23 8 l 1,2,-1
 5 8 l 1,3,-1
 5 10 l 1,4,-1
 3 10 l 1,5,-1
 3 8 l 1,6,-1
 1 8 l 1,7,-1
 1 6 l 1,8,-1
 3 6 l 1,9,-1
 3 4 l 1,10,-1
 5 4 l 1,11,-1
 5 6 l 1,0,-1
5 4 m 1,12,-1
 5 2 l 1,13,-1
 7 2 l 1,14,-1
 7 4 l 1,15,-1
 5 4 l 1,12,-1
7 2 m 1,16,-1
 7 0 l 1,17,-1
 9 0 l 1,18,-1
 9 2 l 1,19,-1
 7 2 l 1,16,-1
5 10 m 1,20,-1
 7 10 l 1,21,-1
 7 12 l 1,22,-1
 5 12 l 1,23,-1
 5 10 l 1,20,-1
7 12 m 1,24,-1
 9 12 l 1,25,-1
 9 14 l 1,26,-1
 7 14 l 1,27,-1
 7 12 l 1,24,-1
EndSplineSet
Ligature2: "liga-subtable" less hyphen
EndChar

StartChar: rsh_eq
Encoding: 213 -1 213
Width: 36
Flags: MW
LayerCount: 2
Fore
SplineSet
5 12 m 1,0,-1
 7 12 l 1,1,-1
 7 10 l 1,2,-1
 5 10 l 1,3,-1
 5 12 l 1,0,-1
13 12 m 1,4,-1
 15 12 l 1,5,-1
 15 10 l 1,6,-1
 13 10 l 1,7,-1
 13 12 l 1,4,-1
7 10 m 1,8,-1
 9 10 l 1,9,-1
 9 8 l 1,10,-1
 7 8 l 1,11,-1
 7 10 l 1,8,-1
9 8 m 1,12,-1
 11 8 l 1,13,-1
 11 6 l 1,14,-1
 9 6 l 1,15,-1
 9 8 l 1,12,-1
9 6 m 1,16,-1
 9 4 l 1,17,-1
 7 4 l 1,18,-1
 7 6 l 1,19,-1
 9 6 l 1,16,-1
7 4 m 1,20,-1
 7 2 l 1,21,-1
 5 2 l 1,22,-1
 5 4 l 1,23,-1
 7 4 l 1,20,-1
15 10 m 1,24,-1
 17 10 l 1,25,-1
 17 8 l 1,26,-1
 15 8 l 1,27,-1
 15 10 l 1,24,-1
17 8 m 1,28,-1
 19 8 l 1,29,-1
 19 6 l 1,30,-1
 17 6 l 1,31,-1
 17 8 l 1,28,-1
17 6 m 1,32,-1
 17 4 l 1,33,-1
 15 4 l 1,34,-1
 15 6 l 1,35,-1
 17 6 l 1,32,-1
15 4 m 1,36,-1
 15 2 l 1,37,-1
 13 2 l 1,38,-1
 13 4 l 1,39,-1
 15 4 l 1,36,-1
EndSplineSet
Refer: 29 61 N 1 0 0 1 20 0 2
Ligature2: "liga-subtable" greater greater equal
EndChar

StartChar: lsh_eq
Encoding: 214 -1 214
Width: 36
Flags: MW
LayerCount: 2
Fore
SplineSet
19 12 m 1,0,-1
 17 12 l 1,1,-1
 17 10 l 1,2,-1
 19 10 l 1,3,-1
 19 12 l 1,0,-1
11 12 m 1,4,-1
 9 12 l 1,5,-1
 9 10 l 1,6,-1
 11 10 l 1,7,-1
 11 12 l 1,4,-1
17 10 m 1,8,-1
 15 10 l 1,9,-1
 15 8 l 1,10,-1
 17 8 l 1,11,-1
 17 10 l 1,8,-1
15 8 m 1,12,-1
 13 8 l 1,13,-1
 13 6 l 1,14,-1
 15 6 l 1,15,-1
 15 8 l 1,12,-1
15 6 m 1,16,-1
 15 4 l 1,17,-1
 17 4 l 1,18,-1
 17 6 l 1,19,-1
 15 6 l 1,16,-1
17 4 m 1,20,-1
 17 2 l 1,21,-1
 19 2 l 1,22,-1
 19 4 l 1,23,-1
 17 4 l 1,20,-1
9 10 m 1,24,-1
 7 10 l 1,25,-1
 7 8 l 1,26,-1
 9 8 l 1,27,-1
 9 10 l 1,24,-1
7 8 m 1,28,-1
 5 8 l 1,29,-1
 5 6 l 1,30,-1
 7 6 l 1,31,-1
 7 8 l 1,28,-1
7 6 m 1,32,-1
 7 4 l 1,33,-1
 9 4 l 1,34,-1
 9 6 l 1,35,-1
 7 6 l 1,32,-1
9 4 m 1,36,-1
 9 2 l 1,37,-1
 11 2 l 1,38,-1
 11 4 l 1,39,-1
 9 4 l 1,36,-1
EndSplineSet
Refer: 29 61 N 1 0 0 1 20 0 2
LCarets2: 2 0 0
Ligature2: "liga-subtable" less less equal
EndChar

StartChar: asterisk_eq
Encoding: 215 -1 215
Width: 24
Flags: MW
LayerCount: 2
Fore
SplineSet
3 10 m 1,0,-1
 5 10 l 1,1,-1
 5 8 l 1,2,-1
 3 8 l 1,3,-1
 3 10 l 1,0,-1
5 8 m 1,4,-1
 7 8 l 1,5,-1
 7 6 l 1,6,-1
 5 6 l 1,7,-1
 5 8 l 1,4,-1
7 8 m 1,8,-1
 7 10 l 1,9,-1
 9 10 l 1,10,-1
 9 8 l 1,11,-1
 7 8 l 1,8,-1
7 6 m 1,12,-1
 9 6 l 1,13,-1
 9 4 l 1,14,-1
 7 4 l 1,15,-1
 7 6 l 1,12,-1
5 6 m 1,16,-1
 5 4 l 1,17,-1
 3 4 l 1,18,-1
 3 6 l 1,19,-1
 5 6 l 1,16,-1
EndSplineSet
Refer: 29 61 S 1 0 0 1 10 0 2
Ligature2: "liga-subtable" asterisk equal
EndChar

StartChar: slash_eq
Encoding: 216 -1 216
Width: 24
Flags: MW
LayerCount: 2
Fore
SplineSet
3 0 m 1,0,-1
 3 2 l 1,1,-1
 5 2 l 1,2,-1
 5 0 l 1,3,-1
 3 0 l 1,0,-1
5 2 m 1,4,-1
 5 6 l 1,5,-1
 7 6 l 1,6,-1
 7 8 l 1,7,-1
 9 8 l 1,8,-1
 9 6 l 1,9,-1
 21 6 l 1,10,-1
 21 4 l 1,11,-1
 7 4 l 1,12,-1
 7 2 l 1,13,-1
 5 2 l 1,4,-1
9 8 m 1,14,-1
 9 12 l 1,15,-1
 11 12 l 1,16,-1
 11 10 l 1,17,-1
 21 10 l 1,18,-1
 21 8 l 1,19,-1
 11 8 l 1,20,-1
 9 8 l 1,14,-1
11 12 m 1,21,-1
 11 14 l 1,22,-1
 13 14 l 1,23,-1
 13 12 l 1,24,-1
 11 12 l 1,21,-1
EndSplineSet
Ligature2: "liga-subtable" slash equal
EndChar

StartChar: html_cmnt_start
Encoding: 220 -1 220
Width: 48
Flags: MW
LayerCount: 2
Fore
SplineSet
17 4 m 1,0,-1
 15 4 l 1,1,-1
 15 14 l 1,2,-1
 17 14 l 1,3,-1
 17 4 l 1,0,-1
15 2 m 1,4,-1
 17 2 l 1,5,-1
 17 0 l 1,6,-1
 15 0 l 1,7,-1
 15 2 l 1,4,-1
19 8 m 1,8,-1
 47 8 l 1,9,-1
 47 6 l 1,10,-1
 19 6 l 1,11,-1
 19 8 l 1,8,-1
13 8 m 1,12,-1
 13 6 l 1,13,-1
 9 6 l 1,14,-1
 9 4 l 1,15,-1
 7 4 l 1,16,-1
 7 6 l 1,17,-1
 5 6 l 1,18,-1
 5 8 l 1,19,-1
 7 8 l 1,20,-1
 7 10 l 1,21,-1
 9 10 l 1,22,-1
 9 8 l 1,23,-1
 13 8 l 1,12,-1
9 10 m 1,24,-1
 9 12 l 1,25,-1
 11 12 l 1,26,-1
 11 10 l 1,27,-1
 9 10 l 1,24,-1
11 12 m 1,28,-1
 11 14 l 1,29,-1
 13 14 l 1,30,-1
 13 12 l 1,31,-1
 11 12 l 1,28,-1
9 4 m 1,32,-1
 11 4 l 1,33,-1
 11 2 l 1,34,-1
 9 2 l 1,35,-1
 9 4 l 1,32,-1
11 2 m 1,36,-1
 13 2 l 1,37,-1
 13 0 l 1,38,-1
 11 0 l 1,39,-1
 11 2 l 1,36,-1
EndSplineSet
Ligature2: "liga-subtable" less exclam hyphen hyphen
EndChar

StartChar: html_cmnt_end
Encoding: 221 -1 221
Width: 36
Flags: MW
LayerCount: 2
Fore
SplineSet
31 8 m 1,0,-1
 31 6 l 1,1,-1
 29 6 l 1,2,-1
 29 4 l 1,3,-1
 27 4 l 1,4,-1
 27 6 l 1,5,-1
 1 6 l 1,6,-1
 1 8 l 1,7,-1
 27 8 l 1,8,-1
 27 10 l 1,9,-1
 29 10 l 1,10,-1
 29 8 l 1,11,-1
 31 8 l 1,0,-1
27 4 m 1,12,-1
 27 2 l 1,13,-1
 25 2 l 1,14,-1
 25 4 l 1,15,-1
 27 4 l 1,12,-1
25 2 m 1,16,-1
 25 0 l 1,17,-1
 23 0 l 1,18,-1
 23 2 l 1,19,-1
 25 2 l 1,16,-1
27 10 m 1,20,-1
 25 10 l 1,21,-1
 25 12 l 1,22,-1
 27 12 l 1,23,-1
 27 10 l 1,20,-1
25 12 m 1,24,-1
 23 12 l 1,25,-1
 23 14 l 1,26,-1
 25 14 l 1,27,-1
 25 12 l 1,24,-1
EndSplineSet
LCarets2: 2 0 0
Ligature2: "liga-subtable" hyphen hyphen greater
EndChar

StartChar: colon_eq
Encoding: 222 -1 222
Width: 24
VWidth: 36
Flags: MW
LayerCount: 2
Fore
SplineSet
5 10 m 1,0,-1
 7 10 l 1,1,-1
 7 8 l 1,2,-1
 5 8 l 1,3,-1
 5 10 l 1,0,-1
5 6 m 1,4,-1
 7 6 l 1,5,-1
 7 4 l 1,6,-1
 5 4 l 1,7,-1
 5 6 l 1,4,-1
EndSplineSet
Refer: 29 61 N 1 0 0 1 8 0 2
LCarets2: 1 0
Ligature2: "liga-subtable" colon equal
EndChar

StartChar: rsh
Encoding: 226 -1 226
Width: 24
Flags: MW
LayerCount: 2
Fore
SplineSet
5 12 m 1,0,-1
 7 12 l 1,1,-1
 7 10 l 1,2,-1
 5 10 l 1,3,-1
 5 12 l 1,0,-1
13 12 m 1,4,-1
 15 12 l 1,5,-1
 15 10 l 1,6,-1
 13 10 l 1,7,-1
 13 12 l 1,4,-1
7 10 m 1,8,-1
 9 10 l 1,9,-1
 9 8 l 1,10,-1
 7 8 l 1,11,-1
 7 10 l 1,8,-1
9 8 m 1,12,-1
 11 8 l 1,13,-1
 11 6 l 1,14,-1
 9 6 l 1,15,-1
 9 8 l 1,12,-1
9 6 m 1,16,-1
 9 4 l 1,17,-1
 7 4 l 1,18,-1
 7 6 l 1,19,-1
 9 6 l 1,16,-1
7 4 m 1,20,-1
 7 2 l 1,21,-1
 5 2 l 1,22,-1
 5 4 l 1,23,-1
 7 4 l 1,20,-1
15 10 m 1,24,-1
 17 10 l 1,25,-1
 17 8 l 1,26,-1
 15 8 l 1,27,-1
 15 10 l 1,24,-1
17 8 m 1,28,-1
 19 8 l 1,29,-1
 19 6 l 1,30,-1
 17 6 l 1,31,-1
 17 8 l 1,28,-1
17 6 m 1,32,-1
 17 4 l 1,33,-1
 15 4 l 1,34,-1
 15 6 l 1,35,-1
 17 6 l 1,32,-1
15 4 m 1,36,-1
 15 2 l 1,37,-1
 13 2 l 1,38,-1
 13 4 l 1,39,-1
 15 4 l 1,36,-1
EndSplineSet
Ligature2: "liga-subtable" greater greater
EndChar

StartChar: lsh
Encoding: 227 -1 227
Width: 24
Flags: MW
LayerCount: 2
Fore
SplineSet
19 12 m 1,0,-1
 17 12 l 1,1,-1
 17 10 l 1,2,-1
 19 10 l 1,3,-1
 19 12 l 1,0,-1
11 12 m 1,4,-1
 9 12 l 1,5,-1
 9 10 l 1,6,-1
 11 10 l 1,7,-1
 11 12 l 1,4,-1
17 10 m 1,8,-1
 15 10 l 1,9,-1
 15 8 l 1,10,-1
 17 8 l 1,11,-1
 17 10 l 1,8,-1
15 8 m 1,12,-1
 13 8 l 1,13,-1
 13 6 l 1,14,-1
 15 6 l 1,15,-1
 15 8 l 1,12,-1
15 6 m 1,16,-1
 15 4 l 1,17,-1
 17 4 l 1,18,-1
 17 6 l 1,19,-1
 15 6 l 1,16,-1
17 4 m 1,20,-1
 17 2 l 1,21,-1
 19 2 l 1,22,-1
 19 4 l 1,23,-1
 17 4 l 1,20,-1
9 10 m 1,24,-1
 7 10 l 1,25,-1
 7 8 l 1,26,-1
 9 8 l 1,27,-1
 9 10 l 1,24,-1
7 8 m 1,28,-1
 5 8 l 1,29,-1
 5 6 l 1,30,-1
 7 6 l 1,31,-1
 7 8 l 1,28,-1
7 6 m 1,32,-1
 7 4 l 1,33,-1
 9 4 l 1,34,-1
 9 6 l 1,35,-1
 7 6 l 1,32,-1
9 4 m 1,36,-1
 9 2 l 1,37,-1
 11 2 l 1,38,-1
 11 4 l 1,39,-1
 9 4 l 1,36,-1
EndSplineSet
Ligature2: "liga-subtable" less less
EndChar

StartChar: trpl_rsh
Encoding: 228 -1 228
Width: 36
Flags: MW
LayerCount: 2
Fore
SplineSet
7 12 m 1,0,-1
 9 12 l 1,1,-1
 9 10 l 1,2,-1
 7 10 l 1,3,-1
 7 12 l 1,0,-1
15 12 m 1,4,-1
 17 12 l 1,5,-1
 17 10 l 1,6,-1
 15 10 l 1,7,-1
 15 12 l 1,4,-1
23 12 m 1,8,-1
 25 12 l 1,9,-1
 25 10 l 1,10,-1
 23 10 l 1,11,-1
 23 12 l 1,8,-1
9 10 m 1,12,-1
 11 10 l 1,13,-1
 11 8 l 1,14,-1
 9 8 l 1,15,-1
 9 10 l 1,12,-1
11 8 m 1,16,-1
 13 8 l 1,17,-1
 13 6 l 1,18,-1
 11 6 l 1,19,-1
 11 8 l 1,16,-1
11 6 m 1,20,-1
 11 4 l 1,21,-1
 9 4 l 1,22,-1
 9 6 l 1,23,-1
 11 6 l 1,20,-1
9 4 m 1,24,-1
 9 2 l 1,25,-1
 7 2 l 1,26,-1
 7 4 l 1,27,-1
 9 4 l 1,24,-1
17 10 m 1,28,-1
 19 10 l 1,29,-1
 19 8 l 1,30,-1
 17 8 l 1,31,-1
 17 10 l 1,28,-1
19 8 m 1,32,-1
 21 8 l 1,33,-1
 21 6 l 1,34,-1
 19 6 l 1,35,-1
 19 8 l 1,32,-1
19 6 m 1,36,-1
 19 4 l 1,37,-1
 17 4 l 1,38,-1
 17 6 l 1,39,-1
 19 6 l 1,36,-1
17 4 m 1,40,-1
 17 2 l 1,41,-1
 15 2 l 1,42,-1
 15 4 l 1,43,-1
 17 4 l 1,40,-1
25 10 m 1,44,-1
 27 10 l 1,45,-1
 27 8 l 1,46,-1
 25 8 l 1,47,-1
 25 10 l 1,44,-1
27 8 m 1,48,-1
 29 8 l 1,49,-1
 29 6 l 1,50,-1
 27 6 l 1,51,-1
 27 8 l 1,48,-1
27 6 m 1,52,-1
 27 4 l 1,53,-1
 25 4 l 1,54,-1
 25 6 l 1,55,-1
 27 6 l 1,52,-1
25 4 m 1,56,-1
 25 2 l 1,57,-1
 23 2 l 1,58,-1
 23 4 l 1,59,-1
 25 4 l 1,56,-1
EndSplineSet
Ligature2: "liga-subtable" greater greater greater
EndChar

StartChar: trpl_lsh
Encoding: 229 -1 229
Width: 36
Flags: MW
LayerCount: 2
Fore
SplineSet
29 12 m 1,0,-1
 27 12 l 1,1,-1
 27 10 l 1,2,-1
 29 10 l 1,3,-1
 29 12 l 1,0,-1
21 12 m 1,4,-1
 19 12 l 1,5,-1
 19 10 l 1,6,-1
 21 10 l 1,7,-1
 21 12 l 1,4,-1
13 12 m 1,8,-1
 11 12 l 1,9,-1
 11 10 l 1,10,-1
 13 10 l 1,11,-1
 13 12 l 1,8,-1
27 10 m 1,12,-1
 25 10 l 1,13,-1
 25 8 l 1,14,-1
 27 8 l 1,15,-1
 27 10 l 1,12,-1
25 8 m 1,16,-1
 23 8 l 1,17,-1
 23 6 l 1,18,-1
 25 6 l 1,19,-1
 25 8 l 1,16,-1
25 6 m 1,20,-1
 25 4 l 1,21,-1
 27 4 l 1,22,-1
 27 6 l 1,23,-1
 25 6 l 1,20,-1
27 4 m 1,24,-1
 27 2 l 1,25,-1
 29 2 l 1,26,-1
 29 4 l 1,27,-1
 27 4 l 1,24,-1
19 10 m 1,28,-1
 17 10 l 1,29,-1
 17 8 l 1,30,-1
 19 8 l 1,31,-1
 19 10 l 1,28,-1
17 8 m 1,32,-1
 15 8 l 1,33,-1
 15 6 l 1,34,-1
 17 6 l 1,35,-1
 17 8 l 1,32,-1
17 6 m 1,36,-1
 17 4 l 1,37,-1
 19 4 l 1,38,-1
 19 6 l 1,39,-1
 17 6 l 1,36,-1
19 4 m 1,40,-1
 19 2 l 1,41,-1
 21 2 l 1,42,-1
 21 4 l 1,43,-1
 19 4 l 1,40,-1
11 10 m 1,44,-1
 9 10 l 1,45,-1
 9 8 l 1,46,-1
 11 8 l 1,47,-1
 11 10 l 1,44,-1
9 8 m 1,48,-1
 7 8 l 1,49,-1
 7 6 l 1,50,-1
 9 6 l 1,51,-1
 9 8 l 1,48,-1
9 6 m 1,52,-1
 9 4 l 1,53,-1
 11 4 l 1,54,-1
 11 6 l 1,55,-1
 9 6 l 1,52,-1
11 4 m 1,56,-1
 11 2 l 1,57,-1
 13 2 l 1,58,-1
 13 4 l 1,59,-1
 11 4 l 1,56,-1
EndSplineSet
Ligature2: "liga-subtable" less less less
EndChar

StartChar: question_dot
Encoding: 230 -1 230
Width: 24
VWidth: 36
Flags: MW
LayerCount: 2
Fore
SplineSet
17 2 m 1,0,-1
 19 2 l 1,1,-1
 19 0 l 1,2,-1
 17 0 l 1,3,-1
 17 2 l 1,0,-1
EndSplineSet
Refer: 31 63 N 1 0 0 1 4 0 2
Ligature2: "liga-subtable" question period
EndChar

StartChar: comma.straight
Encoding: 233 -1 233
Width: 12
VWidth: 36
Flags: MW
LayerCount: 2
Fore
SplineSet
3 -2 m 5,0,-1
 3 2 l 5,1,-1
 5 2 l 5,2,-1
 5 -2 l 5,3,-1
 3 -2 l 5,0,-1
EndSplineSet
EndChar

StartChar: semicolon.straight
Encoding: 234 -1 234
Width: 12
VWidth: 36
Flags: MW
LayerCount: 2
Fore
SplineSet
5 2 m 5,0,-1
 7 2 l 1,1,-1
 7 -2 l 1,2,-1
 5 -2 l 1,3,-1
 5 2 l 5,0,-1
5 10 m 5,4,-1
 7 10 l 1,5,-1
 7 8 l 1,6,-1
 5 8 l 1,7,-1
 5 10 l 5,4,-1
EndSplineSet
EndChar
